<?xml version="1.0" encoding="UTF-8"?>
<svg xmlns="http://www.w3.org/2000/svg" xmlns:xlink="http://www.w3.org/1999/xlink" version="1.2" >
<font id="Permanent Marker">
<font-face  font-family="Permanent Marker" units-per-em="1024" ascent="622" descent="-61" font-style="normal" font-weight="400" font-stretch="normal" cap-height="758" x-height="625" underline-position="-77" underline-thickness="51" />
<missing-glyph  horiz-adv-x="379" d="" />
<glyph glyph-name="eth" unicode="&#xf0;" horiz-adv-x="554" d="M533 237 Q503 184 457 148 Q411 112 356.5 84.5 Q302 57 242.5 34 Q183 11 127 -15 Q103 -9 90 5 Q77 19 70.5 37.5 Q64 56 62 79 Q60 102 58 126 Q61 137 66.5 144.5 Q72 152 71 166 Q78 185 84 203.5 Q90 222 94 242 Q64 235 47 229.5 Q30 224 24 219 Q12 220 5 226 Q-2 232 -6 240.5 Q-10 249 -13 260 Q-16 271 -20 283 Q-18 291 -19 306 Q-20 321 -26 329 Q-21 330 -18.5 340.5 Q-16 351 -18 356 Q-8 360 3.5 361.5 Q15 363 26.5 364.5 Q38 366 47.5 368.5 Q57 371 65 378 Q76 379 87 379.5 Q98 380 109 381 Q107 404 102.5 427 Q98 450 93 471 Q94 480 95.5 484.5 Q97 489 95 492 Q93 500 100 500 Q107 500 114 500 Q114 515 108.5 530 Q103 545 98 564 Q105 579 107 593.5 Q109 608 116 620 Q143 612 169 601 Q195 590 220.5 579 Q246 568 270 558.5 Q294 549 318 543 Q354 517 392 491.5 Q430 466 461.5 435 Q493 404 514.5 365 Q536 326 539 272 Q537 261 534.5 256.5 Q532 252 533 237 Z M300 216 Q321 224 341.5 233 Q362 242 380 254 Q398 266 412 281 Q426 296 435 317 Q429 329 419 338.5 Q409 348 399 356.5 Q389 365 379 374.5 Q369 384 363 397 Q350 399 340 404 Q330 409 320.5 415 Q311 421 300.5 425.5 Q290 430 276 431 Q254 443 236.5 447.5 Q219 452 209 460 Q203 462 199 458 Q209 419 214 384 Q224 383 235.5 382 Q247 381 256.5 377.5 Q266 374 274 365 Q282 356 285 340 Q294 339 298 333.5 Q302 328 303.5 320.5 Q305 313 304 304 Q303 295 303 286 Q289 271 265.5 263.5 Q242 256 216 253 Q213 217 204 173 Q215 174 223.5 177.5 Q232 181 240.5 185 Q249 189 258.5 192.5 Q268 196 281 197 Q284 204 289.5 207.5 Q295 211 300 216 Z " />
<glyph glyph-name="Lslash" unicode="&#x141;" horiz-adv-x="648" d="M383 479 Q398 482 405.5 478.5 Q413 475 417 468 Q421 461 422.5 452.5 Q424 444 426 435 Q414 422 394.5 410.5 Q375 399 351 389 Q327 379 299.5 370 Q272 361 245 353 Q242 347 239.5 341 Q237 335 234 328 Q220 293 208 258.5 Q196 224 194 180 Q206 183 216 183 Q229 183 241 179 Q277 197 319.5 201 Q362 205 404 206 Q439 206 469 209 Q479 202 482 201.5 Q485 201 492 201 Q495 201 498 201 Q501 201 506 200 Q520 186 533 180.5 Q546 175 561 170 Q574 165 586.5 159.5 Q599 154 611 145 L620 94 Q628 83 627 79 Q627 71 623 65 L625 52 Q606 48 600 43.5 Q594 39 587 32 Q576 31 566 31 Q546 31 525 25 Q495 36 459 36 Q445 36 430.5 35 Q416 34 402 32 Q387 30 372 28.5 Q357 27 342 27 Q330 25 325 24 Q320 23 315 21 Q281 10 241.5 -1 Q202 -12 162 -12 Q103 -12 67 18 Q63 27 61 30 Q59 33 57 37 Q53 41 50 46.5 Q47 52 45 61 Q31 78 23 100 Q15 122 12 145.5 Q9 169 11 193 Q13 217 18 238 Q21 248 23 259 Q25 264 25.5 268 Q26 272 28 277 Q13 269 7 265 Q-12 261 -24.5 264 Q-37 267 -46 273.5 Q-55 280 -62.5 289.5 Q-70 299 -80 309 Q-78 318 -83.5 332 Q-89 346 -100 351 Q-93 354 -91.5 364.5 Q-90 375 -95 380 Q-80 388 -62.5 394 Q-45 400 -28 405.5 Q-11 411 4 417.5 Q19 424 29 433 Q43 437 57.5 440.5 Q72 444 86 449 Q98 483 110 515 Q130 570 148.5 623 Q167 676 182 736 Q190 742 196 744 Q198 745 201 746 Q204 747 208 747 Q229 736 257.5 726.5 Q286 717 306 717 L323 702 Q336 687 345.5 670.5 Q355 654 351 628 Q345 619 341 617 Q335 594 328 576.5 Q321 559 314 543 Q309 533 305 523 Q301 513 297 502 Q323 506 346 503.5 Q369 501 383 479 Z " />
<glyph glyph-name="lslash" unicode="&#x142;" horiz-adv-x="546" d="M330 387 Q343 389 350 386 Q357 383 361 377 Q365 371 366 363 Q367 355 369 348 Q358 336 339.5 325 Q321 314 298 304.5 Q275 295 249.5 287 Q224 279 199 272 Q185 239 175.5 210 Q166 181 164 144 Q169 146 173.5 146 Q178 146 182 146 Q191 146 203 143 Q233 159 268.5 162 Q304 165 339 166 Q353 166 367 166 Q381 166 393 168 Q402 163 404.5 162.5 Q407 162 412 162 Q419 162 424 161 Q436 150 447 145 Q458 140 470 136 Q481 132 491.5 127.5 Q502 123 512 115 L519 72 Q526 63 525 60 Q525 52 521 48 L523 37 Q508 34 502.5 30 Q497 26 492 21 Q484 20 480.5 20 Q477 20 474 20 Q460 20 440 15 Q413 24 384 24 Q373 24 361 23 Q349 22 337 21 Q325 19 312.5 17.5 Q300 16 287 17 L264 11 Q236 2 203 -7 Q170 -16 137 -16 Q87 -16 58 9 Q53 20 49 24 Q46 28 43.5 32.5 Q41 37 40 45 Q28 59 21 77.5 Q14 96 11.5 115.5 Q9 135 10.5 155 Q12 175 17 193 Q19 197 19.5 201 Q20 205 21 210 Q10 206 3 201.5 Q-4 197 -9 194 Q-26 191 -37 193.5 Q-48 196 -56 202 Q-64 208 -70.5 216.5 Q-77 225 -86 234 Q-84 242 -89.5 254.5 Q-95 267 -104 272 Q-98 274 -97 284 Q-96 294 -100 298 Q-87 305 -71 310 Q-55 315 -40 320 Q-25 325 -11 331 Q3 337 12 345 Q26 350 41 353.5 Q56 357 71 362 Q77 379 82.5 394 Q88 409 94 424 Q111 469 126 513 Q141 557 153 608 Q161 613 165 615 Q171 617 175 618 Q193 609 217 600.5 Q241 592 257 592 Q265 587 267 584.5 Q269 582 271 580 Q282 567 290 553.5 Q298 540 295 518 Q289 509 286 509 Q281 489 275.5 475 Q270 461 264 447 Q259 437 255 427.5 Q251 418 247 406 Q272 411 294.5 409.5 Q317 408 330 387 Z " />
<glyph glyph-name="Scaron" unicode="&#x160;" horiz-adv-x="590" d="M13 451 Q16 466 17 475.5 Q18 485 10 496 Q14 512 16.5 521 Q19 530 17 546 Q26 572 44.5 590 Q63 608 85 620.5 Q107 633 131 641.5 Q155 650 176 656 Q176 660 172 660 Q168 660 170 665 Q224 675 278.5 694 Q333 713 390 728 Q447 743 507 746.5 Q567 750 633 731 Q637 719 644 708 Q651 697 658.5 686.5 Q666 676 672 666 Q678 656 679 645 Q691 634 698.5 621.5 Q706 609 701 588 Q690 580 678 572 Q666 564 653 557 Q608 568 563 565 Q518 562 482 558 Q471 570 456 569.5 Q441 569 424.5 564.5 Q408 560 392 555.5 Q376 551 362 553 Q351 543 333 539.5 Q315 536 295 534 Q294 529 297 527 Q300 525 298 519 Q305 510 317 506.5 Q329 503 341.5 500 Q354 497 364 491.5 Q374 486 377 474 Q395 473 408 464.5 Q421 456 430 444 Q439 432 443 418.5 Q447 405 446 394 Q450 384 454.5 386 Q459 388 465 381 Q469 366 483.5 349.5 Q498 333 506 314 Q508 284 509.5 260 Q511 236 501 213 Q484 169 452 134 Q420 99 379.5 72.5 Q339 46 294 26.5 Q249 7 205 -6 Q201 -5 195.5 -6 Q190 -7 193 0 Q184 -8 172.5 -10 Q161 -12 147.5 -11.5 Q134 -11 120.5 -10 Q107 -9 94 -11 Q86 -3 79.5 5 Q73 13 69 24 Q64 25 64.5 30.5 Q65 36 60 36 Q60 40 61 42 Q62 44 63 46 Q67 49 66.5 50.5 Q66 52 63.5 53.5 Q61 55 58.5 57 Q56 59 57 62 Q62 71 60.5 83.5 Q59 96 58 109 Q57 122 60 133.5 Q63 145 77 153 Q118 149 154.5 157 Q191 165 223.5 179 Q256 193 285.5 209.5 Q315 226 343 240 Q346 250 352.5 257 Q359 264 366 270.5 Q373 277 379 284.5 Q385 292 388 303 Q389 307 388 309 Q387 311 385 312.5 Q383 314 381 316 Q379 318 379 322 Q376 323 373.5 324 Q371 325 369 325 Q343 338 314 347 Q285 356 265 367 Q253 359 241 363 Q229 367 212 371 Q170 373 132.5 379 Q95 385 60 400 Q58 406 55 410.5 Q52 415 41 413 Q34 423 26.5 431.5 Q19 440 13 451 Z M594 1078 Q595 1069 603 1060 Q611 1051 617 1047 Q622 1035 627 1025 Q632 1015 635 1005.5 Q638 996 637 986.5 Q636 977 630 967 Q622 964 607.5 953.5 Q593 943 570 921 Q559 911 544 895.5 Q529 880 511 865 Q493 850 474 837.5 Q455 825 437 821 L423 819 Q403 825 384 837.5 Q365 850 347 865 Q329 880 314 895.5 Q299 911 288 921 Q265 943 250.5 953.5 Q236 964 228 967 Q222 977 221 986.5 Q220 996 223 1005.5 Q226 1015 231 1025 Q236 1035 241 1047 Q247 1051 255 1060 Q263 1069 264 1078 Q268 1076 275.5 1081 Q283 1086 285 1091 Q294 1086 301.5 1077.5 Q309 1069 316.5 1061 Q324 1053 331.5 1046.5 Q339 1040 347 1039 Q367 1015 388.5 992 Q410 969 429 947 Q448 969 469.5 992 Q491 1015 511 1039 Q519 1040 526.5 1046.5 Q534 1053 541.5 1061 Q549 1069 556.5 1077.5 Q564 1086 573 1091 Q575 1086 582.5 1081 Q590 1076 594 1078 Z " />
<glyph glyph-name="scaron" unicode="&#x161;" horiz-adv-x="475" d="M16 450 Q23 471 38.5 486 Q54 501 72.5 511.5 Q91 522 111 529 Q131 536 149 541 Q189 558 234.5 573.5 Q280 589 327.5 601 Q375 613 425 616.5 Q475 620 530 604 Q533 594 539 585 Q545 576 551.5 567 Q558 558 563 549.5 Q568 541 569 532 Q579 523 585 512.5 Q591 502 587 485 Q577 477 567.5 470.5 Q558 464 547 459 Q510 468 472 465 Q434 462 404 460 Q395 469 382.5 469 Q370 469 356.5 465 Q343 461 329.5 457 Q316 453 304 455 Q294 447 279.5 444.5 Q265 442 248 440 Q247 435 250 433.5 Q253 432 251 427 Q257 420 266.5 417 Q276 414 286.5 411 Q297 408 305 403.5 Q313 399 316 389 Q331 389 342 382 Q353 375 360 365 Q367 355 370.5 343.5 Q374 332 374 323 Q377 315 381 316 Q385 317 390 312 Q393 299 405 285.5 Q417 272 424 256 Q426 231 427 211.5 Q428 192 420 172 Q405 135 378.5 106 Q352 77 318.5 54.5 Q285 32 247 16 Q209 0 173 -11 Q169 -10 165 -11 Q161 -12 163 -6 Q155 -13 145.5 -15 Q136 -17 125 -16.5 Q114 -16 102.5 -15 Q91 -14 81 -16 Q74 -9 68.5 -2.5 Q63 4 60 14 Q55 14 55.5 19 Q56 24 52 24 Q58 34 57.5 35.5 Q57 37 54.5 38 Q52 39 50 40.5 Q48 42 49 45 Q53 53 52 63.5 Q51 74 50 85 Q49 96 51.5 106 Q54 116 66 122 Q100 118 130.5 124.5 Q161 131 188 143 Q215 155 239.5 169 Q264 183 288 194 Q291 203 296.5 209 Q302 215 308 220 Q314 225 319 231 Q324 237 326 246 Q327 253 322.5 254.5 Q318 256 318 262 L307 265 Q288 276 264 283.5 Q240 291 223 300 Q212 294 202.5 297 Q193 300 178 303 Q144 305 112.5 310 Q81 315 52 328 Q50 333 47 337 Q44 341 36 339 Q30 347 24 354.5 Q18 362 13 371 Q15 383 16 391.5 Q17 400 10 408 Q14 421 16 429 Q18 437 16 450 Z M491 965 Q492 956 500 947 Q508 938 514 934 Q519 922 524 912 Q529 902 532 892.5 Q535 883 534 873.5 Q533 864 527 854 Q519 851 504.5 840.5 Q490 830 467 808 Q456 798 441 782.5 Q426 767 408 752 Q390 737 371 724.5 Q352 712 334 708 L320 706 Q300 712 281 724.5 Q262 737 244 752 Q226 767 211 782.5 Q196 798 185 808 Q162 830 147.5 840.5 Q133 851 125 854 Q119 864 118 873.5 Q117 883 120 892.5 Q123 902 128 912 Q133 922 138 934 Q144 938 152 947 Q160 956 161 965 Q165 963 172.5 968 Q180 973 182 978 Q191 973 198.5 964.5 Q206 956 213.5 948 Q221 940 228.5 933.5 Q236 927 244 926 Q264 902 285.5 879 Q307 856 326 834 Q345 856 366.5 879 Q388 902 408 926 Q416 927 423.5 933.5 Q431 940 438.5 948 Q446 956 453.5 964.5 Q461 973 470 978 Q472 973 479.5 968 Q487 963 491 965 Z " />
<glyph glyph-name="Yacute" unicode="&#xdd;" horiz-adv-x="505" d="M149 -33 Q61 -21 42 60 L43 71 Q47 83 52 98 Q57 115 63 131.5 Q69 148 83 161 Q86 170 94.5 188.5 Q103 207 123 244 Q139 273 148.5 290 Q158 307 164 316 Q154 334 136 351 Q120 381 108.5 408.5 Q97 436 91 458 Q90 482 83 507 Q80 520 77 533 Q74 546 74 560 Q70 567 67 578 L69 590 Q74 598 71.5 611.5 Q69 625 65 639 Q62 652 59.5 666.5 Q57 681 58 695 Q59 709 65.5 722 Q72 735 88 744 L98 751 L108 745 Q119 738 129 733 Q139 728 149 723 Q161 717 173 710.5 Q185 704 199 696 L209 689 L208 678 Q208 676 209 673 Q210 670 212 668 L223 665 L224 651 L224 639 Q224 630 225 626.5 Q226 623 229 619 L234 606 Q234 588 237 574 Q240 560 244 546 Q249 532 252 517.5 Q255 503 253 486 Q259 489 265 495 Q267 497 269.5 499 Q272 501 275 503 L345 598 L343 610 L368 634 Q378 642 387 650.5 Q396 659 402 670 L408 679 Q453 739 524 753 L541 757 L546 741 Q551 727 565.5 716.5 Q580 706 597 696 L608 689 Q614 677 614 671 Q614 665 613 661 L618 648 Q607 619 594 606.5 Q581 594 567 583 Q556 574 547 565 Q538 556 533 545 L525 535 Q500 522 493 497 L489 483 L474 483 Q473 483 469 478.5 Q465 474 457 457 Q448 445 444.5 441.5 Q441 438 439 436 Q437 431 435.5 427 Q434 423 432 417 L426 409 Q417 401 413 393.5 Q409 386 404 376 Q400 367 395 357.5 Q390 348 381 339 L383 328 L375 321 Q367 314 361 303.5 Q355 293 349 282 Q343 270 336 258 Q329 246 318 236 Q311 218 305.5 208 Q300 198 287 184 Q275 136 230 81 Q229 70 223.5 59.5 Q218 49 212 40 Q210 36 207.5 31.5 Q205 27 204 25 L201 14 Q195 3 188.5 -4 Q182 -11 176 -17 Q173 -19 170.5 -22 Q168 -25 166 -27 L149 -33 Z M581 993 Q573 991 554.5 979 Q536 967 507 941 Q492 928 471 908.5 Q450 889 425.5 870.5 Q401 852 375 838 Q349 824 325 823 Q318 830 311 837 Q304 844 299.5 851 Q295 858 294 866 Q293 874 299 884 Q286 905 288 916 Q290 927 298.5 935 Q307 943 317.5 950 Q328 957 332 971 Q355 996 382.5 1022.5 Q410 1049 434 1076 Q444 1078 453.5 1085.5 Q463 1093 472 1102 Q481 1111 490.5 1120.5 Q500 1130 511 1136 Q513 1130 522.5 1124.5 Q532 1119 537 1122 Q538 1111 548 1100.5 Q558 1090 566 1086 Q572 1072 578 1060.5 Q584 1049 587 1038 Q590 1027 589.5 1016 Q589 1005 581 993 Z " />
<glyph glyph-name="yacute" unicode="&#xfd;" horiz-adv-x="410" d="M320 262 Q313 256 308 247.5 Q303 239 298 230 Q293 219 287 209 Q281 199 272 191 Q267 176 262 167.5 Q257 159 246 148 Q236 108 199 61 Q198 52 193.5 43.5 Q189 35 184 27 Q182 24 180 20.5 Q178 17 177 15 L175 5 Q170 -3 164 -9 Q158 -15 153 -20 Q151 -23 146 -28 L131 -34 Q58 -24 42 44 L43 54 Q45 59 46.5 64.5 Q48 70 50 76 Q54 90 59.5 104 Q65 118 76 129 Q78 136 85 151.5 Q92 167 109 198 Q123 222 131 236 Q139 250 144 258 Q134 274 120 287 Q107 312 97.5 335 Q88 358 83 376 Q82 389 80 398 Q78 407 76 417 Q73 428 71 439 Q69 450 69 462 Q64 469 63 476 L65 486 Q68 493 66 504.5 Q64 516 61 528 Q59 538 56.5 550 Q54 562 55 574 Q56 586 61.5 596.5 Q67 607 80 615 L97 616 Q106 611 114.5 606.5 Q123 602 131 597 Q142 592 152 587 Q162 582 173 574 L180 560 L193 549 L193 538 Q194 534 194 527 Q194 514 198 511 L202 499 Q202 485 205 472.5 Q208 460 211 449 Q214 438 217 426 Q220 414 218 400 Q224 403 228 407 Q230 409 232 410 Q234 411 236 413 L295 493 L293 503 L314 523 Q322 531 329.5 538 Q337 545 342 553 L353 561 Q385 611 444 623 L458 625 L462 612 Q466 601 478.5 592 Q491 583 505 575 L514 569 Q519 559 519 554 Q519 549 518 545 L522 535 Q514 511 502.5 500 Q491 489 480 480 Q471 472 463.5 465.5 Q456 459 452 449 L445 441 Q424 429 418 409 L415 397 L403 397 Q402 397 398.5 393.5 Q395 390 388 376 Q381 366 378 363 Q375 360 373 358 Q372 354 370.5 350.5 Q369 347 367 342 Q354 329 351 322.5 Q348 316 344 308 Q340 300 336.5 292.5 Q333 285 325 277 L320 262 Z M550 870 Q542 868 523.5 856 Q505 844 476 818 Q461 805 440 785.5 Q419 766 394.5 747.5 Q370 729 344 715 Q318 701 294 700 Q287 707 280 714 Q273 721 268.5 728 Q264 735 263 743 Q262 751 268 761 Q255 782 257 793 Q259 804 267.5 812 Q276 820 286.5 827 Q297 834 301 848 Q324 873 351.5 899.5 Q379 926 403 953 Q413 955 422.5 962.5 Q432 970 441 979 Q450 988 459.5 997.5 Q469 1007 480 1013 Q482 1007 491.5 1001.5 Q501 996 506 999 Q507 988 517 977.5 Q527 967 535 963 Q541 949 547 937.5 Q553 926 556 915 Q559 904 558.5 893 Q558 882 550 870 Z " />
<glyph glyph-name="Thorn" unicode="&#xde;" horiz-adv-x="697" d="M609 551 Q637 536 656 514.5 Q675 493 685.5 468.5 Q696 444 699.5 418.5 Q703 393 702 370 Q684 335 651 309.5 Q618 284 584 259 Q577 259 573 261 Q568 253 560 248 Q552 243 543 239 Q534 235 525 230.5 Q516 226 510 220 Q485 216 465.5 209 Q446 202 428 193.5 Q410 185 391 178 Q372 171 347 167 Q338 160 325 155.5 Q312 151 298 147 Q284 143 271.5 138.5 Q259 134 251 126 Q245 131 234 129.5 Q223 128 214 126 Q208 118 209.5 109 Q211 100 212 92 Q217 56 207 35 Q197 14 178.5 4.5 Q160 -5 136.5 -6.5 Q113 -8 91 -5 Q79 11 69 36.5 Q59 62 51.5 89 Q44 116 37.5 142.5 Q31 169 26 189 Q32 204 33.5 222 Q35 240 36 259.5 Q37 279 37 299 Q37 319 40 337 Q48 387 63.5 433 Q79 479 90 527 Q92 538 88 547.5 Q84 557 86 565 Q88 570 93.5 572 Q99 574 101 579 Q105 593 102.5 601.5 Q100 610 107 622 Q112 631 121.5 650 Q131 669 129 689 Q140 696 149 705.5 Q158 715 168 723 Q178 731 190.5 737 Q203 743 221 743 Q230 731 233.5 716.5 Q237 702 240.5 687.5 Q244 673 249.5 660.5 Q255 648 269 641 Q270 633 269.5 624 Q269 615 270 604 Q278 605 286.5 606 Q295 607 303 609 Q366 607 432 598.5 Q498 590 554 578 Q565 570 577.5 562 Q590 554 609 551 Z M476 401 Q475 410 479.5 415 Q484 420 489 425 Q487 435 481.5 441.5 Q476 448 470 455 Q421 462 368 462 Q315 462 260 460 Q247 414 236.5 368.5 Q226 323 223 278 Q260 287 293 298.5 Q326 310 348 328 Q370 334 387.5 342 Q405 350 420 360 Q435 370 448.5 380.5 Q462 391 476 401 Z " />
<glyph glyph-name="thorn" unicode="&#xfe;" horiz-adv-x="593" d="M260 517 Q314 515 370 508 Q426 501 473 490 Q483 483 493 476.5 Q503 470 520 468 Q544 455 559.5 437 Q575 419 584 398 Q593 377 596 355.5 Q599 334 598 314 Q583 284 555 262.5 Q527 241 498 220 Q494 220 488 222 Q484 216 477.5 212 Q471 208 463.5 204 Q456 200 448.5 196.5 Q441 193 435 188 Q414 185 398 178.5 Q382 172 366.5 165 Q351 158 335 152 Q319 146 298 143 Q290 137 279 133 Q268 129 256 125.5 Q244 122 233.5 118 Q223 114 217 108 Q212 113 202.5 111.5 Q193 110 185 108 Q180 101 181 94 Q182 87 184 79 Q188 49 179.5 31 Q171 13 155 5 Q139 -3 119 -4.5 Q99 -6 81 -3 Q70 11 62 32 Q54 53 47.5 76.5 Q41 100 35.5 122 Q30 144 26 161 Q31 174 32.5 189.5 Q34 205 34.5 221.5 Q35 238 35.5 255 Q36 272 38 287 Q44 329 58 367.5 Q72 406 80 447 Q82 457 78.5 465 Q75 473 77 480 Q78 484 83 485.5 Q88 487 89 492 Q93 504 91 510.5 Q89 517 95 528 Q99 535 106.5 551 Q114 567 113 584 Q122 590 129.5 598 Q137 606 146 613 Q155 620 165.5 625 Q176 630 191 630 Q199 620 202 607.5 Q205 595 207.5 583 Q210 571 215 560.5 Q220 550 232 544 L232 513 Q249 513 260 517 Z M407 341 Q406 348 410 352 Q414 356 418 361 Q416 369 411.5 375 Q407 381 402 386 Q360 392 315 392.5 Q270 393 224 391 Q213 352 204 313.5 Q195 275 192 236 Q224 244 252 253.5 Q280 263 298 279 Q336 289 359.5 306.5 Q383 324 407 341 Z " />
<glyph glyph-name="Zcaron" unicode="&#x17d;" horiz-adv-x="680" d="M-8 88 Q-11 118 -9.5 142 Q-8 166 -2.5 188 Q3 210 12.5 230 Q22 250 34 273 Q48 278 59 286.5 Q70 295 80 303 Q90 312 99.5 318.5 Q109 325 118 326 L128 332 Q148 355 177 374.5 Q206 394 237 412 Q263 427 288 442.5 Q313 458 334 478 Q344 477 351 482 Q356 489 355 497 Q358 499 360.5 501.5 Q363 504 366 506 Q374 513 388.5 520.5 Q403 528 408 541 L434 566 L398 565 Q371 565 340.5 562 Q310 559 288 557 Q270 555 251.5 554 Q233 553 210 552 Q191 564 177.5 583 Q164 602 156.5 624 Q149 646 148 670 Q147 694 154 716 Q162 718 168.5 720.5 Q175 723 181 726 Q192 727 195.5 726 Q199 725 204 725 Q264 735 302 735 Q344 735 378 725 Q420 725 463.5 728 Q507 731 552 723 Q584 733 616 728.5 Q648 724 671 700 Q673 680 682 669.5 Q691 659 706 654 Q715 619 707.5 593 Q700 567 682 546.5 Q664 526 639 510 Q614 494 590 479 Q583 468 573 461 Q563 454 554 446 Q515 394 463.5 357.5 Q412 321 359 286 Q321 260 283.5 234 Q246 208 211 178 L198 167 L209 155 Q223 141 243 141 Q254 141 264.5 144 Q275 147 284 151 Q293 154 300.5 156.5 Q308 159 313 159 L324 157 Q339 165 348.5 168.5 Q358 172 368 175 Q376 177 385.5 180 Q395 183 404 188 Q430 188 454 195.5 Q478 203 501 212 Q515 217 528.5 222 Q542 227 556 231 Q561 224 567.5 219.5 Q574 215 580 212 Q589 207 593 203.5 Q597 200 598 194 L602 161 L623 184 Q638 170 639 155.5 Q640 141 636 118 Q597 79 539.5 57 Q482 35 418 16 Q404 12 391 8.5 Q378 5 364 0 L365 21 L339 4 Q334 0 331 -3.5 Q328 -7 325 -11 Q294 -18 273.5 -22 Q253 -26 235 -30 Q215 -35 197.5 -38 Q180 -41 159 -41 Q152 -41 145.5 -40.5 Q139 -40 132 -39 Q126 -37 118 -35 L104 -9 L85 -23 Q74 -14 60 -4 Q48 6 38 16 Q28 26 27 36 L26 48 L14 51 Q12 53 10 61 Q8 67 4 75 Q0 83 -8 88 Z M685 1088 Q686 1079 694 1070 Q702 1061 708 1057 Q713 1045 718 1035 Q723 1025 726 1015.5 Q729 1006 728 996.5 Q727 987 721 977 Q713 974 698.5 963.5 Q684 953 661 931 Q650 921 635 905.5 Q620 890 602 875 Q584 860 565 847.5 Q546 835 528 831 L514 829 Q494 835 475 847.5 Q456 860 438 875 Q420 890 405 905.5 Q390 921 379 931 Q356 953 341.5 963.5 Q327 974 319 977 Q313 987 312 996.5 Q311 1006 314 1015.5 Q317 1025 322 1035 Q327 1045 332 1057 Q338 1061 346 1070 Q354 1079 355 1088 Q359 1086 366.5 1091 Q374 1096 376 1101 Q385 1096 392.5 1087.5 Q400 1079 407.5 1071 Q415 1063 422.5 1056.5 Q430 1050 438 1049 Q458 1025 479.5 1002 Q501 979 520 957 Q539 979 560.5 1002 Q582 1025 602 1049 Q610 1050 617.5 1056.5 Q625 1063 632.5 1071 Q640 1079 647.5 1087.5 Q655 1096 664 1101 Q666 1096 673.5 1091 Q681 1086 685 1088 Z " />
<glyph glyph-name="zcaron" unicode="&#x17e;" horiz-adv-x="561" d="M108 -39 Q103 -37 97 -35 L85 -13 L69 -25 Q62 -21 58 -17.5 Q54 -14 49 -9 Q38 -1 30 7.5 Q22 16 21 24 L20 34 L10 36 Q5 50 2 56.5 Q-1 63 -8 67 Q-14 117 -4 150.5 Q6 184 26 222 Q38 226 47.5 233 Q57 240 65 247 Q73 254 81 259.5 Q89 265 96 266 L105 271 Q122 291 146 306.5 Q170 322 196 338 Q217 350 238.5 363.5 Q260 377 277 393 Q285 392 291 396 Q295 401 295 409 Q297 411 299.5 412.5 Q302 414 304 416 Q311 421 323 428 Q335 435 339 446 L361 467 L331 466 Q308 465 282.5 463 Q257 461 239 459 Q224 457 208 456.5 Q192 456 173 455 Q142 475 128.5 514.5 Q115 554 127 592 Q134 593 139 595.5 Q144 598 149 600 Q158 601 161 600 Q164 599 169 599 Q197 604 215.5 605.5 Q234 607 250 607 Q267 607 283 605.5 Q299 604 314 599 Q349 599 385 602 Q421 605 459 597 Q486 606 512.5 602 Q539 598 559 578 Q560 561 567.5 552.5 Q575 544 587 540 Q595 511 588.5 489 Q582 467 567 450 Q552 433 531.5 419.5 Q511 406 491 394 Q485 385 476.5 379.5 Q468 374 461 366 Q428 324 385.5 292.5 Q343 261 298 232 Q266 211 234.5 189.5 Q203 168 174 143 L164 134 L173 124 Q185 112 201 112 Q210 112 218.5 114.5 Q227 117 235 120 Q243 122 249 124.5 Q255 127 260 127 L273 127 Q281 132 289 135 Q297 138 305 140 Q313 142 320 144 Q327 146 335 151 Q357 151 376.5 157 Q396 163 416 171 Q428 176 439.5 180 Q451 184 463 186 Q467 181 472.5 177.5 Q478 174 483 171 Q496 163 497 156 L500 128 L519 147 Q531 137 532 124.5 Q533 112 529 92 Q497 60 449 42 Q401 24 347 7 Q336 4 324.5 1 Q313 -2 302 -6 L303 11 L281 -3 Q277 -6 274.5 -9 Q272 -12 270 -15 Q244 -22 227 -25 Q210 -28 195 -31 Q178 -35 163 -37.5 Q148 -40 131 -40 Q126 -40 120 -40 Q114 -40 108 -39 Z M594 986 Q595 977 603 968 Q611 959 617 955 Q622 943 627 933 Q632 923 635 913.5 Q638 904 637 894.5 Q636 885 630 875 Q622 872 607.5 861.5 Q593 851 570 829 Q559 819 544 803.5 Q529 788 511 773 Q493 758 474 745.5 Q455 733 437 729 L423 727 Q403 733 384 745.5 Q365 758 347 773 Q329 788 314 803.5 Q299 819 288 829 Q265 851 250.5 861.5 Q236 872 228 875 Q222 885 221 894.5 Q220 904 223 913.5 Q226 923 231 933 Q236 943 241 955 Q247 959 255 968 Q263 977 264 986 Q268 984 275.5 989 Q283 994 285 999 Q294 994 301.5 985.5 Q309 977 316.5 969 Q324 961 331.5 954.5 Q339 948 347 947 Q367 923 388.5 900 Q410 877 429 855 Q448 877 469.5 900 Q491 923 511 947 Q519 948 526.5 954.5 Q534 961 541.5 969 Q549 977 556.5 985.5 Q564 994 573 999 Q575 994 582.5 989 Q590 984 594 986 Z " />
<glyph glyph-name="onehalf" unicode="&#xbd;" horiz-adv-x="768" d="M702 109 Q712 101 715 91.5 Q718 82 716 74 Q713 59 699.5 47.5 Q686 36 671 36 L658 29 Q638 26 618.5 23 Q599 20 579 15 Q552 10 524 5.5 Q496 1 468 -2 Q461 -2 460.5 -1.5 Q460 -1 458 -1 Q423 1 399 9 Q381 23 374.5 38.5 Q368 54 366.5 70 Q365 86 367.5 101.5 Q370 117 374 128 Q403 164 430 191.5 Q457 219 492 241 Q494 243 496 245 Q498 247 500 249 Q489 247 478.5 244.5 Q468 242 459 240 Q454 239 450 238 Q446 237 442 236 L432 237 Q430 238 426 238.5 Q422 239 418 240 Q413 241 407 241.5 Q401 242 395 244 Q377 257 374.5 271.5 Q372 286 372 297 L372 307 L373 325 Q378 334 381 339.5 Q384 345 389 350 L398 356 Q424 363 450 366 Q476 369 500 369 Q572 369 613 340 L621 327 Q622 322 625 318 Q628 314 638 311 L647 303 Q659 282 664 258 L663 248 Q652 222 633.5 203.5 Q615 185 595 169 Q584 161 574 157 Q570 154 566 151.5 Q562 149 559 147 Q558 145 556.5 141.5 Q555 138 552 136 Q547 131 539 127 L550 127 Q564 131 579 134.5 Q594 138 611 138 Q640 147 660 147 Q667 147 670 146 Q681 143 685 138.5 Q689 134 691 131 L702 109 Z M183 430 Q179 426 176.5 419 Q174 412 176 406 L172 387 Q162 376 155.5 370 Q149 364 141 358 L117 359 Q106 357 103 356.5 Q100 356 98 356 L81 364 Q69 377 62 387 Q55 397 57 410 Q55 441 63 465 Q71 489 80 512 Q94 545 101 574.5 Q108 604 92 632 Q90 647 89 650 Q89 661 87 666 L88 680 Q91 690 91 690 Q91 705 95 710 Q99 715 101 717 L120 732 L136 729 L147 726 Q153 720 156 720 L169 710 Q173 703 189 693 L200 683 Q211 666 214.5 647 Q218 628 220 608 Q220 603 220.5 598.5 Q221 594 222 589 Q224 552 215.5 524 Q207 496 197 467 Q195 460 192.5 453 Q190 446 187 438 L183 430 Z M556 596 Q542 579 511.5 544.5 Q481 510 448 471.5 Q415 433 387.5 398.5 Q360 364 352 347 Q337 332 313.5 304 Q290 276 264.5 245.5 Q239 215 214.5 185 Q190 155 175 136 Q174 131 177.5 127 Q181 123 183 118 Q173 107 171 98 Q169 89 170 80 Q171 71 173 62.5 Q175 54 173 44 Q166 37 161.5 29 Q157 21 152 13 Q147 5 140.5 -2 Q134 -9 124 -15 Q103 -13 90 -9.5 Q77 -6 59 -3 Q42 11 36 32 Q30 53 31 75.5 Q32 98 37 119.5 Q42 141 47 158 Q58 165 48 168 Q52 183 62 192.5 Q72 202 72 210 Q79 221 99.5 244.5 Q120 268 144 294.5 Q168 321 190.5 346 Q213 371 225 386 Q231 403 253 429 Q275 455 299.5 483 Q324 511 343.5 536 Q363 561 364 576 Q382 590 403.5 620 Q425 650 449 680.5 Q473 711 498.5 733 Q524 755 549 752 Q564 715 564.5 678.5 Q565 642 556 596 Z " />
<glyph glyph-name="onequarter" unicode="&#xbc;" horiz-adv-x="722" d="M664 262 Q666 254 667.5 252 Q669 250 672 248 L681 226 Q680 222 680 215 Q680 210 679.5 203 Q679 196 676 188 L669 179 Q657 168 642.5 163 Q628 158 614 154 Q597 149 588 145 Q586 140 584 136 Q582 132 580 127 Q575 117 571 107 Q567 97 563 86 L567 67 Q574 66 578.5 61.5 Q583 57 585 49 L583 33 Q581 20 579 11.5 Q577 3 569 -6 L559 -12 Q551 -15 543.5 -15.5 Q536 -16 529 -17 Q523 -17 515 -19 L505 -19 Q497 -17 488 -12.5 Q479 -8 470.5 1.5 Q462 11 456 25.5 Q450 40 449 62 Q446 73 447 79 Q448 85 450 90 Q453 111 459 131 Q452 132 444 132.5 Q436 133 428 133 Q407 139 398 147.5 Q389 156 382 164 Q379 168 373 174 L366 188 Q366 200 364 212.5 Q362 225 360 237 Q356 260 354 281 Q352 302 358 320 Q368 335 375 342.5 Q382 350 392 357 L408 359 Q419 356 425 350 Q431 344 435 339 L453 319 Q456 310 462 297 Q467 289 471 278.5 Q475 268 476 254 Q483 254 486 255 L498 255 L509 255 Q511 271 513 278 Q516 292 515 296 L517 315 Q519 320 520.5 326.5 Q522 333 524 341 Q525 349 527.5 359 Q530 369 534.5 378 Q539 387 547 395 Q555 403 568 407 L587 403 Q624 374 636 327 L636 316 Q632 305 630.5 295 Q629 285 628 275 Q632 275 635.5 275.5 Q639 276 643 276 L663 263 L664 262 Z M183 430 Q179 426 176.5 419 Q174 412 176 406 L172 387 Q162 376 155.5 370 Q149 364 141 358 L117 359 Q106 357 103 356.5 Q100 356 98 356 L81 364 Q69 377 62 387 Q55 397 57 410 Q55 441 63 465 Q71 489 80 512 Q94 545 101 574.5 Q108 604 92 632 Q90 647 89 650 Q89 661 87 666 L88 680 Q91 690 91 690 Q91 705 95 710 Q99 715 101 717 L120 732 L136 729 L147 726 Q153 720 156 720 L169 710 Q173 703 189 693 L200 683 Q211 666 214.5 647 Q218 628 220 608 Q220 603 220.5 598.5 Q221 594 222 589 Q224 552 215.5 524 Q207 496 197 467 Q195 460 192.5 453 Q190 446 187 438 L183 430 Z M556 596 Q542 579 511.5 544.5 Q481 510 448 471.5 Q415 433 387.5 398.5 Q360 364 352 347 Q337 332 313.5 304 Q290 276 264.5 245.5 Q239 215 214.5 185 Q190 155 175 136 Q174 131 177.5 127 Q181 123 183 118 Q173 107 171 98 Q169 89 170 80 Q171 71 173 62.5 Q175 54 173 44 Q166 37 161.5 29 Q157 21 152 13 Q147 5 140.5 -2 Q134 -9 124 -15 Q103 -13 90 -9.5 Q77 -6 59 -3 Q42 11 36 32 Q30 53 31 75.5 Q32 98 37 119.5 Q42 141 47 158 Q58 165 48 168 Q52 183 62 192.5 Q72 202 72 210 Q79 221 99.5 244.5 Q120 268 144 294.5 Q168 321 190.5 346 Q213 371 225 386 Q231 403 253 429 Q275 455 299.5 483 Q324 511 343.5 536 Q363 561 364 576 Q382 590 403.5 620 Q425 650 449 680.5 Q473 711 498.5 733 Q524 755 549 752 Q564 715 564.5 678.5 Q565 642 556 596 Z " />
<glyph glyph-name="onesuperior" unicode="&#xb9;" horiz-adv-x="211" d="M229 608 Q229 603 229.5 598.5 Q230 594 231 589 Q233 552 224.5 524 Q216 496 206 467 Q204 460 201.5 453 Q199 446 196 438 Q188 426 185.5 419 Q183 412 185 406 L181 387 Q170 376 164 370 Q158 364 150 358 L126 359 Q115 357 112 356.5 Q109 356 107 356 L90 364 Q78 377 71 387 Q64 397 66 410 Q63 441 71 465 Q79 489 89 512 Q102 545 109.5 574.5 Q117 604 101 632 Q99 643 98.5 645.5 Q98 648 98 650 Q98 661 96 666 L96 680 Q98 685 98.5 687 Q99 689 99 690 Q100 705 104 710 Q108 715 110 717 L129 732 L145 729 L156 726 Q162 720 165 720 L178 710 Q180 705 185.5 701.5 Q191 698 198 693 L209 683 Q220 666 223.5 647 Q227 628 229 608 Z " />
<glyph glyph-name="threequarters" unicode="&#xbe;" horiz-adv-x="838" d="M94 385 L81 397 Q76 405 74.5 407.5 Q73 410 72 414 L75 433 Q77 436 78.5 441 Q80 446 82 452 Q85 464 92.5 480 Q100 496 123 502 Q139 502 144 495 Q163 494 182.5 494 Q202 494 219 496 Q214 498 209.5 499.5 Q205 501 200 503 Q177 511 154.5 523.5 Q132 536 127 563 L128 573 Q130 578 131 582.5 Q132 587 133 592 Q134 595 134.5 597.5 Q135 600 136 603 Q119 605 114 605 Q107 607 99 609.5 Q91 612 83 617 L77 629 Q74 646 74 659.5 Q74 673 83 686 L91 709 Q102 715 104 717 L121 729 Q129 730 136 731 Q143 732 151 733 Q189 738 226.5 741 Q264 744 306 741 Q316 740 326 739 Q336 738 346 736 L356 731 Q377 706 393 669 L394 657 L391 644 Q386 634 383.5 631 Q381 628 379 625 L363 607 Q350 602 338.5 595 Q327 588 319 583 Q337 564 348 541.5 Q359 519 366 496 Q365 480 364 477 L361 457 Q354 441 344 433 Q342 431 340.5 428.5 Q339 426 337 423 L324 414 Q311 409 304 402 L288 396 Q229 369 143 377 Q132 378 122.5 379 Q113 380 102 382 L94 385 Z M773 262 Q775 254 776 252 Q777 250 780 248 L787 226 Q785 223 785 220.5 Q785 218 784 215 Q783 210 782 203 Q781 196 777 188 L770 179 Q756 168 740.5 163 Q725 158 711 154 Q696 149 684 145 Q682 140 679 136 Q676 132 674 127 Q669 117 663.5 107 Q658 97 653 86 L654 67 Q661 66 664.5 61.5 Q668 57 670 49 L667 33 Q663 20 660 11.5 Q657 3 648 -6 L638 -12 Q630 -15 622.5 -15.5 Q615 -16 607 -17 Q601 -17 593 -19 Q576 -17 567 -12.5 Q558 -8 551 1.5 Q544 11 539.5 25.5 Q535 40 536 62 Q534 73 536 79 Q538 85 540 90 Q545 111 553 131 Q547 132 539 132.5 Q531 133 523 133 Q503 139 494.5 147.5 Q486 156 480 164 Q478 168 472 174 L468 188 Q469 200 468.5 212.5 Q468 225 466 237 Q464 260 465 281 Q466 302 474 320 Q486 335 493.5 342.5 Q501 350 512 357 L528 359 Q539 356 544 350 Q549 344 552 339 L569 319 Q570 309 575 297 Q579 289 582 278.5 Q585 268 585 254 L607 255 L618 255 Q619 262 620.5 267.5 Q622 273 624 278 Q629 292 628 296 L632 315 Q635 320 637.5 326.5 Q640 333 642 341 Q647 358 657 378.5 Q667 399 693 407 L712 403 Q745 374 753 327 L751 316 Q742 293 739 275 Q743 275 746.5 275.5 Q750 276 753 276 L773 263 L773 262 Z M729 606 Q722 596 701.5 576 Q681 556 654 531 Q627 506 596.5 478.5 Q566 451 539 425.5 Q512 400 491.5 379 Q471 358 464 347 Q447 332 418.5 304 Q390 276 359 245.5 Q328 215 299 185 Q270 155 252 136 Q250 131 253 127 Q256 123 257 118 Q245 107 241 98 Q237 89 236.5 80 Q236 71 236.5 62.5 Q237 54 234 44 Q226 37 220 29 Q214 21 208 13 Q202 5 194 -2 Q186 -9 175 -15 Q155 -13 142 -9.5 Q129 -6 112 -3 Q98 11 95.5 32 Q93 53 97.5 75.5 Q102 98 110.5 119.5 Q119 141 127 158 Q139 165 130 168 Q136 183 148 192.5 Q160 202 161 210 Q170 221 194.5 244.5 Q219 268 247.5 294.5 Q276 321 303 346 Q330 371 344 386 Q353 403 379 429 Q405 455 434 483 Q463 511 487 536 Q511 561 515 576 Q535 590 560 618.5 Q585 647 611 675.5 Q637 704 662.5 725 Q688 746 711 743 Q727 711 730.5 678.5 Q734 646 729 606 Z " />
<glyph glyph-name="threesuperior" unicode="&#xb3;" horiz-adv-x="375" d="M405 453 Q403 444 400 438.5 Q397 433 395 428 Q393 426 392 423.5 Q391 421 389 418 L379 408 Q368 402 362 395 L347 387 Q321 373 285.5 365 Q250 357 207 357 Q197 357 187 357.5 Q177 358 166 359 Q155 363 153 365 L141 373 Q131 384 128 388 L127 407 Q129 410 129 415.5 Q129 421 129 427 Q129 433 130 440.5 Q131 448 134 455.5 Q137 463 142.5 469 Q148 475 158 479 Q173 480 181 474 Q200 475 219 476 Q238 477 255 480 Q250 482 245 483 Q240 484 235 486 Q209 493 184 503.5 Q159 514 148 540 L147 569 L147 580 Q135 580 132 580 Q129 580 125 581 Q117 582 108.5 583.5 Q100 585 92 590 L83 601 Q76 618 72.5 631 Q69 644 75 658 L78 681 Q85 688 86.5 688.5 Q88 689 88 690 L102 704 Q110 706 117 707 Q124 708 131 710 Q169 718 205.5 723.5 Q242 729 284 729 Q294 729 304 729 Q314 729 325 728 L335 723 Q349 712 361.5 697.5 Q374 683 387 665 L391 654 L391 641 Q388 630 386.5 626.5 Q385 623 383 621 L371 602 Q360 595 350.5 587.5 Q341 580 334 574 Q357 556 373.5 535 Q390 514 401 492 L404 473 L405 453 Z " />
<glyph glyph-name="twosuperior" unicode="&#xb2;" horiz-adv-x="396" d="M431 469 Q442 461 445 451.5 Q448 442 446 433 Q443 418 429 407 Q415 396 398 396 L384 389 Q364 386 343 382.5 Q322 379 299 375 Q270 370 240.5 365 Q211 360 181 357 Q172 358 170 359 Q152 359 136.5 361.5 Q121 364 107 369 Q88 382 81 397.5 Q74 413 72.5 429.5 Q71 446 73 461.5 Q75 477 80 488 Q111 524 139.5 551.5 Q168 579 206 600 Q212 606 215 608 Q203 606 192 604 Q181 602 171 600 Q166 598 161.5 597.5 Q157 597 152 596 L142 597 Q136 599 127 599 Q122 600 115.5 601 Q109 602 103 604 Q83 617 80.5 631 Q78 645 78 656 Q78 659 78 662 Q78 665 77 667 L78 685 Q84 693 87.5 699 Q91 705 96 710 L106 716 Q133 722 161 725.5 Q189 729 215 729 Q292 729 336 699 L345 687 Q346 682 349 678 Q352 674 362 670 L372 663 Q380 651 384 640.5 Q388 630 390 618 L389 607 Q378 581 358 563 Q338 545 317 529 Q312 525 306 522 Q300 519 295 516 Q290 514 286 511.5 Q282 509 279 507 Q277 505 275.5 501.5 Q274 498 270 495 Q267 493 263.5 490.5 Q260 488 257 486 Q260 487 268 487 Q283 491 300 494 Q317 497 334 497 Q363 507 386 507 Q389 507 392 506.5 Q395 506 397 506 Q409 503 413.5 498.5 Q418 494 420 491 L431 469 Z " />
<glyph glyph-name="brokenbar" unicode="&#xa6;" horiz-adv-x="309" d="M157 545 Q169 563 178 596 Q187 629 198 662.5 Q209 696 224.5 723 Q240 750 264 756 Q291 727 304 694 Q317 661 325 616 Q317 593 299.5 550.5 Q282 508 262 456 Q261 448 260.5 440.5 Q260 433 258 426 Q250 422 244.5 416 Q239 410 233 404 Q227 398 220 392.5 Q213 387 203 384 Q184 389 173 395 Q162 401 146 408 Q134 423 132 440.5 Q130 458 133 476 Q136 494 143 511.5 Q150 529 158 543 L157 545 Z M97 301 Q111 304 126.5 299.5 Q142 295 156 286.5 Q170 278 180 268 Q190 258 193 251 Q195 243 192 229 Q190 216 182 195 Q174 174 158 140 Q157 135 152.5 122.5 Q148 110 149 105 Q138 96 133.5 85 Q129 74 127 63 Q125 52 124 41 Q123 30 119 21 Q110 17 103.5 11 Q97 5 90 -1 Q83 -7 75 -12 Q67 -17 56 -19 Q36 -12 25 -4.5 Q14 3 -3 11 Q-15 29 -15 50 Q-15 71 -9 92 Q-3 113 7.5 132 Q18 151 27 165 Q47 220 59.5 245 Q72 270 80 283 Q90 297 97 301 Z " />
<glyph glyph-name="minus" unicode="&#x2212;" horiz-adv-x="562" d="M489 298 Q504 296 511 291 Q518 286 520 278.5 Q522 271 521.5 262 Q521 253 521 244 Q496 227 452 220.5 Q408 214 359.5 211.5 Q311 209 266 209 Q221 209 195 206 Q142 200 112 194.5 Q82 189 71 184 Q52 185 41 191 Q30 197 23 205.5 Q16 214 11 225 Q6 236 -1 248 Q3 256 1 271 Q-1 286 -10 294 Q-2 295 1.5 305.5 Q5 316 2 321 Q18 325 36.5 326.5 Q55 328 73 329 Q91 330 107 332.5 Q123 335 135 341 Q185 342 239 344 Q293 346 339 348 Q356 343 379 342.5 Q402 342 424 339.5 Q446 337 464 328 Q482 319 489 298 Z " />
<glyph glyph-name="multiply" unicode="&#xd7;" horiz-adv-x="502" d="M445 525 Q459 519 467 509 Q475 499 480 488.5 Q485 478 489.5 467 Q494 456 502 448 Q495 434 487 424 Q479 414 476 401 Q459 394 434 379 Q413 366 381 343 Q349 320 305 282 Q316 270 322 260 Q328 250 333 242 Q337 233 341 225 Q348 219 353 211.5 Q358 204 362.5 196 Q367 188 373 181 Q379 174 388 170 Q393 145 402.5 125 Q412 105 411 84 Q405 65 393.5 53 Q382 41 377 27 Q369 25 362 22.5 Q355 20 350 15 L303 49 Q290 91 267 129 Q244 167 221 195 Q187 169 156.5 137.5 Q126 106 101 71 Q98 36 87.5 22.5 Q77 9 47 -2 Q19 19 6.5 48.5 Q-6 78 4 107 Q5 128 14.5 148 Q24 168 37.5 186.5 Q51 205 67 221 Q83 237 97 251 Q100 259 107 265 Q114 271 122 277 Q130 283 138 290 Q146 297 151 306 Q145 326 128 345.5 Q111 365 97 386 Q96 389 91.5 387.5 Q87 386 85 388 Q87 399 80.5 412.5 Q74 426 65 434 Q67 442 70.5 455.5 Q74 469 69 485 Q69 492 71.5 498 Q74 504 76.5 509.5 Q79 515 80.5 520.5 Q82 526 80 531 Q90 532 98.5 529.5 Q107 527 114.5 524 Q122 521 128.5 519 Q135 517 142 520 Q140 512 144.5 511.5 Q149 511 149 506 Q162 502 178 488 Q194 474 209 457 Q224 440 235.5 424 Q247 408 253 399 Q273 411 296.5 429 Q320 447 344.5 465 Q369 483 395 499 Q421 515 445 525 Z " />
<glyph glyph-name="space" unicode="&#x20;" horiz-adv-x="379" d="" />
<glyph glyph-name="exclam" unicode="&#x21;" horiz-adv-x="267" d="M276 688 Q276 679 273.5 666 Q271 653 269 640 Q267 627 268 616.5 Q269 606 277 603 Q259 550 252.5 514 Q246 478 241.5 445.5 Q237 413 230 377 Q223 341 205 289 Q194 257 178 244.5 Q162 232 144 232 Q126 232 107 242 Q88 252 72 264 Q69 283 71.5 310.5 Q74 338 78 368 Q82 398 86 425.5 Q90 453 92 472 Q102 483 106 490 Q110 497 111.5 505 Q113 513 114 525 Q115 537 119 559 Q121 570 117.5 578.5 Q114 587 116 595 Q118 599 122.5 601 Q127 603 128 608 Q132 621 130 628.5 Q128 636 133 647 Q138 655 145.5 672.5 Q153 690 151 709 Q160 716 168 725 Q176 734 184.5 741.5 Q193 749 203.5 754 Q214 759 229 759 Q237 748 241 738 Q245 728 248.5 719 Q252 710 258 702 Q264 694 276 688 Z M177 119 Q179 111 180 104 Q181 97 182 89 Q176 68 169 51 Q166 44 165 42 Q164 40 164 39 Q164 38 165 36.5 Q166 35 166 28 L161 16 Q156 9 149.5 5 Q143 1 136 -2 Q133 -4 129.5 -5.5 Q126 -7 124 -9 L121 -21 L107 -23 Q91 -27 78 -27 L67 -27 Q55 -16 48 -10 Q41 -4 32 1 Q21 20 19 34 Q17 47 14 51 L0 65 L12 74 L0 93 Q12 102 18 106 Q24 110 28.5 114.5 Q33 119 38 126 Q43 133 54 149 L63 162 L75 155 Q80 152 93.5 149.5 Q107 147 117 145 Q133 140 148.5 137.5 Q164 135 173 127 L177 119 Z " />
<glyph glyph-name="quotedbl" unicode="&#x22;" horiz-adv-x="504" d="M254 739 Q266 729 277 721 Q288 713 297 704 Q306 695 310.5 683.5 Q315 672 313 655 Q305 646 294 621.5 Q283 597 267 551 Q259 528 251.5 488.5 Q244 449 233.5 406.5 Q223 364 208 326.5 Q193 289 170 272 Q161 275 151 277 Q141 279 133 283 Q125 287 120.5 294.5 Q116 302 117 316 Q94 329 87.5 347.5 Q81 366 82 386.5 Q83 407 86.5 427.5 Q90 448 87 465 Q97 506 108.5 553.5 Q120 601 129 645 Q138 654 143.5 667.5 Q149 681 153 697 Q157 713 161.5 728.5 Q166 744 174 758 Q179 753 191 753.5 Q203 754 206 760 Q212 750 228 743.5 Q244 737 254 739 Z M437 759 Q452 753 468 746 Q484 739 499 731 Q514 723 526 712 Q538 701 545 686 Q537 651 523 618 Q509 585 496 553 Q483 521 475 490 Q467 459 472 427 Q470 424 466 425.5 Q462 427 460 422 Q454 399 446 371.5 Q438 344 437 315 Q428 310 420 303.5 Q412 297 413 287 Q402 282 389 276.5 Q376 271 364.5 270.5 Q353 270 344 276.5 Q335 283 334 303 Q324 305 321 312 Q318 319 316 327 Q314 335 310.5 343 Q307 351 297 355 Q311 436 322 483.5 Q333 531 341 556 Q350 585 356 596 Q361 617 366.5 634 Q372 651 377.5 668.5 Q383 686 388.5 704.5 Q394 723 400 747 Q408 752 415.5 757 Q423 762 437 759 Z " />
<glyph glyph-name="numbersign" unicode="&#x23;" horiz-adv-x="720" d="M638 286 Q661 281 665 273 Q669 265 662 255.5 Q655 246 642 236 Q629 226 617 219 Q606 221 593.5 215.5 Q581 210 570 203 Q557 205 543.5 205 Q530 205 516 205 Q509 185 500.5 166.5 Q492 148 478 135 Q477 130 480.5 126 Q484 122 486 117 Q475 108 470.5 98 Q466 88 464.5 77 Q463 66 462.5 56 Q462 46 458 37 Q449 33 442 27 Q435 21 428.5 15 Q422 9 414 4.5 Q406 0 394 -2 Q373 5 360 11.5 Q347 18 330 26 Q316 44 314.5 64 Q313 84 319 104 Q325 124 335 142 Q345 160 354 174 Q361 188 366 199 Q343 200 319.5 198.5 Q296 197 271 194 Q265 177 256.5 161.5 Q248 146 236 134 Q235 129 239 125 Q243 121 245 116 Q234 107 229.5 97 Q225 87 223.5 76.5 Q222 66 221 55.5 Q220 45 216 37 Q207 33 200.5 27 Q194 21 187 15 Q180 9 172 4.5 Q164 0 152 -2 Q131 5 118.5 11.5 Q106 18 88 26 Q74 43 73 63.5 Q72 84 78 104 Q84 124 94 142 Q104 160 113 174 Q101 174 88.5 173.5 Q76 173 64 172 Q49 180 42 192 Q35 204 32.5 217.5 Q30 231 30.5 245 Q31 259 31 273 Q35 284 44.5 290 Q54 296 65 301 Q95 302 119 303.5 Q143 305 166 307 Q167 309 167.5 312 Q168 315 169 317 Q168 331 175.5 353.5 Q183 376 193 402 Q176 399 164 397 Q152 395 144 393 Q120 394 108.5 400 Q97 406 91 414.5 Q85 423 83 433.5 Q81 444 77 456 Q85 464 87.5 478 Q90 492 81 499 Q91 501 99 510.5 Q107 520 105 525 Q136 530 169 530.5 Q202 531 232 534 Q243 554 251.5 586.5 Q260 619 270.5 651.5 Q281 684 296.5 709 Q312 734 336 739 Q366 711 381.5 679.5 Q397 648 407 605 Q404 595 398 580 Q392 565 384 545 Q408 546 432 546 Q456 546 479 547 Q488 569 496 600 Q504 631 514.5 660.5 Q525 690 540 712 Q555 734 578 739 Q607 712 623 680 Q639 648 648 605 Q645 595 638.5 578.5 Q632 562 624 541 Q640 540 655 537.5 Q670 535 682 530.5 Q694 526 701 518.5 Q708 511 709 499 Q727 497 733.5 492 Q740 487 740.5 480 Q741 473 737 464.5 Q733 456 730 448 Q702 436 662.5 429.5 Q623 423 578 420 Q567 388 559 362.5 Q551 337 550 324 L594 324 Q593 315 601 311 Q609 307 618 304.5 Q627 302 634 298.5 Q641 295 638 286 Z M307 318 Q327 320 354 321 Q381 322 410 323 Q412 339 420.5 364 Q429 389 440 416 Q410 416 383.5 416 Q357 416 335 415 Q324 384 316.5 359.5 Q309 335 308 323 L307 318 Z " />
<glyph glyph-name="dollar" unicode="&#x24;" horiz-adv-x="505" d="M414 306 Q416 285 417.5 268 Q419 251 411 234 Q396 198 366 171 Q336 144 298 124 Q296 117 294 110 Q292 103 293 100 Q282 91 277 80 Q272 69 270 58 Q268 47 267 36 Q266 25 262 16 Q254 12 247 6 Q240 0 233.5 -6 Q227 -12 219 -17 Q211 -22 200 -24 Q180 -17 168.5 -9.5 Q157 -2 141 6 Q130 21 128.5 39 Q127 57 131 74 Q122 75 113 75.5 Q104 76 96 75 Q90 80 84.5 86 Q79 92 77 100 Q73 100 73 104 Q73 108 69 109 Q75 117 74.5 118 Q74 119 72 120 Q70 121 68 122.5 Q66 124 67 127 Q71 133 70 142 Q69 151 68 160.5 Q67 170 69 178.5 Q71 187 82 192 Q114 189 142 194.5 Q170 200 195.5 210 Q221 220 244 232 Q267 244 289 253 Q294 268 306.5 275.5 Q319 283 324 298 Q325 304 320.5 305 Q316 306 316 311 Q289 323 266 329.5 Q243 336 228 344 Q218 339 209.5 341.5 Q201 344 187 346 Q155 348 126 352 Q97 356 69 367 Q67 372 65 375 Q63 378 55 377 Q50 384 44 390 Q38 396 33 404 Q35 414 36 421 Q37 428 31 435 Q34 446 36 453 Q38 460 36 471 Q43 489 57 502 Q71 515 88.5 524 Q106 533 124.5 538.5 Q143 544 159 549 Q185 561 215.5 570 Q246 579 278 588 Q285 612 292.5 638.5 Q300 665 310 688.5 Q320 712 333 729 Q346 746 365 751 Q391 722 404 690 Q417 658 425 614 Q446 614 468 611.5 Q490 609 513 602 Q516 594 521.5 586.5 Q527 579 533 571.5 Q539 564 543.5 556.5 Q548 549 549 541 Q558 533 563.5 524.5 Q569 516 566 501 Q557 495 548 489 Q539 483 529 478 Q494 486 459.5 484 Q425 482 396 480 Q387 488 375.5 487.5 Q364 487 351.5 484 Q339 481 326.5 477.5 Q314 474 303 476 Q294 469 280.5 466.5 Q267 464 252 463 Q251 458 253.5 457 Q256 456 254 451 Q259 445 268.5 442.5 Q278 440 287.5 438 Q297 436 304.5 432 Q312 428 315 419 Q328 419 338.5 413 Q349 407 355.5 398.5 Q362 390 365.5 380 Q369 370 368 363 Q371 356 374.5 357.5 Q378 359 383 354 Q386 343 397 331.5 Q408 320 414 306 Z " />
<glyph glyph-name="percent" unicode="&#x25;" horiz-adv-x="659" d="M455 557 Q468 565 484.5 581.5 Q501 598 519 616.5 Q537 635 556 655 Q575 675 594 690.5 Q613 706 631 715 Q649 724 665 723 Q673 688 667.5 653.5 Q662 619 645 576 Q634 565 613.5 546.5 Q593 528 568.5 505.5 Q544 483 518 458.5 Q492 434 468.5 411.5 Q445 389 427.5 370.5 Q410 352 403 342 Q386 327 358.5 301 Q331 275 300.5 246 Q270 217 241.5 189 Q213 161 195 143 Q193 138 196 134.5 Q199 131 199 126 Q187 116 183.5 107.5 Q180 99 179.5 91 Q179 83 179.5 74.5 Q180 66 177 56 Q169 50 162.5 42.5 Q156 35 150 27.5 Q144 20 136.5 13.5 Q129 7 118 2 Q98 3 86 6.5 Q74 10 57 13 Q43 26 41.5 46 Q40 66 44.5 87 Q49 108 57.5 128.5 Q66 149 74 164 Q84 187 95 196 Q106 205 108 213 Q117 223 140.5 245 Q164 267 192 292 Q220 317 246.5 340.5 Q273 364 287 378 Q296 394 322 419 Q348 444 376.5 470 Q405 496 428 519.5 Q451 543 455 557 Z M300 680 Q298 675 296.5 669.5 Q295 664 290 661 Q295 650 294 648 Q306 628 315.5 607 Q325 586 337 566 Q335 554 341 543 Q347 532 349 521 Q351 507 345.5 490 Q340 473 329 466 Q322 458 312 453 Q302 448 294 440 Q288 436 281.5 435 Q275 434 268 432 Q257 425 239 419 Q221 413 209 415 Q194 410 179.5 408 Q165 406 146 410 Q109 405 85 424.5 Q61 444 50 471 Q46 500 52 523.5 Q58 547 69.5 567 Q81 587 95.5 604 Q110 621 123 637 Q129 635 131.5 640 Q134 645 139 647 Q143 655 149.5 658.5 Q156 662 160 669 Q169 671 173.5 677 Q178 683 186 685 Q196 695 200 700 Q204 705 210 713 Q215 713 217.5 713 Q220 713 226 714 Q230 721 233 724.5 Q236 728 243 732 Q249 729 256.5 728 Q264 727 269 722 Q269 717 272 714 Q275 711 278 708.5 Q281 706 283.5 703.5 Q286 701 287 697 Q295 691 296.5 688.5 Q298 686 300 680 Z M228 537 Q231 547 231 547.5 Q231 548 230 550 Q226 556 223 563 Q220 570 216 576 Q210 570 204 574 Q199 569 193.5 565 Q188 561 183 555 Q177 547 172.5 542 Q168 537 167 527 Q174 522 184 524 Q194 526 202 526 Q210 528 216 531 Q222 534 228 537 Z M592 176 Q590 164 595.5 153.5 Q601 143 603 132 Q605 118 600 100.5 Q595 83 584 77 Q577 68 566.5 63 Q556 58 548 50 Q542 47 536 45.5 Q530 44 522 42 Q511 36 493.5 30 Q476 24 463 25 Q448 20 434 18 Q420 16 400 20 Q363 15 339.5 34.5 Q316 54 305 82 Q301 110 307 133.5 Q313 157 324 177 Q335 197 349.5 214 Q364 231 378 247 Q383 245 386 250.5 Q389 256 394 257 Q397 265 404 268.5 Q411 272 415 280 Q423 282 428 287.5 Q433 293 441 295 Q450 305 454.5 310 Q459 315 465 323 Q470 324 472.5 323.5 Q475 323 480 324 Q485 332 488 335 Q491 338 497 343 Q503 339 510.5 338.5 Q518 338 523 332 Q524 321 532 318.5 Q540 316 542 307 Q549 301 551 299 Q553 297 555 290 Q553 285 551 279.5 Q549 274 544 272 Q550 261 548 259 Q560 239 569.5 217.5 Q579 196 592 176 Z M483 148 Q485 157 485 161 Q480 167 477.5 174 Q475 181 471 187 Q466 182 463.5 182 Q461 182 459 184 Q453 179 447.5 175 Q442 171 437 166 Q432 157 427 152 Q422 147 422 138 Q429 132 439 134 Q449 136 457 136 Q465 138 470.5 141 Q476 144 483 148 Z " />
<glyph glyph-name="ampersand" unicode="&#x26;" horiz-adv-x="614" d="M561 318 Q576 317 582.5 311.5 Q589 306 591.5 298.5 Q594 291 593 282.5 Q592 274 592 265 Q577 255 554.5 248.5 Q532 242 505 238 Q478 234 448.5 232.5 Q419 231 390 231 Q385 203 378 171 Q371 139 355 95 Q341 64 323 51.5 Q305 39 285.5 39 Q266 39 246 48.5 Q226 58 208 70 Q204 96 207 122.5 Q210 149 216 188 Q210 200 200 204.5 Q190 209 178.5 209.5 Q167 210 157 208 Q147 206 143 204 Q124 205 103.5 213 Q83 221 64 231.5 Q45 242 30.5 254.5 Q16 267 9 279 Q14 287 11.5 302 Q9 317 0 324 Q8 326 11.5 336 Q15 346 12 351 Q28 355 37.5 370.5 Q47 386 60 404 Q73 422 96 438.5 Q119 455 164 461 Q193 444 210.5 434 Q228 424 239 419 Q251 413 257 411 Q258 415 263.5 417 Q269 419 270 424 Q274 437 272 444.5 Q270 452 276 463 Q281 471 289.5 483.5 Q298 496 296 515 Q306 522 314.5 530.5 Q323 539 332.5 546.5 Q342 554 353.5 559.5 Q365 565 382 565 Q391 554 395 544 Q399 534 403 525 Q407 516 413.5 508 Q420 500 433 493 Q434 484 431 471 Q428 458 426 445.5 Q424 433 425 422.5 Q426 412 435 409 Q425 383 420 366 Q437 363 459 362.5 Q481 362 501 359 Q521 356 537.5 347 Q554 338 561 318 Z M139 323 Q139 314 154 314 Q158 314 162.5 314.5 Q167 315 172 316 Q177 317 182 318 Q177 324 172 328 Q167 332 162.5 335.5 Q158 339 154 339 Q150 339 144.5 332 Q139 325 139 323 Z " />
<glyph glyph-name="quotesingle" unicode="&#x27;" horiz-adv-x="272" d="M254 739 Q266 729 277 721 Q288 713 297 704 Q306 695 310.5 683.5 Q315 672 313 655 Q305 646 294 621.5 Q283 597 267 551 Q259 528 251.5 488.5 Q244 449 233.5 406.5 Q223 364 208 326.5 Q193 289 170 272 Q161 275 151 277 Q141 279 133 283 Q125 287 120.5 294.5 Q116 302 117 316 Q94 329 87.5 347.5 Q81 366 82 386.5 Q83 407 86.5 427.5 Q90 448 87 465 Q97 506 108.5 553.5 Q120 601 129 645 Q138 654 143.5 667.5 Q149 681 153 697 Q157 713 161.5 728.5 Q166 744 174 758 Q179 753 191 753.5 Q203 754 206 760 Q212 750 228 743.5 Q244 737 254 739 Z " />
<glyph glyph-name="parenleft" unicode="&#x28;" horiz-adv-x="370" d="M276 474 L240 429 L239 401 Q227 376 217.5 348 Q208 320 200 285 Q191 247 190 205.5 Q189 164 193.5 123 Q198 82 207 43 Q216 4 228 -28 Q225 -32 222.5 -43.5 Q220 -55 218.5 -68 Q217 -81 216.5 -92.5 Q216 -104 218 -109 L225 -120 Q229 -122 230 -127 Q231 -132 232 -136 Q234 -161 219 -184 Q199 -181 181.5 -174.5 Q164 -168 149 -161 Q138 -137 125.5 -122 Q113 -107 101 -93 Q90 -81 79.5 -68 Q69 -55 58 -35 Q54 -2 48 25 Q42 52 34 81 L31 92 Q33 129 35 167.5 Q37 206 35 234 Q37 242 37.5 251.5 Q38 261 39 271 Q39 275 39 283 Q39 291 40 295 L62 297 L55 329 L66 341 L70 359 Q73 416 86 458.5 Q99 501 123 542 L131 557 Q148 580 165 606 Q182 632 204 662 Q239 700 265.5 727 Q292 754 319 771 L328 782 Q347 800 360.5 811.5 Q374 823 385 834 Q396 844 405 852 Q414 860 423 865 Q437 855 450 857 Q463 859 471 862 Q483 849 483 840 Q483 831 479 815 Q476 802 473.5 785 Q471 768 479 748 Q474 737 470.5 725.5 Q467 714 463 702 Q459 690 456 684.5 Q453 679 449.5 675.5 Q446 672 441.5 668.5 Q437 665 431 657 Q408 648 384.5 628.5 Q361 609 340.5 585.5 Q320 562 304.5 537 Q289 512 282 491 L276 474 Z " />
<glyph glyph-name="parenright" unicode="&#x29;" horiz-adv-x="370" d="M329 589 Q327 551 325 513 Q323 475 325 447 Q323 438 322.5 428.5 Q322 419 321 410 Q321 406 321 398 Q321 390 320 386 L298 383 L305 352 L294 340 L290 322 Q287 265 274 222.5 Q261 180 237 138 L229 124 Q212 101 195 74.5 Q178 48 156 18 Q121 -20 94.5 -46.5 Q68 -73 41 -90 L32 -101 Q13 -119 -0.5 -130.5 Q-14 -142 -25 -153 Q-36 -163 -45 -171 Q-54 -179 -63 -184 Q-77 -174 -90 -176.5 Q-103 -179 -111 -181 Q-123 -169 -123 -159.5 Q-123 -150 -119 -135 Q-116 -121 -113.5 -104 Q-111 -87 -119 -67 Q-114 -56 -110.5 -45 Q-107 -34 -103 -21 Q-99 -9 -96 -3.5 Q-93 2 -89.5 5.5 Q-86 9 -81.5 12.5 Q-77 16 -71 24 Q-49 33 -25 52.5 Q-1 72 19.5 95.5 Q40 119 55.5 143.5 Q71 168 78 189 L84 207 L119 252 L121 280 Q144 327 160 396 Q169 433 169.5 474.5 Q170 516 165.5 557.5 Q161 599 152 638 Q143 677 132 709 Q135 713 137.5 724.5 Q140 736 141.5 749 Q143 762 143.5 773.5 Q144 785 142 790 L135 800 Q131 803 130 807.5 Q129 812 128 817 Q126 842 141 865 Q160 862 177.5 855.5 Q195 849 211 842 Q222 818 234.5 803 Q247 788 259 774 Q270 761 280.5 748.5 Q291 736 302 716 Q306 683 312 656 Q318 629 326 600 L329 589 Z " />
<glyph glyph-name="asterisk" unicode="&#x2a;" horiz-adv-x="690" d="M684 526 Q702 525 710 520.5 Q718 516 720 509 Q722 502 720.5 493.5 Q719 485 718 477 Q686 461 633.5 454 Q581 447 522 444 Q528 427 539 407 Q550 387 557 367.5 Q564 348 564 329 Q564 310 548 295 Q554 281 552.5 272 Q551 263 545 257.5 Q539 252 530 248 Q521 244 512 240 Q481 256 449.5 296 Q418 336 389 382 Q366 342 354 318.5 Q342 295 339 284 Q324 267 311 259 Q298 251 285 248.5 Q272 246 258.5 246 Q245 246 230 245 Q226 253 211 257.5 Q196 262 183 257 Q188 265 181.5 273 Q175 281 168 280 Q176 297 187.5 314.5 Q199 332 210.5 349 Q222 366 231.5 382.5 Q241 399 244 413 Q246 417 249 420.5 Q252 424 255 428 Q218 423 195.5 419 Q173 415 163 411 Q139 412 126 417 Q113 422 105 430.5 Q97 439 91.5 449 Q86 459 79 470 Q85 478 84 491.5 Q83 505 72 512 Q81 514 86.5 523 Q92 532 89 537 Q109 541 131.5 542.5 Q154 544 176 545.5 Q198 547 218 550 Q238 553 253 559 L273 559 Q253 585 240 599 Q227 613 219 619 Q210 637 210 650 Q210 663 215 673.5 Q220 684 228 694 Q236 704 244 716 Q254 717 267.5 726 Q281 735 283 747 Q288 741 300 742.5 Q312 744 316 749 Q328 736 339 720 Q350 704 360.5 688.5 Q371 673 381.5 659.5 Q392 646 405 638 Q420 648 434 665 Q448 682 463 696 Q478 710 495 718 Q512 726 531 724 Q543 737 552 741 Q561 745 569.5 743.5 Q578 742 585.5 737.5 Q593 733 601 729 Q599 699 575 656 Q551 613 519 568 Q540 566 566 566 Q592 566 616 563 Q640 560 659 552 Q678 544 684 526 Z " />
<glyph glyph-name="plus" unicode="&#x2b;" horiz-adv-x="593" d="M510 298 Q525 296 531.5 291 Q538 286 540 278.5 Q542 271 541.5 262 Q541 253 541 244 Q526 234 503.5 227.5 Q481 221 454 217.5 Q427 214 397.5 212.5 Q368 211 339 210 Q334 182 327 150.5 Q320 119 304 74 Q290 43 272 30.5 Q254 18 234.5 18 Q215 18 195 27.5 Q175 37 157 49 Q155 62 156 80 Q157 98 159 118.5 Q161 139 164.5 159.5 Q168 180 171 200 Q139 195 119.5 191 Q100 187 92 184 Q73 185 62 191 Q51 197 44 205.5 Q37 214 32 225 Q27 236 20 248 Q24 256 21.5 271 Q19 286 10 294 Q18 295 22 305.5 Q26 316 22 321 Q38 325 56.5 326.5 Q75 328 93 329 Q111 330 127 332.5 Q143 335 155 341 Q169 341 181.5 341.5 Q194 342 208 342 Q211 355 207 364 Q203 373 205 380 Q207 385 212.5 386.5 Q218 388 219 393 Q223 406 221 413.5 Q219 421 225 433 Q230 441 238.5 458 Q247 475 245 494 Q255 501 263.5 510 Q272 519 281.5 526.5 Q291 534 302.5 539.5 Q314 545 331 545 Q340 534 344 524 Q348 514 352 505 Q356 496 362.5 488 Q369 480 382 473 Q382 464 379 451 Q376 438 374 425 Q372 412 373 402 Q374 392 383 388 Q379 377 375.5 366.5 Q372 356 369 346 Q386 343 408 342.5 Q430 342 450 338.5 Q470 335 486.5 326.5 Q503 318 510 298 Z " />
<glyph glyph-name="comma" unicode="&#x2c;" horiz-adv-x="209" d="M9 149 Q15 144 29.5 137.5 Q44 131 60 124.5 Q76 118 90 113 Q104 108 110 107 Q121 87 122.5 71.5 Q124 56 127 39 Q122 34 120.5 22.5 Q119 11 119 6 Q118 -2 115 -3.5 Q112 -5 110 -12 Q109 -14 111 -18 Q113 -22 112 -24 Q111 -29 107.5 -29.5 Q104 -30 102 -35 Q98 -46 96.5 -48.5 Q95 -51 94.5 -51.5 Q94 -52 92.5 -53.5 Q91 -55 86 -65 Q79 -80 69 -94.5 Q59 -109 56 -123 Q42 -135 21.5 -153.5 Q1 -172 -17 -179 Q-26 -175 -45.5 -166 Q-65 -157 -82.5 -146 Q-100 -135 -109 -122 Q-118 -109 -107 -98 Q-89 -79 -75.5 -52.5 Q-62 -26 -52 4.5 Q-42 35 -34.5 67.5 Q-27 100 -20 130 Q-16 126 -12 127.5 Q-8 129 -4 132.5 Q0 136 3 141 Q6 146 9 149 Z " />
<glyph glyph-name="hyphen" unicode="&#x2d;" horiz-adv-x="624" d="M520 298 Q535 296 541.5 291 Q548 286 550.5 278.5 Q553 271 552 262 Q551 253 551 244 Q526 227 482 220.5 Q438 214 390 211.5 Q342 209 297 209 Q252 209 226 206 Q172 200 142.5 194.5 Q113 189 102 184 Q83 185 72 191 Q61 197 54 205.5 Q47 214 42 225 Q37 236 30 248 Q34 256 32 271 Q30 286 20 294 Q28 295 32 305.5 Q36 316 32 321 Q48 325 66.5 326.5 Q85 328 103 329 Q121 330 137.5 332.5 Q154 335 166 341 Q216 342 269.5 344 Q323 346 370 348 Q387 343 410 342.5 Q433 342 455 339.5 Q477 337 495 328 Q513 319 520 298 Z " />
<glyph glyph-name="period" unicode="&#x2e;" horiz-adv-x="234" d="M146 119 Q148 111 149 104 Q150 97 152 89 Q148 79 145 69.5 Q142 60 139 51 Q136 44 135 42 Q134 40 134 39 Q134 38 134.5 36.5 Q135 35 135 28 L131 16 Q126 9 119 5 Q112 1 105 -2 Q103 -4 99 -5.5 Q95 -7 93 -9 L90 -21 L77 -23 Q60 -27 48 -27 L36 -27 Q24 -16 17 -10 Q10 -4 2 1 Q-8 15 -9 21.5 Q-10 28 -12 34 Q-14 47 -17 51 L-31 65 L-19 74 L-30 93 Q-18 102 -12 106 Q-6 110 -2 114.5 Q2 119 7 126 Q12 133 23 149 L32 162 L45 155 Q49 152 62.5 149.5 Q76 147 86 145 Q103 140 118 137.5 Q133 135 142 127 L146 119 Z " />
<glyph glyph-name="slash" unicode="&#x2f;" horiz-adv-x="411" d="M290 561 Q308 574 329 603.5 Q350 633 373.5 662 Q397 691 421.5 712.5 Q446 734 471 731 Q487 695 488 659.5 Q489 624 481 579 Q472 568 455 549 Q438 530 417.5 506.5 Q397 483 375 458 Q353 433 333.5 410 Q314 387 299.5 368 Q285 349 280 338 Q266 323 242.5 296 Q219 269 194 239 Q169 209 145.5 180.5 Q122 152 107 133 Q106 128 110 124 Q114 120 116 115 Q105 105 103 96.5 Q101 88 102 79 Q103 70 105 61.5 Q107 53 106 43 Q99 37 94.5 29 Q90 21 85.5 13.5 Q81 6 74.5 -1 Q68 -8 58 -13 Q37 -11 24 -7.5 Q11 -4 -7 -1 Q-24 13 -30 33.5 Q-36 54 -35.5 75.5 Q-35 97 -30.5 118.5 Q-26 140 -21 156 Q-10 163 -20 166 Q-16 180 -6 189.5 Q4 199 4 206 Q11 217 31 239.5 Q51 262 74.5 288 Q98 314 120 338.5 Q142 363 154 377 Q160 393 181.5 418.5 Q203 444 226.5 471 Q250 498 269.5 522 Q289 546 290 561 Z " />
<glyph glyph-name="zero" unicode="0" horiz-adv-x="703" d="M224 -17 Q185 -23 152 -13 Q119 -3 93.5 19 Q68 41 49 71 Q30 101 18 135 Q10 206 23 264 Q36 322 60.5 371 Q85 420 116 462.5 Q147 505 176 544 Q182 541 186 544.5 Q190 548 193.5 553 Q197 558 200.5 563 Q204 568 210 570 Q214 579 220 585.5 Q226 592 232.5 598 Q239 604 245 610 Q251 616 255 625 Q264 627 271 632.5 Q278 638 284 644 Q290 650 296.5 655.5 Q303 661 312 664 L312 677 Q332 688 341 700.5 Q350 713 363 732 Q373 734 379 733.5 Q385 733 396 735 Q405 752 412 761 Q419 770 433 781 Q446 773 462 770.5 Q478 768 489 755 Q490 742 495.5 735 Q501 728 508 722.5 Q515 717 521 710.5 Q527 704 529 693 Q533 693 534.5 695 Q536 697 540 696 Q542 687 544 682 Q546 677 548 672.5 Q550 668 552.5 663.5 Q555 659 557 651 Q552 639 548.5 625 Q545 611 534 606 Q534 598 539.5 597 Q545 596 546 589 Q546 579 543 573 Q569 524 589.5 470.5 Q610 417 636 369 Q634 354 637.5 340 Q641 326 645.5 312.5 Q650 299 654.5 286 Q659 273 661 259 Q663 241 661.5 220.5 Q660 200 654.5 181 Q649 162 640 146 Q631 130 619 122 Q617 123 608 116.5 Q599 110 587.5 100 Q576 90 564 78 Q552 66 543 57 Q531 49 516.5 45.5 Q502 42 487 38 Q475 30 458.5 21.5 Q442 13 424.5 7 Q407 1 390 -2.5 Q373 -6 360 -4 Q327 -18 296.5 -22.5 Q266 -27 224 -17 Z M246 361 Q238 337 227 318 Q216 299 205.5 279 Q195 259 187.5 236.5 Q180 214 179 184 Q195 167 217.5 163 Q240 159 263.5 162 Q287 165 310 170 Q333 175 352 176 Q352 185 359 184 Q392 188 421.5 208.5 Q451 229 483 250 Q487 263 493.5 272 Q500 281 500 298 Q496 309 495 314.5 Q494 320 494 333 Q473 371 457.5 415.5 Q442 460 422 498 Q420 493 415 488 Q410 483 404 490 Q399 470 386.5 472 Q374 474 363 484 Q335 455 307 427.5 Q279 400 257 364 Q253 361 252 362.5 Q251 364 246 361 Z " />
<glyph glyph-name="one" unicode="1" horiz-adv-x="330" d="M179 724 Q190 702 207.5 688.5 Q225 675 242 661 Q263 622 268 574 Q273 526 279 469 Q279 423 273 382.5 Q267 342 257.5 303.5 Q248 265 236 227 Q224 189 213 147 Q199 132 191.5 104.5 Q184 77 190 51 Q177 35 164 20 Q151 5 135 -8 Q129 -2 119.5 -1.5 Q110 -1 100 -1.5 Q90 -2 81.5 -3.5 Q73 -5 69 -4 Q64 4 55.5 13 Q47 22 40.5 32 Q34 42 30.5 51.5 Q27 61 32 70 Q32 81 20 81 Q23 127 35 171.5 Q47 216 62 258.5 Q77 301 91.5 343 Q106 385 113.5 426 Q121 467 117.5 508 Q114 549 94 591 Q94 605 93.5 614.5 Q93 624 92.5 631.5 Q92 639 91 646 Q90 653 87 661 Q92 675 94.5 687 Q97 699 94 709 Q95 716 98 720.5 Q101 725 105 729.5 Q109 734 112.5 738.5 Q116 743 117 750 L139 750 Q150 741 158 733.5 Q166 726 179 724 Z " />
<glyph glyph-name="two" unicode="2" horiz-adv-x="666" d="M703 174 Q727 162 727.5 144 Q728 126 716.5 110.5 Q705 95 686.5 87 Q668 79 653 88 Q651 80 644.5 77.5 Q638 75 636 68 Q539 53 438 31 Q337 9 236 -2 Q158 1 106 21 Q85 39 74.5 66 Q64 93 62 123 Q60 153 64 181.5 Q68 210 76 231 Q128 297 184.5 357.5 Q241 418 313 465 Q334 491 362 509.5 Q390 528 413 551 Q383 562 350 562 Q317 562 285 556.5 Q253 551 225 543 Q197 535 176 531 Q160 539 138.5 540 Q117 541 96 548 Q84 558 79.5 574 Q75 590 74 607 Q73 624 73 639.5 Q73 655 69 665 Q77 678 83.5 691 Q90 704 99 715 Q146 728 203 736.5 Q260 745 318 744 Q376 743 430 729.5 Q484 716 526 685 Q531 657 547 640.5 Q563 624 586 615 Q597 595 605 574.5 Q613 554 616 531 Q596 478 559.5 441.5 Q523 405 486 375 Q466 358 443 346 Q420 334 403 318 Q399 314 398 307.5 Q397 301 393 298 Q375 282 353 269.5 Q331 257 313 241 Q300 230 291.5 217 Q283 204 269 194 Q287 188 304.5 189 Q322 190 340.5 193 Q359 196 378.5 199 Q398 202 419 201 Q448 211 483 218.5 Q518 226 553 224 Q583 236 610.5 241.5 Q638 247 663 244 Q676 239 682.5 226 Q689 213 703 208 Q700 197 701.5 192 Q703 187 703 174 Z " />
<glyph glyph-name="three" unicode="3" horiz-adv-x="575" d="M36 680 Q91 691 145 702.5 Q199 714 253.5 722 Q308 730 365 733 Q422 736 485 730 Q510 704 529 673.5 Q548 643 565 610 Q563 603 562.5 596 Q562 589 560 581 Q555 568 546.5 557.5 Q538 547 533 533 Q508 519 485.5 503 Q463 487 441 470 Q423 462 403.5 455.5 Q384 449 374 431 Q407 417 432 397 Q457 377 476 352 Q495 327 509 298 Q523 269 534 238 Q532 223 529 207 Q526 191 529 180 Q522 159 510.5 146.5 Q499 134 488 113 Q453 98 431 71 Q421 71 421 75 Q390 54 349 39.5 Q308 25 261 17 Q214 9 162 8 Q110 7 58 12 Q54 15 51 19 Q48 23 39 22 Q35 32 28.5 39.5 Q22 47 18 57 Q28 73 31.5 94 Q35 115 39.5 134.5 Q44 154 52 169.5 Q60 185 79 192 Q87 193 88 187 Q89 181 94 179 Q133 179 172 180.5 Q211 182 246 187.5 Q281 193 311.5 204 Q342 215 364 235 Q334 259 294 271.5 Q254 284 216.5 296 Q179 308 150 326.5 Q121 345 112 381 Q117 404 119 422 Q121 440 124 455 Q127 470 133.5 483.5 Q140 497 155 510 Q150 513 140.5 511.5 Q131 510 120 506.5 Q109 503 98.5 498.5 Q88 494 81 491 Q60 496 38.5 497.5 Q17 499 -1 510 Q-3 521 -6 534.5 Q-9 548 -10 562 Q-11 576 -8 590 Q-5 604 6 616 Q4 623 3 630 Q2 637 -1 642 Q10 651 22.5 660 Q35 669 36 680 Z " />
<glyph glyph-name="four" unicode="4" horiz-adv-x="596" d="M551 499 Q557 482 563 469 Q569 456 586 446 Q582 423 584 408 Q586 393 579 371 Q565 356 545.5 347 Q526 338 505.5 331.5 Q485 325 464.5 318 Q444 311 427 299 Q414 259 399.5 220 Q385 181 374 134 Q376 129 381 127 Q386 125 389 121 Q384 107 388 98.5 Q392 90 399 83 Q406 76 413.5 69 Q421 62 424 53 Q420 44 419 35 Q418 26 417.5 17 Q417 8 414.5 -1 Q412 -10 405 -19 Q385 -27 364.5 -27 Q344 -27 327 -32 Q306 -27 291.5 -11.5 Q277 4 268 24 Q259 44 254 65 Q249 86 246 102 Q252 113 243 112 Q239 126 244 139 Q249 152 246 159 Q248 184 254 211.5 Q260 239 268 274 Q255 277 239.5 279.5 Q224 282 209.5 283.5 Q195 285 183 286 Q171 287 165 287 Q150 291 139 299.5 Q128 308 119 318.5 Q110 329 101.5 340 Q93 351 84 361 Q81 396 74 432 Q67 468 61 502 Q55 536 52 566 Q49 596 55 620 Q65 635 75 649 Q85 663 99 673 Q110 670 116.5 662.5 Q123 655 128.5 646.5 Q134 638 140.5 630.5 Q147 623 158 620 Q162 601 170.5 584.5 Q179 568 186.5 551 Q194 534 199.5 515.5 Q205 497 205 474 Q215 459 226.5 455.5 Q238 452 251 453 Q264 454 277.5 455 Q291 456 305 452 Q308 457 315 457.5 Q322 458 327 461 Q333 463 333.5 471 Q334 479 342 480 Q340 497 342.5 513.5 Q345 530 347.5 545 Q350 560 350.5 574 Q351 588 346 602 Q356 621 358.5 647.5 Q361 674 364.5 699 Q368 724 377.5 744.5 Q387 765 411 773 Q471 722 495 636 Q485 594 483.5 558 Q482 522 483 486 Q500 491 518.5 494 Q537 497 551 499 Z " />
<glyph glyph-name="five" unicode="5" horiz-adv-x="594" d="M631 672 Q637 664 643 652 Q649 640 644 630 Q662 612 672.5 586 Q683 560 670 529 Q647 521 629.5 516.5 Q612 512 592 506 Q554 504 544.5 503 Q535 502 530 501 Q525 500 514.5 497.5 Q504 495 469 490 Q469 494 468.5 495 Q468 496 466.5 495 Q465 494 463.5 493 Q462 492 459 493 Q439 486 419 482.5 Q399 479 379 476 Q359 473 339 468.5 Q319 464 298 454 Q300 449 304 446.5 Q308 444 312.5 441.5 Q317 439 321 436 Q325 433 327 428 Q355 421 373.5 405.5 Q392 390 407 370.5 Q422 351 436 331 Q450 311 469 295 Q469 289 472 286 Q475 283 473 275 Q491 252 501 220 Q511 188 505 146 Q492 114 474 91.5 Q456 69 427 45 Q404 35 382 29.5 Q360 24 343 13 Q335 18 328.5 17.5 Q322 17 317 19 Q294 9 268 5.5 Q242 2 213 16 Q192 15 170.5 17.5 Q149 20 131 27 Q113 34 100.5 46.5 Q88 59 84 78 Q61 97 54 125.5 Q47 154 61 181 Q67 183 70.5 184.5 Q74 186 80 191 Q133 186 188.5 182.5 Q244 179 307 191 Q309 199 314.5 202.5 Q320 206 327 209 Q334 212 340 215 Q346 218 349 224 Q349 230 346 232.5 Q343 235 340 237.5 Q337 240 334.5 243 Q332 246 333 253 Q320 253 302.5 262 Q285 271 275 282 Q231 290 187.5 312 Q144 334 103 353 Q96 365 87.5 375.5 Q79 386 71 397.5 Q63 409 57.5 421 Q52 433 51 447 Q52 463 53 477.5 Q54 492 55 506.5 Q56 521 58 536.5 Q60 552 64 570 Q107 629 171.5 669.5 Q236 710 304 736 Q315 725 326 712.5 Q337 700 349 689 Q361 678 374.5 670 Q388 662 405 661 Q416 664 422 665 Q428 666 433 666 Q438 666 446 666 Q454 666 469 668 Q484 670 498 670 Q512 670 524 671 Q549 673 560.5 675 Q572 677 576 678 Q580 679 580 679.5 Q580 680 583.5 679.5 Q587 679 597 677 Q607 675 631 672 Z " />
<glyph glyph-name="six" unicode="6" horiz-adv-x="513" d="M449 304 Q459 298 465 289 Q471 280 478 272 Q478 253 481.5 228 Q485 203 481 179 Q461 147 437 119 Q413 91 378 73 Q373 72 375 65.5 Q377 59 372 57 Q364 57 360 52.5 Q356 48 349 54 Q338 47 326 41.5 Q314 36 305 28 Q296 29 289 27 Q282 25 275 22.5 Q268 20 261 18 Q254 16 247 18 Q215 2 176 -8 Q137 -18 93 -11 Q63 -6 41 11 Q19 28 6 53.5 Q-7 79 -10 111.5 Q-13 144 -4 179 Q-6 182 -6.5 187 Q-7 192 -7 197 Q-7 202 -7 207 Q-7 212 -10 214 Q-4 224 0.5 234.5 Q5 245 0 259 Q5 260 7 264.5 Q9 269 10.5 275 Q12 281 13.5 286 Q15 291 19 294 Q21 321 29 345 Q37 369 47.5 391.5 Q58 414 70 436 Q82 458 93 481 Q89 489 90.5 491.5 Q92 494 93 503 Q108 528 123 556.5 Q138 585 155 613.5 Q172 642 191 668.5 Q210 695 234 715 Q250 718 265 725 Q280 732 295 737 Q310 742 325.5 743.5 Q341 745 359 737 Q361 728 360.5 724 Q360 720 362 715 Q378 707 380.5 689 Q383 671 385 654 Q397 648 402 636 Q407 624 410 609 Q398 597 387.5 586 Q377 575 366 567 Q362 565 355 565.5 Q348 566 346 567 Q316 554 293.5 532.5 Q271 511 254.5 484 Q238 457 226.5 427 Q215 397 208 368 Q179 325 161 279 Q143 233 131 176 Q132 168 139.5 169 Q147 170 154 169 Q166 190 169.5 209 Q173 228 173 253 Q184 272 197 289 Q210 306 221 326 Q237 338 251 347 Q265 356 279 362.5 Q293 369 309.5 374.5 Q326 380 349 384 Q373 382 390.5 374 Q408 366 420 354.5 Q432 343 439 329.5 Q446 316 449 304 Z " />
<glyph glyph-name="seven" unicode="7" horiz-adv-x="590" d="M641 374 Q642 369 637 365.5 Q632 362 627.5 359 Q623 356 620.5 352.5 Q618 349 624 345 Q631 347 633 343.5 Q635 340 640 342 Q639 340 636.5 334.5 Q634 329 640 329 Q637 319 630 312.5 Q623 306 615.5 300.5 Q608 295 600 289.5 Q592 284 587 276 Q552 271 536.5 268.5 Q521 266 508.5 263.5 Q496 261 480 258.5 Q464 256 430 250 Q425 244 419.5 240 Q414 236 408.5 230.5 Q403 225 399.5 218 Q396 211 396 201 Q384 193 375.5 181 Q367 169 359.5 156 Q352 143 344 130 Q336 117 326 106 Q327 101 330 98.5 Q333 96 332 90 Q320 84 314.5 69.5 Q309 55 304 40 Q299 25 290 12.5 Q281 0 261 -1 Q248 3 239 4.5 Q230 6 221.5 6 Q213 6 204 5.5 Q195 5 183 5 Q183 13 180.5 22 Q178 31 187 35 Q182 48 168 51 Q169 94 183.5 137 Q198 180 216 213 Q196 210 185 208.5 Q174 207 164.5 206 Q155 205 144.5 205.5 Q134 206 116 206 Q116 218 106 220 Q96 222 90 229 Q88 240 79.5 247 Q71 254 63 259 Q63 270 73 269 Q71 279 67.5 289 Q64 299 77 306 Q76 310 71.5 310.5 Q67 311 71 319 Q84 351 108 362.5 Q132 374 161 377.5 Q190 381 221 382.5 Q252 384 280 398 Q298 394 312 397 Q326 400 342 404 Q344 423 353 441 Q362 459 367 478 Q368 488 363 493 Q358 498 361 511 Q342 529 321 536 Q300 543 277 546 Q254 549 229 550 Q204 551 179 557 Q153 558 133.5 555.5 Q114 553 97 550 Q80 547 63.5 546 Q47 545 26 549 Q29 555 28.5 559.5 Q28 564 25.5 568 Q23 572 18.5 577.5 Q14 583 10 591 Q13 606 17.5 633 Q22 660 19 683 Q26 684 28 686 Q30 688 30.5 691 Q31 694 31.5 697.5 Q32 701 36 705 Q46 705 53.5 714 Q61 723 72 728 Q93 729 101.5 730 Q110 731 115.5 732.5 Q121 734 127.5 736 Q134 738 151 741 Q155 742 156.5 740.5 Q158 739 159 737.5 Q160 736 161.5 734.5 Q163 733 167 734 Q186 736 199 736.5 Q212 737 223.5 736.5 Q235 736 245.5 733.5 Q256 731 271 727 Q277 727 283.5 727.5 Q290 728 295.5 728 Q301 728 304.5 726 Q308 724 310 717 Q329 719 343.5 717 Q358 715 371.5 710.5 Q385 706 399.5 699.5 Q414 693 434 687 Q448 661 462.5 637 Q477 613 503 599 Q504 594 502 592.5 Q500 591 500 586 Q492 581 494 580 Q496 579 499 579 Q502 579 505 578.5 Q508 578 509 576 Q509 572 506.5 570.5 Q504 569 503 566 Q509 556 509.5 539 Q510 522 507.5 501.5 Q505 481 502.5 459 Q500 437 502 418 Q528 413 537.5 411.5 Q547 410 553.5 410 Q560 410 571.5 410.5 Q583 411 613 410 Q614 395 623.5 388.5 Q633 382 641 374 Z " />
<glyph glyph-name="eight" unicode="8" horiz-adv-x="550" d="M524 733 Q546 717 559.5 694.5 Q573 672 581 646.5 Q589 621 593.5 593.5 Q598 566 601 541 Q591 506 567 474 Q543 442 510 423 Q480 400 456.5 381.5 Q433 363 401 357 Q393 349 385.5 342.5 Q378 336 372 326 Q389 280 407 235 Q425 190 431 136 Q419 129 418 115 Q417 101 417 85 Q405 71 399 55.5 Q393 40 380 29 Q377 27 373.5 28.5 Q370 30 367 28 Q354 21 340.5 10 Q327 -1 313 -5 Q287 -12 260.5 -11 Q234 -10 209.5 -3 Q185 4 164 16.5 Q143 29 127 46 Q116 66 109 87.5 Q102 109 86 125 Q81 157 80.5 201 Q80 245 94 288 Q99 302 107 313 Q115 324 114 338 Q119 339 121.5 342 Q124 345 129 347 Q132 355 128.5 358 Q125 361 127 368 Q112 389 97.5 411.5 Q83 434 73 458 Q63 482 61 509 Q59 536 70 567 Q70 582 76.5 601 Q83 620 94 638 Q105 656 119 670.5 Q133 685 150 692 Q150 699 153.5 700.5 Q157 702 157 709 Q170 713 181 719 Q192 725 203.5 730.5 Q215 736 228.5 740.5 Q242 745 260 746 Q292 748 325.5 742 Q359 736 382 722 Q392 696 406.5 676 Q421 656 428 639 Q430 624 432 612.5 Q434 601 434 590 Q434 579 431 567.5 Q428 556 420 541 Q440 546 453.5 557 Q467 568 474 589 Q474 606 465 618 Q456 630 451 645 Q457 648 459 652.5 Q461 657 460 662 Q459 667 457.5 672 Q456 677 456 682 Q462 684 464 682 Q466 680 469 683 Q467 691 466.5 691.5 Q466 692 465 698 Q469 703 475 708 Q481 713 486 707 Q480 717 485.5 726 Q491 735 500 740 Q505 738 510.5 736 Q516 734 524 733 Z M287 163 Q287 170 290 173.5 Q293 177 295 182 Q283 207 271.5 224.5 Q260 242 234 258 Q220 249 213 236 Q206 223 205 209.5 Q204 196 209.5 183 Q215 170 226 160 Q236 163 254 159.5 Q272 156 287 163 Z M262 453 Q277 461 293 467 Q309 473 325 479 Q341 485 356 492.5 Q371 500 382 512 Q344 512 319.5 525 Q295 538 296 571 Q282 578 266 577.5 Q250 577 237 570.5 Q224 564 218 552.5 Q212 541 217 527 Q215 522 210 521.5 Q205 521 205 514 Q220 500 231.5 483 Q243 466 262 453 Z " />
<glyph glyph-name="nine" unicode="9" horiz-adv-x="542" d="M509 594 Q507 585 509 576.5 Q511 568 513 560.5 Q515 553 517 544.5 Q519 536 518 527 Q522 517 528.5 509 Q535 501 540.5 493.5 Q546 486 549.5 477 Q553 468 552 455 Q543 444 538 434.5 Q533 425 526 417.5 Q519 410 510 404 Q501 398 494 391 Q486 368 478.5 353.5 Q471 339 463 316 Q461 290 457 268.5 Q453 247 448 226.5 Q443 206 438 185 Q433 164 429 140 Q428 98 415.5 60.5 Q403 23 380 -11 Q362 -9 347.5 -11.5 Q333 -14 315 -17 Q307 -9 301 -1.5 Q295 6 287 12 Q288 62 292.5 102.5 Q297 143 304.5 182 Q312 221 322 262.5 Q332 304 343 356 Q329 357 310.5 354.5 Q292 352 271.5 348.5 Q251 345 230.5 340.5 Q210 336 192 333 Q181 334 169.5 334 Q158 334 148 335 Q138 336 129.5 339.5 Q121 343 115 351 Q99 347 88 352.5 Q77 358 69 367.5 Q61 377 55.5 389 Q50 401 44 411 Q39 444 41.5 470 Q44 496 51.5 518 Q59 540 70.5 560.5 Q82 581 94 603 Q120 629 151.5 656 Q183 683 220 704 Q257 725 299 737 Q341 749 389 745 Q429 716 456 676 Q483 636 509 594 Z M377 542 Q378 561 367 568.5 Q356 576 340 579 Q315 569 291.5 559.5 Q268 550 251 533 Q248 530 243.5 529 Q239 528 235 526.5 Q231 525 229 521 Q227 517 229 510 Q271 508 306 519 Q341 530 377 542 Z " />
<glyph glyph-name="colon" unicode="&#x3a;" horiz-adv-x="247" d="M146 119 Q148 111 149 104 Q150 97 152 89 Q148 79 145 69.5 Q142 60 139 51 Q136 44 135 42 Q134 40 134 39 Q134 38 134.5 36.5 Q135 35 135 28 L131 16 Q126 9 119 5 Q112 1 105 -2 Q103 -4 99 -5.5 Q95 -7 93 -9 L90 -21 L77 -23 Q60 -27 48 -27 L36 -27 Q24 -16 17 -10 Q10 -4 2 1 Q-8 15 -9 21.5 Q-10 28 -12 34 Q-14 47 -17 51 L-31 65 L-19 74 L-30 93 Q-18 102 -12 106 Q-6 110 -2 114.5 Q2 119 7 126 Q12 133 23 149 L32 162 L45 155 Q49 152 62.5 149.5 Q76 147 86 145 Q103 140 118 137.5 Q133 135 142 127 L146 119 Z M201 399 Q199 384 197.5 377 Q196 370 196 363.5 Q196 357 197.5 348 Q199 339 203 320 L206 304 L191 301 Q186 299 174.5 291 Q163 283 154 278 Q140 270 127 260.5 Q114 251 101 250 Q85 258 79 262 Q73 266 67 271 Q62 281 58 290 Q54 299 49 308 Q46 315 45 317 Q44 319 43.5 319.5 Q43 320 41.5 321 Q40 322 35 327 L29 339 Q28 354 35 370 Q37 378 39 384 L32 395 L40 406 Q47 416 50 420.5 Q53 425 58 430 L67 438 Q83 439 92.5 439.5 Q102 440 112 443 Q129 439 134.5 435.5 Q140 432 145 428 Q156 420 161 420 L181 420 L179 404 L201 399 Z " />
<glyph glyph-name="semicolon" unicode="&#x3b;" horiz-adv-x="251" d="M40 149 Q46 144 60.5 137.5 Q75 131 90.5 124.5 Q106 118 120.5 113 Q135 108 141 107 Q152 87 153 71.5 Q154 56 158 39 Q153 34 151.5 22.5 Q150 11 149 6 Q148 -2 145.5 -3.5 Q143 -5 141 -12 Q140 -14 141.5 -18 Q143 -22 143 -24 Q141 -29 137.5 -29.5 Q134 -30 132 -35 Q128 -46 127 -48.5 Q126 -51 125 -51.5 Q124 -52 122.5 -53.5 Q121 -55 117 -65 Q110 -80 99.5 -94.5 Q89 -109 87 -123 Q80 -129 71 -137 Q62 -145 52.5 -153.5 Q43 -162 33 -169 Q23 -176 14 -179 Q5 -175 -14.5 -166 Q-34 -157 -51.5 -146 Q-69 -135 -78 -122 Q-87 -109 -76 -98 Q-58 -79 -44.5 -52.5 Q-31 -26 -21 4.5 Q-11 35 -3.5 67.5 Q4 100 11 130 Q15 126 19 127.5 Q23 129 27 132.5 Q31 136 34 141 Q37 146 40 149 Z M205 399 Q203 384 201.5 377 Q200 370 199.5 363.5 Q199 357 200.5 348 Q202 339 206 320 L210 304 L195 301 Q190 299 178 291 Q166 283 158 278 Q143 270 130.5 260.5 Q118 251 104 250 Q89 258 83 262 Q77 266 71 271 Q61 288 53 308 Q49 315 48.5 317 Q48 319 47 319.5 Q46 320 44.5 321 Q43 322 38 327 L33 339 Q31 347 33.5 355 Q36 363 38 370 Q42 378 42 384 L36 395 L44 406 Q51 416 54 420.5 Q57 425 62 430 L71 438 Q87 439 96 439.5 Q105 440 115 443 L125 442 Q133 439 138.5 435.5 Q144 432 149 428 Q160 420 165 420 L185 420 L183 404 L205 399 Z " />
<glyph glyph-name="less" unicode="&#x3c;" horiz-adv-x="640" d="M586 478 Q597 470 602.5 466.5 Q608 463 611.5 461 Q615 459 618.5 456 Q622 453 630 447 Q625 436 625 430 Q625 424 626 418.5 Q627 413 628.5 407 Q630 401 629 391 Q574 356 531.5 335.5 Q489 315 449.5 300 Q410 285 367.5 271.5 Q325 258 269 236 Q292 222 328.5 211.5 Q365 201 401.5 187.5 Q438 174 468 154 Q498 134 508 102 Q522 101 532.5 86 Q543 71 541 51 Q531 45 522.5 37.5 Q514 30 501 26 Q490 24 472.5 28 Q455 32 434.5 39 Q414 46 391.5 54 Q369 62 349 67 Q329 72 305.5 76 Q282 80 262 88 Q253 92 246.5 97.5 Q240 103 231 105 Q213 108 192.5 116.5 Q172 125 151 135 Q130 145 109.5 155 Q89 165 71 173 Q72 179 58 188 Q44 197 28 198 Q28 210 18.5 219.5 Q9 229 4 241 Q-7 269 12 294 Q31 319 69 324 Q81 320 87.5 320.5 Q94 321 105 316 Q123 328 148.5 339.5 Q174 351 198 346 Q201 354 209.5 354 Q218 354 220 363 Q261 370 300 385 Q339 400 376 417.5 Q413 435 447.5 452.5 Q482 470 514 484 Q528 480 540 484.5 Q552 489 565 488 Q562 485 564 484 Q566 483 570 482.5 Q574 482 578.5 481.5 Q583 481 586 478 Z " />
<glyph glyph-name="equal" unicode="&#x3d;" horiz-adv-x="601" d="M546 410 Q560 408 565 403 Q570 398 570 391 Q570 384 567 375.5 Q564 367 561 358 Q532 342 486.5 335.5 Q441 329 393 326.5 Q345 324 300.5 324.5 Q256 325 229 322 Q175 316 144 310.5 Q113 305 100 300 Q82 301 72.5 307 Q63 313 58.5 321.5 Q54 330 52.5 340.5 Q51 351 47 363 Q54 371 56 385 Q58 399 51 406 Q59 408 65.5 417.5 Q72 427 70 432 Q88 436 106.5 437.5 Q125 439 143 440 Q161 441 177.5 443 Q194 445 208 451 Q257 453 311 454.5 Q365 456 412 458 Q427 453 449.5 452.5 Q472 452 493 449.5 Q514 447 529.5 439 Q545 431 546 410 Z M488 217 Q506 213 509 205 Q512 197 507 187.5 Q502 178 491.5 168 Q481 158 472 150 Q463 152 453 146.5 Q443 141 435 135 Q407 138 377.5 135.5 Q348 133 323 131 Q318 131 317.5 127 Q317 123 314 122 Q285 131 252 129 Q219 127 183 121 Q147 115 110 108.5 Q73 102 36 101 Q25 109 19.5 120.5 Q14 132 12 145.5 Q10 159 10.5 173 Q11 187 11 201 Q14 212 22 218 Q30 224 38 229 Q63 230 83 232 Q103 234 121.5 236 Q140 238 158.5 240 Q177 242 199 243 Q212 246 244 249 Q271 251 320.5 253 Q370 255 454 255 Q453 246 459.5 242 Q466 238 473 235.5 Q480 233 485.5 229.5 Q491 226 488 217 Z " />
<glyph glyph-name="greater" unicode="&#x3e;" horiz-adv-x="650" d="M561 316 Q561 304 570.5 294.5 Q580 285 585 273 Q591 259 588.5 245 Q586 231 577 220 Q568 209 553.5 201 Q539 193 520 190 Q508 195 501.5 194 Q495 193 484 198 Q466 186 440.5 174.5 Q415 163 391 168 Q388 160 379.5 160 Q371 160 369 151 Q328 144 289 129 Q250 114 213 96.5 Q176 79 141.5 61 Q107 43 75 30 Q61 34 49 29.5 Q37 25 24 26 Q27 29 25 30 Q23 31 19 31.5 Q15 32 10.5 32.5 Q6 33 3 36 Q-8 43 -13.5 47 Q-19 51 -22.5 53 Q-26 55 -30 58 Q-34 61 -41 67 Q-37 77 -36.5 83.5 Q-36 90 -37 95.5 Q-38 101 -39.5 107 Q-41 113 -40 123 Q15 158 57 178.5 Q99 199 139 214 Q179 229 221.5 242.5 Q264 256 320 278 Q297 291 260.5 302 Q224 313 187.5 326.5 Q151 340 121 360 Q91 380 81 412 Q67 413 56.5 428 Q46 443 48 463 Q58 469 66.5 476.5 Q75 484 88 488 Q99 490 116.5 486 Q134 482 154.5 475 Q175 468 197.5 460 Q220 452 240 447 Q260 442 283.5 438 Q307 434 327 426 Q336 422 342.5 416.5 Q349 411 358 409 Q376 406 396.5 397.5 Q417 389 438 379 Q459 369 479.5 358.5 Q500 348 518 341 Q517 335 531 326 Q545 317 561 316 Z " />
<glyph glyph-name="question" unicode="&#x3f;" horiz-adv-x="570" d="M604 689 Q611 681 616 672.5 Q621 664 631 660 Q626 635 628 612.5 Q630 590 631 564 Q617 488 569 442.5 Q521 397 458 380 Q458 370 452 366 Q432 363 422 356 Q412 349 403.5 341 Q395 333 383.5 325.5 Q372 318 348 314 Q343 303 334.5 300 Q326 297 317.5 295.5 Q309 294 301 290.5 Q293 287 289 274 L232 221 Q208 227 190 226.5 Q172 226 160 228 Q148 230 141.5 240 Q135 250 133 278 Q134 288 140.5 291.5 Q147 295 149 303 Q149 325 155.5 335.5 Q162 346 172 353 Q182 360 193 368.5 Q204 377 212 395 Q228 402 247.5 417.5 Q267 433 283 448 Q308 461 325.5 471 Q343 481 358 491 Q373 501 388 513 Q403 525 424 543 Q419 556 405.5 557.5 Q392 559 375 557 Q346 566 318.5 568.5 Q291 571 254 573 Q240 572 233.5 570.5 Q227 569 214 571 Q208 566 200.5 563 Q193 560 184.5 557.5 Q176 555 167.5 552.5 Q159 550 152 546 Q132 551 120 565 Q108 579 91 587 Q89 594 94 596 Q99 598 97 608 Q87 613 87.5 616 Q88 619 81 624 Q85 640 92.5 651.5 Q100 663 109 673.5 Q118 684 127 694 Q136 704 143 717 Q159 721 170.5 729.5 Q182 738 193 748 Q247 754 298 751.5 Q349 749 399.5 741 Q450 733 500.5 719 Q551 705 604 689 Z M220 114 Q218 99 216.5 92 Q215 85 215 79 Q215 73 216.5 64 Q218 55 222 36 L225 20 L211 17 Q206 16 194.5 8 Q183 0 174 -5 Q160 -13 147.5 -22.5 Q135 -32 122 -32 Q107 -24 101 -20 Q95 -16 89 -12 Q84 -3 80 6 Q76 15 71 24 Q68 31 67 33 Q66 35 65.5 36 Q65 37 63.5 37.5 Q62 38 57 43 L51 55 Q50 63 52.5 70.5 Q55 78 57 85 Q58 88 59.5 92.5 Q61 97 61 99 L55 109 L63 120 Q69 131 72 135 Q75 139 80 144 L89 151 Q116 152 133 156 Q150 153 155 149.5 Q160 146 165 142 Q176 134 181 134 L201 134 L199 119 L220 114 Z " />
<glyph glyph-name="at" unicode="&#x40;" horiz-adv-x="750" d="M725 452 Q731 414 728.5 376 Q726 338 717 295 Q709 279 690 258.5 Q671 238 649 219 Q627 200 606 186.5 Q585 173 575 172 Q557 169 540 171 Q523 173 508 178 Q505 176 501.5 173.5 Q498 171 495 168 Q485 166 469 164.5 Q453 163 442 157 Q407 152 370.5 152.5 Q334 153 302 157 Q294 162 287 165.5 Q280 169 269 170 Q252 177 239.5 190 Q227 203 218.5 218 Q210 233 205 250 Q200 267 199 282 Q204 307 219 326.5 Q234 346 250 365 Q260 376 270 382 Q280 388 286 397 Q299 401 308.5 408 Q318 415 327 421.5 Q336 428 345.5 434.5 Q355 441 368 446 Q376 456 392 462.5 Q408 469 415 481 Q420 477 425 479.5 Q430 482 435 484 Q442 486 446 481.5 Q450 477 452 483 Q456 478 458.5 477.5 Q461 477 464 476 Q469 481 472.5 485 Q476 489 478 494 L490 505 L509 518 L519 519 L536 503 Q538 501 541 496 Q544 491 545 483 Q545 476 545.5 473.5 Q546 471 548 465 L548 453 Q547 448 547 445 Q547 442 547 434 Q547 432 546.5 429.5 Q546 427 546 424 Q533 385 526.5 354.5 Q520 324 523 310 Q524 303 525.5 294 Q527 285 531 277.5 Q535 270 541 264.5 Q547 259 557 259 Q565 260 574 265 Q582 270 592 278.5 Q602 287 613 304 L607 320 Q613 330 615 340 Q617 350 617 360.5 Q617 371 616.5 383 Q616 395 619 409 Q610 432 597 461 Q584 490 568 518 Q552 546 533.5 568.5 Q515 591 494 600 Q489 602 486.5 600.5 Q484 599 481.5 597.5 Q479 596 476 595.5 Q473 595 467 598 Q407 553 346.5 509.5 Q286 466 236 409 Q188 366 150 306.5 Q112 247 92 171 Q95 169 103 165 Q115 160 126 158 Q137 156 148 152 L184 132 Q188 124 188 122 Q211 114 231 111 Q251 108 270 100 Q320 98 358 96.5 Q396 95 434 94 Q468 94 495.5 98 Q523 102 549 106 Q551 113 550.5 115.5 Q550 118 554 123 Q563 117 572.5 105 Q582 93 591 80 Q600 67 609 55 Q618 43 627 37 Q623 30 624 25 Q625 20 622 13 Q598 -7 566.5 -14 Q535 -21 499 -21.5 Q463 -22 424 -19.5 Q385 -17 348 -20 Q328 -15 316 -14 Q304 -13 287 -10 Q256 -9 242 -4 Q233 -2 224 -2 Q215 -2 207 0 Q182 7 163 20 Q142 27 120 40 Q98 53 77.5 68.5 Q57 84 39.5 101.5 Q22 119 10 134 Q10 150 7.5 161.5 Q5 173 2.5 183.5 Q0 194 -1 205 Q-2 216 2 231 Q-1 240 -4 248.5 Q-7 257 -10 265 Q-8 308 8 342 Q24 376 46.5 404.5 Q69 433 96 457 Q123 481 148 504 Q153 499 155.5 502.5 Q158 506 168 504 Q168 510 173 518 Q178 526 185.5 533.5 Q193 541 202 546 Q211 551 219 549 Q229 568 249.5 581 Q270 594 291 607.5 Q312 621 329 636.5 Q346 652 350 676 L369 676 Q357 694 358 712 Q359 730 370.5 742 Q382 754 402 757 Q422 760 448 748 Q454 747 457.5 748.5 Q461 750 464 752 Q467 754 469.5 756 Q472 758 476 759 Q522 740 558 712.5 Q594 685 622 650 Q621 648 618.5 646.5 Q616 645 614 643.5 Q612 642 611.5 640 Q611 638 615 635 Q648 595 675 549 Q702 503 725 452 Z M349 272 Q368 270 387.5 271.5 Q407 273 427 275 Q414 299 417 330 Q418 334 418.5 337 Q419 340 419 343 Q420 347 421 351.5 Q422 356 423 362 Q414 357 405.5 352 Q397 347 392 340 Q374 332 364 321 Q354 310 343 299 Q344 294 342.5 291.5 Q341 289 339 286 Q341 281 343.5 278 Q346 275 349 272 Z " />
<glyph glyph-name="A" unicode="A" horiz-adv-x="719" d="M-26 95 L-13 105 L-12 126 Q13 187 39.5 243 Q66 299 95 358 Q104 377 113.5 396 Q123 415 132 435 Q131 439 131 443.5 Q131 448 133 454 Q147 474 155.5 490 Q164 506 172 523 Q181 543 191.5 563 Q202 583 218 602 L225 612 L236 611 Q240 613 244.5 614.5 Q249 616 256 616 L274 613 Q307 628 332.5 656.5 Q358 685 384 725 L396 742 L412 732 Q417 729 428 726 Q439 723 451 719 Q472 714 492 707.5 Q512 701 523 690 L528 681 Q530 670 531.5 661 Q533 652 535 643 Q539 622 542 601.5 Q545 581 546 556 Q551 536 555.5 515.5 Q560 495 564 475 Q569 446 575 419.5 Q581 393 591 369 Q601 369 603 368 Q615 373 631 374 L644 375 L648 363 Q650 360 653 357 Q656 354 660 351 Q676 350 683.5 344.5 Q691 339 696 334 Q698 332 701 329.5 Q704 327 706 326 L724 319 L714 300 Q703 279 680.5 259 Q658 239 630 226 Q632 219 632.5 213 Q633 207 635 199 Q639 179 641.5 157.5 Q644 136 641 113 Q631 87 617.5 66.5 Q604 46 585.5 29.5 Q567 13 544 2.5 Q521 -8 496 -9 Q482 -6 475.5 -2 Q469 2 464 6 Q456 12 451 14 L438 20 L442 35 Q445 43 441.5 49 Q438 55 427 65 Q423 68 420 71.5 Q417 75 413 79 L393 102 L426 111 Q456 119 466 131.5 Q476 144 474 176 Q449 181 433 177.5 Q417 174 401 170 Q378 164 356 159.5 Q334 155 308 155 Q291 155 272 158 L261 159 L258 170 Q258 172 255.5 174.5 Q253 177 251 179 Q246 185 239 195 Q232 205 236 220 Q229 231 228 243 Q224 235 221.5 227.5 Q219 220 217 213 L213 200 L200 198 Q198 196 196.5 192 Q195 188 196 186 L200 175 L190 166 Q188 163 185 161 Q182 159 180 157 Q178 146 174.5 136 Q171 126 167 116 Q162 100 157.5 85 Q153 70 153 55 L149 42 Q144 34 136.5 30 Q129 26 122 23 Q112 19 108 15 L105 2 L90 0 Q77 -3 71.5 -4 Q66 -5 59 -5 L46 -4 Q34 8 26.5 14.5 Q19 21 9 26 L3 34 Q-1 42 -2 48.5 Q-3 55 -5 62 Q-7 75 -11 80 L-26 95 Z M293 355 Q279 335 266 313 Q273 314 279.5 314 Q286 314 293 315 Q328 317 358 320 Q388 323 423 330 Q415 367 405.5 405.5 Q396 444 385 483 L380 473 Q355 446 332 415 Q309 384 294 356 L293 355 Z " />
<glyph glyph-name="B" unicode="B" horiz-adv-x="703" d="M83 483 Q41 500 13.5 531 Q-14 562 -31 604 Q-21 631 1 649.5 Q23 668 50.5 681 Q78 694 109 702 Q140 710 169 716 Q175 714 175 716 Q175 718 180 714 Q216 725 263 735.5 Q310 746 363 743 Q370 747 380 747.5 Q390 748 401 748 Q412 748 422 748.5 Q432 749 439 752 Q445 745 457 743.5 Q469 742 482 733 Q486 732 482 736.5 Q478 741 483 743 Q496 743 506 737 Q516 731 524.5 723.5 Q533 716 540.5 710 Q548 704 557 704 Q566 693 578.5 683.5 Q591 674 602.5 664 Q614 654 621.5 642 Q629 630 629 615 Q628 609 633 608 Q638 607 640 602 Q641 565 628.5 538 Q616 511 597 488.5 Q578 466 556.5 446 Q535 426 517 403 Q529 388 544.5 375.5 Q560 363 576 351 Q592 339 606.5 325.5 Q621 312 631 295 Q634 289 644 287 Q647 275 652.5 262.5 Q658 250 663 238.5 Q668 227 669 218 Q670 209 664 203 Q671 199 672 190.5 Q673 182 672 177 Q650 150 642 139 Q634 128 630 123 Q626 118 622 114 Q618 110 604 98 Q551 66 493.5 40.5 Q436 15 374 6 Q369 -1 359.5 -5.5 Q350 -10 338 -13 Q326 -16 312.5 -18 Q299 -20 288 -22 Q283 -20 282.5 -15.5 Q282 -11 277 -9 Q276 -21 266.5 -21.5 Q257 -22 243 -17 Q229 -12 214 -3 Q199 6 188 14 Q183 5 175.5 -5 Q168 -15 160 -19 Q146 -17 139.5 -16 Q133 -15 127 -21 Q119 -17 115 -12.5 Q111 -8 107 -3.5 Q103 1 98 4.5 Q93 8 83 11 Q85 16 80 26.5 Q75 37 66 39 Q71 47 62 59.5 Q53 72 48 88 Q49 95 49.5 102.5 Q50 110 51.5 116.5 Q53 123 56 128 Q59 133 66 135 Q65 148 58 160 Q67 167 70 177.5 Q73 188 75.5 199 Q78 210 82 220.5 Q86 231 95 238 Q93 241 91 243 Q89 245 89 250 Q104 275 110 292.5 Q116 310 119.5 326.5 Q123 343 127 362 Q131 381 143 410 Q142 428 147 442 Q152 456 157.5 469.5 Q163 483 166 498 Q169 513 165 533 Q148 531 140.5 521 Q133 511 131 494 Q122 486 108 486.5 Q94 487 83 483 Z M523 290 Q485 311 453.5 315 Q422 319 393.5 314.5 Q365 310 339 302 Q313 294 287 290 Q274 256 260 215 Q246 174 233 135 Q269 140 299 150 Q329 160 357 172.5 Q385 185 412 197.5 Q439 210 468 221 Q471 233 481 240 Q491 247 501 253.5 Q511 260 518 268 Q525 276 523 290 Z M453 603 Q391 605 331 592 Q271 579 230 554 Q250 537 271.5 524 Q293 511 304 489 Q352 508 388 537.5 Q424 567 453 603 Z " />
<glyph glyph-name="C" unicode="C" horiz-adv-x="626" d="M93 87 Q64 109 45.5 142 Q27 175 16.5 212 Q6 249 2.5 288.5 Q-1 328 0 364 Q9 391 22 413.5 Q35 436 51 456.5 Q67 477 84.5 495.5 Q102 514 119 533 Q125 533 130 530 Q134 541 142 549 Q150 557 159 563.5 Q168 570 177 576.5 Q186 583 192 592 Q217 598 236.5 609 Q256 620 274 633 Q292 646 311 657 Q330 668 355 674 Q364 684 377.5 691 Q391 698 404.5 704 Q418 710 430.5 717 Q443 724 451 736 Q457 728 468 730.5 Q479 733 488 736 Q494 737 498 734 Q502 731 505.5 727.5 Q509 724 511.5 723 Q514 722 517 729 Q525 728 521.5 722 Q518 716 517 714 Q527 716 533.5 710.5 Q540 705 554 703 Q559 698 557 695 Q555 692 554 685 Q590 674 600 650.5 Q610 627 602 601.5 Q594 576 572.5 554.5 Q551 533 525 526 Q494 518 467.5 510 Q441 502 416.5 492 Q392 482 370.5 468.5 Q349 455 333 437 Q305 429 282.5 415 Q260 401 240.5 384 Q221 367 203 348.5 Q185 330 167 312 Q167 295 161 286 Q155 277 148 268 Q150 249 156.5 235.5 Q163 222 170 208 Q250 184 339.5 178.5 Q429 173 517 172 Q526 160 537.5 149.5 Q549 139 558.5 128 Q568 117 573.5 102.5 Q579 88 576 68 Q559 51 539 35.5 Q519 20 499 5 Q490 4 477.5 5 Q465 6 451.5 6 Q438 6 424.5 4.5 Q411 3 399 -2 Q336 0 270 13.5 Q204 27 148 46 Q137 59 125 70.5 Q113 82 93 87 Z " />
<glyph glyph-name="D" unicode="D" horiz-adv-x="603" d="M98 -11 Q69 -4 53.5 12.5 Q38 29 30.5 51.5 Q23 74 20.5 101 Q18 128 15 157 Q19 170 25.5 179 Q32 188 31 204 Q42 236 51 266 Q60 296 63 328 Q69 337 75 340 Q83 397 77 457 Q71 517 57 568 Q58 579 60 584.5 Q62 590 60 594 Q58 603 66 603 Q74 603 82 603 Q82 621 75.5 638.5 Q69 656 63 679 Q71 697 74 714 Q77 731 85 745 Q117 735 148 722 Q179 709 209 696.5 Q239 684 268 672.5 Q297 661 325 654 Q368 623 413.5 592.5 Q459 562 496.5 525.5 Q534 489 559 442 Q584 395 588 331 Q586 325 585 321 Q584 317 583 313 Q582 309 582 304 Q582 299 582 290 Q546 227 491 184 Q436 141 371 108 Q306 75 235.5 47.5 Q165 20 98 -11 Z M196 556 Q187 556 183 552 Q195 507 201 467 Q207 427 207.5 387 Q208 347 203 305 Q198 263 189 214 Q202 215 212 219 Q222 223 232.5 228 Q243 233 254.5 237 Q266 241 281 242 Q285 250 291.5 254.5 Q298 259 303 264 Q328 274 353 285 Q378 296 399 310 Q420 324 437 342 Q454 360 465 385 Q457 400 445.5 410.5 Q434 421 421.5 431.5 Q409 442 397.5 453.5 Q386 465 379 480 Q363 482 351 488.5 Q339 495 328 501.5 Q317 508 304.5 514 Q292 520 275 521 Q249 535 228 540.5 Q207 546 196 556 Z " />
<glyph glyph-name="E" unicode="E" horiz-adv-x="642" d="M56 34 Q48 42 44.5 53 Q41 64 28 71 Q26 86 22.5 105.5 Q19 125 15.5 145.5 Q12 166 10.5 186.5 Q9 207 12 224 Q14 233 18.5 241 Q23 249 27.5 256.5 Q32 264 34.5 272 Q37 280 35 288 Q41 289 42.5 294.5 Q44 300 52 298 Q59 320 67 339 Q75 358 84 376 Q93 394 102.5 412.5 Q112 431 120 454 Q103 470 95.5 488.5 Q88 507 84 526 Q80 545 78 564.5 Q76 584 70 604 Q82 622 99 633.5 Q116 645 136.5 652.5 Q157 660 181 664.5 Q205 669 232 675 Q280 690 318 698.5 Q356 707 392 712.5 Q428 718 467 722.5 Q506 727 557 736 Q558 733 560.5 733 Q563 733 567 733 Q570 726 578 726 Q578 729 577.5 731.5 Q577 734 577 736 Q579 736 582.5 735 Q586 734 588.5 733 Q591 732 593 733.5 Q595 735 594 740 Q606 719 625 705.5 Q644 692 667 682 Q668 673 667.5 669 Q667 665 666 661.5 Q665 658 665 653.5 Q665 649 667 641 Q651 614 630.5 599 Q610 584 587 576 Q564 568 538.5 564 Q513 560 486.5 555.5 Q460 551 433 543 Q406 535 380 519 Q372 522 365.5 521.5 Q359 521 352 519 Q345 517 336.5 515 Q328 513 316 515 Q308 508 297.5 505 Q287 502 276 499 Q281 488 280.5 477 Q280 466 283 458 Q325 454 376 458.5 Q427 463 476 465 Q477 460 475 458 Q473 456 473 451 Q482 445 490 436 Q498 427 506.5 418.5 Q515 410 524 404.5 Q533 399 545 400 Q550 390 552 379 Q554 368 549 356 Q529 343 510 329.5 Q491 316 470.5 305 Q450 294 426 287 Q402 280 374 281 Q369 281 365.5 281 Q362 281 357 285 Q347 280 330.5 281.5 Q314 283 303 278 Q289 283 270.5 283 Q252 283 238 288 Q220 262 204 233.5 Q188 205 176 173 Q217 167 244 168 Q271 169 295 172 Q319 175 344.5 178 Q370 181 407 180 Q432 192 464.5 196.5 Q497 201 525 210 Q535 207 542 198.5 Q549 190 555.5 181.5 Q562 173 569 167 Q576 161 587 163 Q592 158 593.5 151 Q595 144 596.5 138 Q598 132 601 128.5 Q604 125 612 126 Q593 87 569.5 66 Q546 45 516.5 33.5 Q487 22 450.5 16.5 Q414 11 369 3 Q358 1 350.5 3.5 Q343 6 335 6 Q307 1 268.5 -4 Q230 -9 191 -8 Q152 -7 116 2 Q80 11 56 34 Z " />
<glyph glyph-name="F" unicode="F" horiz-adv-x="589" d="M44 203 Q14 220 -2 251 Q-18 282 -20 310 Q-17 334 -7.5 347.5 Q2 361 15 369.5 Q28 378 42 382.5 Q56 387 69 390 L84 385 Q89 380 94.5 376 Q100 372 105 368 Q115 372 117.5 380 Q120 388 123 396 Q126 407 130 418 Q134 429 140 440 Q139 449 141 456 Q143 463 145 468 Q139 473 136.5 473.5 Q134 474 128 476 Q125 476 122 476.5 Q119 477 115 478 Q100 489 95.5 496.5 Q91 504 86 512 Q81 520 77 526 Q73 532 68 537 L56 545 L62 557 Q64 559 64 562.5 Q64 566 60 573 Q57 586 59 592 L61 604 Q71 617 72 619 L82 629 Q105 635 129 642.5 Q153 650 176 658 Q199 666 223 674 Q247 682 271 688 Q279 695 288.5 696.5 Q298 698 306 699 Q313 699 319 700 Q325 701 328 705 Q345 711 361 715 Q391 723 440 734 Q489 745 550 750 L571 751 Q577 750 583 750.5 Q589 751 595 751 Q647 751 664 719 Q674 714 682 706.5 Q690 699 697 692 Q702 687 706 683.5 Q710 680 713 678 L721 670 Q732 646 725 623 Q719 611 712 609 Q705 607 698 605 L685 598 Q672 599 665.5 599 Q659 599 651 599 Q621 599 581.5 595.5 Q542 592 501 585.5 Q460 579 421 569.5 Q382 560 353 549 Q345 543 332 538 Q329 537 323 533 Q324 525 323 517.5 Q322 510 320 503 Q319 498 318.5 492.5 Q318 487 317 481 Q296 456 297 422 L292 412 Q288 408 285.5 400.5 Q283 393 285 385 L289 373 Q309 375 328.5 377.5 Q348 380 370 383 Q398 388 426.5 391.5 Q455 395 486 395 L525 395 L516 386 L527 385 L521 369 Q528 366 531.5 364.5 Q535 363 538 361 L545 351 Q550 348 554 341.5 Q558 335 559 324 L556 314 L509 254 L503 246 L493 249 Q474 250 457 245 Q449 243 440 240.5 Q431 238 422 238 Q398 234 382 231.5 Q366 229 350 227 Q328 223 307.5 219.5 Q287 216 269 209 Q258 208 256 208.5 Q254 209 252 209 Q242 209 232 206 Q222 203 213 200 Q207 195 205 189.5 Q203 184 201 178 Q199 171 195.5 164.5 Q192 158 187 151 L188 133 Q179 131 179 130.5 Q179 130 178 130 Q178 122 175.5 115 Q173 108 171 102 Q169 98 168 95 Q167 92 167 89 Q177 71 172 48 Q168 29 157 14.5 Q146 0 131 -8 Q115 -10 107.5 -7 Q100 -4 92 -1 Q87 1 82 2.5 Q77 4 72 5 L60 15 Q57 21 53 26.5 Q49 32 45 38 Q40 45 35 52 Q30 59 26 68 Q19 103 23.5 126.5 Q28 150 36 173 Q38 181 40 188 Q42 195 44 203 Z " />
<glyph glyph-name="G" unicode="G" horiz-adv-x="808" d="M0 237 Q0 248 3 257 Q6 266 4 280 Q35 346 74.5 402.5 Q114 459 169 502 Q178 509 183.5 516.5 Q189 524 194.5 531 Q200 538 207 543.5 Q214 549 225 551 Q250 580 285 604 Q320 628 358 650 Q396 672 434.5 695 Q473 718 504 745 Q515 738 521.5 740.5 Q528 743 535 741 Q544 722 558.5 714.5 Q573 707 588.5 699.5 Q604 692 617.5 681.5 Q631 671 638 653 Q631 653 631.5 648 Q632 643 634 637 Q636 631 636 626 Q636 621 627 621 Q627 614 634 614 Q641 614 641 607 Q641 601 638.5 597.5 Q636 594 638 586 Q614 570 584.5 555.5 Q555 541 522.5 525 Q490 509 456.5 490.5 Q423 472 390 448 Q357 424 323.5 395 Q290 366 259 333.5 Q228 301 201 266.5 Q174 232 155 199 Q157 194 160.5 190 Q164 186 166 181 Q204 179 237 181.5 Q270 184 303 177 Q307 180 308 185 Q309 190 314 192 Q382 199 441 214.5 Q500 230 561 246 Q543 253 529 257 Q523 263 529.5 267.5 Q536 272 540 277 Q524 286 513.5 301 Q503 316 501 340 Q508 346 508 354 Q508 362 501 367 Q496 369 495 367 Q494 365 493.5 363 Q493 361 491.5 359 Q490 357 486 359 Q487 370 491 377 Q495 384 497 394 L580 449 Q593 439 612 428 Q631 417 652 406 Q673 395 695 383.5 Q717 372 736 361 Q754 353 767 341.5 Q780 330 792 317.5 Q804 305 816 293 Q828 281 845 273 Q843 257 847 247 Q851 237 849 223 Q830 189 803 165.5 Q776 142 742.5 125 Q709 108 671 96.5 Q633 85 593 74.5 Q553 64 512.5 52.5 Q472 41 433 26 Q416 26 404 25 Q392 24 381 22 Q370 20 359 18 Q348 16 335 15 Q330 16 328.5 13 Q327 10 324 8 Q304 5 288 5 Q272 5 261 5 Q247 5 232 1 Q217 -3 204 -2 Q114 2 63 62 Q12 122 7 227 Q8 232 5 233.5 Q2 235 0 237 Z " />
<glyph glyph-name="H" unicode="H" horiz-adv-x="712" d="M15 34 Q12 33 11 36 Q10 39 10.5 42 Q11 45 13.5 47 Q16 49 20 47 Q7 63 3.5 76 Q0 89 -10 108 Q-7 111 -6 116.5 Q-5 122 -3.5 127 Q-2 132 0.5 134.5 Q3 137 7 133 Q5 144 7 151 Q9 158 11.5 164 Q14 170 15 176 Q16 182 12 190 Q31 216 37 246.5 Q43 277 44 302 Q53 311 59.5 326 Q66 341 69 357 Q72 373 72 388.5 Q72 404 68 413 Q69 417 72.5 417.5 Q76 418 81 417 Q88 457 90.5 506 Q93 555 100.5 600.5 Q108 646 125 680.5 Q142 715 179 725 Q186 700 197.5 681 Q209 662 222.5 644 Q236 626 250 608 Q264 590 276 568 Q275 545 271.5 515 Q268 485 262.5 454 Q257 423 251.5 394 Q246 365 241 345 Q242 340 248 338.5 Q254 337 250 327 Q279 334 310.5 340.5 Q342 347 372.5 353.5 Q403 360 432.5 369 Q462 378 488 391 Q494 439 503 486 Q512 533 505 581 Q511 586 515 593 Q519 600 527 602 Q521 625 522 650.5 Q523 676 530.5 698 Q538 720 553 736.5 Q568 753 590 758 Q603 739 613 717 Q623 695 633 672.5 Q643 650 654.5 630 Q666 610 684 596 Q687 561 689 524.5 Q691 488 692 449 Q683 404 671.5 361.5 Q660 319 655 271 Q647 262 642 249.5 Q637 237 632.5 224.5 Q628 212 622 200 Q616 188 607 180 Q611 166 608.5 153.5 Q606 141 615 124 Q617 93 607.5 72.5 Q598 52 581.5 37.5 Q565 23 543.5 14.5 Q522 6 501 -1 Q491 5 482.5 11.5 Q474 18 462 21 L467 30 Q447 50 432.5 72.5 Q418 95 419 124 Q419 125 421 137.5 Q423 150 425.5 164 Q428 178 430.5 190.5 Q433 203 433 204 Q405 201 375 191 Q345 181 316.5 168.5 Q288 156 263.5 142.5 Q239 129 224 120 Q224 117 219 103 Q214 89 207 73.5 Q200 58 191.5 46 Q183 34 174 35 Q176 30 178 27.5 Q180 25 178 18 Q161 13 147.5 5 Q134 -3 120 -8.5 Q106 -14 89.5 -13.5 Q73 -13 50 -1 Q50 6 44 11.5 Q38 17 31.5 21 Q25 25 20 28 Q15 31 15 34 Z " />
<glyph glyph-name="I" unicode="I" horiz-adv-x="528" d="M17 -12 Q3 -3 -5.5 11 Q-14 25 -19.5 41 Q-25 57 -28.5 74.5 Q-32 92 -36 108 Q-36 122 -30 128.5 Q-24 135 -17 141 Q7 142 26 145 Q45 148 63 151 Q81 154 99 156.5 Q117 159 138 159 Q153 190 166 218.5 Q179 247 191 273 Q197 298 206.5 319.5 Q216 341 225 360.5 Q234 380 241 399.5 Q248 419 250 441 Q262 476 271.5 505.5 Q281 535 286 576 Q248 570 225 564.5 Q202 559 192 554 Q172 555 160.5 562 Q149 569 142 579 Q135 589 130 602 Q125 615 118 629 Q122 638 120 655.5 Q118 673 108 681 Q116 683 120 694.5 Q124 706 121 712 Q138 717 157 718.5 Q176 720 194.5 721.5 Q213 723 230 725.5 Q247 728 259 736 Q311 738 367.5 740 Q424 742 472 745 Q490 739 513.5 739 Q537 739 560.5 736 Q584 733 602.5 723 Q621 713 628 688 Q643 686 650.5 680 Q658 674 660 665.5 Q662 657 661.5 646.5 Q661 636 661 626 Q645 614 620.5 606.5 Q596 599 567 594.5 Q538 590 506.5 588.5 Q475 587 445 586 Q440 553 427.5 508.5 Q415 464 402 421.5 Q389 379 379.5 345.5 Q370 312 371 302 Q361 279 354.5 263 Q348 247 342.5 233 Q337 219 331.5 205.5 Q326 192 318 175 L386 175 Q388 164 395 160 Q402 156 410 153 Q418 150 424.5 145.5 Q431 141 431 131 Q450 126 455 116 Q460 106 457.5 94.5 Q455 83 447.5 71 Q440 59 433 50 Q424 52 416 45.5 Q408 39 401 31 Q372 35 344 32 Q316 29 292 27 Q287 26 288 21.5 Q289 17 286 15 Q255 25 222.5 23 Q190 21 156.5 13.5 Q123 6 88 -2.5 Q53 -11 17 -12 Z " />
<glyph glyph-name="J" unicode="J" horiz-adv-x="685" d="M326 18 Q311 16 297.5 13 Q284 10 270 6 Q264 4 258 3 Q252 2 245 0 Q227 4 210.5 6 Q194 8 181 8 L166 12 Q154 16 148 18.5 Q142 21 136.5 22.5 Q131 24 123.5 25 Q116 26 102 28 Q85 21 69 21 Q58 21 46 24.5 Q34 28 22 38.5 Q10 49 -1 67.5 Q-12 86 -20 115 Q-17 138 -13 155 Q-9 172 -5 182 L3 191 Q21 198 44 198 Q66 198 87 191 Q108 184 129 176 Q138 172 142 170 Q146 168 148 167 Q150 166 153.5 166 Q157 166 166 166 Q171 166 175.5 166.5 Q180 167 185 168 L197 167 Q204 163 214 163 Q221 163 228.5 165 Q236 167 244 169 Q252 172 258 173 Q264 174 269 176 L279 185 Q289 189 294.5 194 Q300 199 304 205.5 Q308 212 311.5 219 Q315 226 321 234 Q326 240 330.5 246 Q335 252 340 257 L340 267 Q356 304 368 342 Q380 380 389 418 Q398 456 404.5 492 Q411 528 416 557 Q413 557 410 557.5 Q407 558 405 558 Q375 558 356 557 Q337 556 321 554 Q305 552 287.5 548.5 Q270 545 243 540 L226 537 Q207 528 189.5 520.5 Q172 513 153 513 Q123 513 101 537 Q78 551 75 577 Q70 586 71 594 Q67 608 66.5 619.5 Q66 631 66 641 L67 658 L82 658 Q88 664 90.5 667 Q93 670 94 674 L97 684 L107 685 Q128 688 150 692 Q172 696 195 701 Q218 705 234.5 708 Q251 711 266 712.5 Q281 714 297 714.5 Q313 715 334 715 Q342 715 348.5 714.5 Q355 714 362 714 Q366 719 370 720 Q374 721 376 721 Q383 720 386.5 719 Q390 718 392 717 Q426 723 454.5 724.5 Q483 726 506 726 Q517 726 528 726 Q539 726 549 725 L587 725 L614 725 Q619 726 623.5 726 Q628 726 633 726 Q643 726 648.5 726 Q654 726 658 725.5 Q662 725 666 724.5 Q670 724 677 723 Q694 720 708 718 Q722 716 736 716 L755 717 L758 705 L767 692 Q770 686 775 681 Q780 676 786 671 Q798 660 809.5 643.5 Q821 627 818 596 L809 584 Q805 582 801.5 579 Q798 576 794 572 L784 563 Q771 562 762 561.5 Q753 561 742 561 Q724 561 705.5 562 Q687 563 667 564 Q656 565 650 565 Q644 565 639 565 Q634 565 627.5 564.5 Q621 564 611 564 Q601 564 596.5 564 Q592 564 584 563 Q582 531 576.5 507.5 Q571 484 563 458 Q544 360 516.5 273 Q489 186 455 116 Q423 82 394 55.5 Q365 29 329 18 L326 18 Z " />
<glyph glyph-name="K" unicode="K" horiz-adv-x="795" d="M20 183 Q21 187 21.5 189 Q22 191 18 194 Q16 201 21 203 Q26 205 31 207 Q36 267 51.5 316.5 Q67 366 85.5 413 Q104 460 122.5 507.5 Q141 555 153 611 Q166 624 174.5 642 Q183 660 191.5 678.5 Q200 697 211.5 714 Q223 731 243 742 Q252 741 259.5 738.5 Q267 736 274 733 Q281 730 289 728 Q297 726 306 726 Q310 721 313 714.5 Q316 708 321 703 L339 706 Q352 695 362 678.5 Q372 662 376 644.5 Q380 627 375 610.5 Q370 594 352 585 Q353 579 352 576 Q351 573 349.5 570.5 Q348 568 348 565.5 Q348 563 352 559 Q341 550 332 536.5 Q323 523 317 508 Q311 493 307.5 478 Q304 463 303 450 Q332 480 371 506 Q410 532 439 555 Q462 571 479.5 585.5 Q497 600 515 612.5 Q533 625 552.5 636.5 Q572 648 592 662 Q602 666 607.5 664 Q613 662 618 659 Q619 666 615 667.5 Q611 669 612 677 Q629 682 642.5 689 Q656 696 671 702 Q681 691 691 678.5 Q701 666 718 665 Q724 652 732.5 645.5 Q741 639 749.5 633 Q758 627 764 618.5 Q770 610 771 592 Q767 584 761.5 574.5 Q756 565 752 551 Q728 529 703.5 512.5 Q679 496 653.5 481 Q628 466 601.5 450 Q575 434 548 413 Q542 404 533 397 Q524 390 514.5 383.5 Q505 377 496.5 370 Q488 363 483 353 Q479 353 476 352.5 Q473 352 469 351 Q465 343 457.5 338 Q450 333 447 325 Q465 286 494 266 Q523 246 559 237 Q595 228 637 227 Q679 226 724 226 Q729 227 728.5 231.5 Q728 236 734 235 Q749 230 759 223 Q769 216 778 208 Q787 200 795.5 191.5 Q804 183 815 174 Q813 127 787.5 97.5 Q762 68 720 50 Q662 48 619 53 Q576 58 534 75 Q531 76 528.5 81 Q526 86 524 88 Q516 93 506 92 Q496 91 489 94 Q480 98 459.5 112 Q439 126 422 138 Q401 155 381.5 171.5 Q362 188 347 208 Q344 213 338.5 213 Q333 213 328 216 Q293 194 269.5 161.5 Q246 129 224 95.5 Q202 62 177.5 32.5 Q153 3 116 -13 Q105 -13 97 -9.5 Q89 -6 82 -0.5 Q75 5 68 10 Q61 15 52 17 Q52 31 46.5 43.5 Q41 56 35.5 66.5 Q30 77 27.5 87 Q25 97 33 107 Q22 116 12 122 Q19 129 18.5 135 Q18 141 15 147 Q12 153 10.5 159.5 Q9 166 14 174 Q18 175 17.5 178 Q17 181 20 183 Z " />
<glyph glyph-name="L" unicode="L" horiz-adv-x="648" d="M57 37 Q53 41 50 46.5 Q47 52 45 61 Q31 78 23 100 Q15 122 12 145.5 Q9 169 11 193 Q13 217 18 238 Q21 248 23 259 Q28 278 33 296.5 Q38 315 48 327 Q44 338 49 351 Q54 364 59 375 Q61 378 62 380.5 Q63 383 64 385 Q76 420 87.5 452.5 Q99 485 110 515 Q130 570 148.5 623 Q167 676 182 736 Q190 742 196 744 Q198 745 201 746 Q204 747 208 747 Q229 736 257.5 726.5 Q286 717 306 717 L323 702 Q336 687 345.5 670.5 Q355 654 351 628 Q345 619 341 617 Q335 594 328 576.5 Q321 559 314 543 Q306 525 299 507 Q292 489 287 463 Q281 456 279.5 451 Q278 446 276 441 Q274 435 271 428.5 Q268 422 262 417 Q258 386 250 366.5 Q242 347 234 328 Q220 293 208 258.5 Q196 224 194 180 Q206 183 216 183 Q229 183 241 179 Q277 197 319.5 201 Q362 205 404 206 Q439 206 469 209 Q479 202 482 201.5 Q485 201 492 201 Q495 201 498 201 Q501 201 506 200 Q520 186 533 180.5 Q546 175 561 170 Q574 165 586.5 159.5 Q599 154 611 145 L620 94 Q628 83 627 79 Q627 71 623 65 L625 52 Q606 48 600 43.5 Q594 39 587 32 Q576 31 566 31 Q546 31 525 25 Q495 36 459 36 Q445 36 430.5 35 Q416 34 402 32 Q387 30 372 28.5 Q357 27 342 27 Q330 25 325 24 Q320 23 315 21 Q281 10 241.5 -1 Q202 -12 162 -12 Q103 -12 67 18 Q63 27 61 30 Q59 33 57 37 Z " />
<glyph glyph-name="M" unicode="M" horiz-adv-x="997" d="M90 -14 Q80 -14 59 -11 Q43 6 30.5 35.5 Q18 65 11.5 98.5 Q5 132 5.5 165.5 Q6 199 17 225 Q17 226 26.5 249 Q36 272 51 307.5 Q66 343 85 386.5 Q104 430 123 472 Q142 514 159.5 548.5 Q177 583 190 602 Q199 616 206.5 629 Q214 642 221 653 Q232 671 241.5 686.5 Q251 702 262.5 714.5 Q274 727 288 736.5 Q302 746 322 753 Q334 748 343 742.5 Q352 737 359 729 L362 715 Q364 708 368.5 705.5 Q373 703 376 703 Q389 700 398.5 696.5 Q408 693 419 692 Q423 686 426.5 680 Q430 674 434 669 Q454 640 467 613 Q480 586 467 554 L468 543 Q473 536 473 530 Q473 524 471 513 Q470 505 469.5 495.5 Q469 486 472 475 L479 467 Q495 459 510 459 Q530 459 546 468 Q562 477 576 486 Q587 494 596.5 499 Q606 504 615 506 Q636 526 653.5 541.5 Q671 557 690 573 Q726 602 760 635.5 Q794 669 814 719 Q825 726 839 726 Q853 726 867 720.5 Q881 715 895 708 Q898 706 900.5 705 Q903 704 906 702 Q906 691 915 682 Q920 678 922 677 Q924 676 926 675 Q934 670 939.5 666 Q945 662 948 655 Q957 628 978 613 Q976 602 979 591.5 Q982 581 986 571 Q988 567 989 563.5 Q990 560 992 555 L970 557 L973 535 Q976 518 970.5 497 Q965 476 958 464 Q960 434 960 416.5 Q960 399 958 384 Q956 369 951.5 355.5 Q947 342 940 327 Q944 251 922.5 188 Q901 125 876 70 Q873 63 870 57 Q867 51 865 45 Q854 42 845 38 Q836 34 828 29 Q817 22 806 17.5 Q795 13 783 13 Q735 48 733.5 134 Q732 220 770 353 Q777 358 776 368 L776 379 L766 380 Q761 380 757 379 Q753 378 751 370 Q719 347 681.5 322.5 Q644 298 604 277.5 Q564 257 522.5 243.5 Q481 230 442 230 Q342 230 291 332 L282 350 L272 334 Q269 329 261.5 314.5 Q254 300 246.5 281 Q239 262 233.5 242 Q228 222 230 207 Q218 196 206.5 182 Q195 168 190 150 Q188 145 189 140.5 Q190 136 192 131 Q191 124 188 121 Q185 118 181 115 Q176 110 171 104.5 Q166 99 162 92 Q160 86 159 79.5 Q158 73 157 68 Q157 57 154 53 Q144 32 136.5 18.5 Q129 5 122 -2 Q115 -9 107.5 -11.5 Q100 -14 90 -14 Z " />
<glyph glyph-name="N" unicode="N" horiz-adv-x="701" d="M181 94 Q171 86 169 73.5 Q167 61 164 49 Q161 37 153.5 28.5 Q146 20 127 21 Q123 16 125.5 15 Q128 14 130 6 Q116 8 110 4 Q104 0 95 -2 Q72 5 56.5 23.5 Q41 42 29.5 64 Q18 86 9.5 109 Q1 132 -8 149 Q-8 153 -4.5 152.5 Q-1 152 2 152 Q-3 162 -5.5 174.5 Q-8 187 -15 195 Q14 257 47 324.5 Q80 392 113.5 461.5 Q147 531 180.5 601.5 Q214 672 245 740 Q273 730 299.5 716.5 Q326 703 348 685 Q370 667 385.5 643.5 Q401 620 406 590 Q404 584 401 586 Q398 588 396 584 Q401 578 401.5 575.5 Q402 573 401 570.5 Q400 568 400 564 Q400 560 405 553 Q400 554 398 551.5 Q396 549 391 551 Q396 537 394 529 Q392 521 388 514.5 Q384 508 381.5 500.5 Q379 493 383 480 Q379 480 377.5 478.5 Q376 477 375 475 Q374 473 372.5 471.5 Q371 470 367 471 Q370 445 369 418.5 Q368 392 367 364.5 Q366 337 367 308 Q368 279 375 248 Q418 273 444.5 313 Q471 353 486.5 402 Q502 451 510.5 507 Q519 563 528 621 Q539 632 545.5 648 Q552 664 556.5 681 Q561 698 565.5 715.5 Q570 733 578 747 Q596 745 608.5 736.5 Q621 728 632 717.5 Q643 707 655 698 Q667 689 685 686 Q699 666 711 647.5 Q723 629 727 606 Q721 596 718 584 Q715 572 711.5 560 Q708 548 702 538 Q696 528 685 521 Q682 491 676 465 Q670 439 665 414 Q660 389 656 362 Q652 335 653 303 Q644 274 633 243.5 Q622 213 617 187 Q598 172 587 150 Q576 128 564 106 Q559 102 558 104.5 Q557 107 549 108 Q550 99 545.5 96.5 Q541 94 546 82 Q529 74 516 61 Q503 48 487.5 37 Q472 26 451.5 22.5 Q431 19 398 31 Q349 67 310 114 Q271 161 248 225 Q238 222 233 212 Q228 202 224 191 Q220 180 216 171 Q212 162 204 162 Q202 153 196.5 145.5 Q191 138 186 130.5 Q181 123 178.5 114 Q176 105 181 94 Z " />
<glyph glyph-name="O" unicode="O" horiz-adv-x="762" d="M241 -4 Q197 -10 161 0 Q125 10 96.5 31 Q68 52 47.5 81 Q27 110 14 143 Q5 211 19 266.5 Q33 322 60 369 Q87 416 121.5 457 Q156 498 188 536 Q195 533 199.5 536 Q204 539 207.5 544 Q211 549 215.5 554 Q220 559 226 561 Q230 570 236.5 576 Q243 582 250.5 587.5 Q258 593 264.5 599 Q271 605 276 614 Q286 616 293.5 621 Q301 626 307.5 632 Q314 638 321 643 Q328 648 338 651 L338 664 Q360 674 370 686 Q380 698 394 717 Q405 718 411.5 718 Q418 718 432 720 Q441 737 449 745 Q457 753 472 763 Q487 755 504 753.5 Q521 752 535 738 Q536 726 542 719.5 Q548 713 555 707.5 Q562 702 569 696 Q576 690 578 679 Q583 679 584.5 681 Q586 683 591 682 Q593 674 595 669 Q597 664 599.5 660 Q602 656 604.5 651 Q607 646 609 639 Q604 627 600 613.5 Q596 600 584 595 Q584 587 590 586.5 Q596 586 597 579 Q598 570 594 564 Q622 517 645 465.5 Q668 414 697 367 Q695 353 698.5 339.5 Q702 326 707.5 313 Q713 300 718 287 Q723 274 725 261 Q727 244 725 224.5 Q723 205 717 187 Q711 169 701 153.5 Q691 138 678 130 Q662 110 638 97.5 Q614 85 594 68 Q580 60 564 56.5 Q548 53 531 49 Q518 41 500 33.5 Q482 26 463 20 Q444 14 425 10.5 Q406 7 391 9 Q355 -4 321 -9 Q287 -14 241 -4 Z M254 360 Q244 337 230.5 318.5 Q217 300 204 281 Q191 262 181.5 240.5 Q172 219 171 190 Q191 173 218.5 169.5 Q246 166 275 168.5 Q304 171 333 176 Q362 181 385 181 Q385 190 393 190 Q435 194 471 213.5 Q507 233 546 253 Q551 265 559 274 Q567 283 568 300 Q563 309 561.5 315 Q560 321 560 333 Q534 369 515 411.5 Q496 454 471 492 Q469 487 463 482 Q457 477 450 484 Q447 474 441 470.5 Q435 467 427.5 467 Q420 467 412.5 470 Q405 473 399 478 Q364 450 329.5 424 Q295 398 267 363 Q262 360 261 361 Q260 362 254 360 Z " />
<glyph glyph-name="P" unicode="P" horiz-adv-x="655" d="M45 282 Q46 286 49.5 285.5 Q53 285 56 286 Q48 294 46 307.5 Q44 321 36 330 Q38 335 39.5 340 Q41 345 48 344 Q45 366 49 385 Q53 404 61.5 421 Q70 438 81.5 454.5 Q93 471 104 488 Q113 490 115 486.5 Q117 483 122 488 Q138 499 144 512.5 Q150 526 150 542 Q159 568 170.5 593.5 Q182 619 197 641 Q212 663 229 679.5 Q246 696 266 705 Q280 717 301.5 727 Q323 737 347.5 742.5 Q372 748 398 748.5 Q424 749 446 743 Q451 741 452 745.5 Q453 750 457 750 Q507 744 546.5 730 Q586 716 614 691 Q633 661 650 626.5 Q667 592 676.5 554.5 Q686 517 685 477 Q684 437 668 397 Q633 353 583 326.5 Q533 300 475.5 282.5 Q418 265 356.5 254 Q295 243 237 230 Q238 203 237 172.5 Q236 142 230.5 111.5 Q225 81 214.5 52 Q204 23 186 -2 Q166 -1 144.5 -6 Q123 -11 106 -16 Q98 -11 90.5 -6.5 Q83 -2 72 -1 Q75 11 66.5 24 Q58 37 49.5 49.5 Q41 62 38.5 74.5 Q36 87 50 97 Q42 104 42 119 Q46 115 52 115 Q50 133 56.5 158 Q63 183 67.5 207.5 Q72 232 69 252.5 Q66 273 45 282 Z M305 516 Q301 505 298.5 496.5 Q296 488 293 481 Q290 474 286.5 467 Q283 460 279 451 Q281 445 287 442 Q293 439 295 433 Q309 440 323 443.5 Q337 447 351 449 Q365 451 379 454 Q393 457 408 464 Q423 471 439.5 475.5 Q456 480 472 485 Q488 490 503 496.5 Q518 503 529 514 Q515 527 487 537 Q459 547 426.5 549.5 Q394 552 361.5 545 Q329 538 305 516 Z " />
<glyph glyph-name="Q" unicode="Q" horiz-adv-x="762" d="M15 87 Q15 103 12.5 115.5 Q10 128 7.5 139 Q5 150 4 162 Q3 174 7 190 Q4 199 1 207.5 Q-2 216 -5 225 Q-3 270 13 306.5 Q29 343 52 373.5 Q75 404 102 429.5 Q129 455 154 479 Q159 474 161.5 477.5 Q164 481 173 479 Q174 485 179 494 Q184 503 191.5 510.5 Q199 518 208 523 Q217 528 225 527 Q235 546 255.5 560.5 Q276 575 297 589 Q318 603 335 620 Q352 637 356 662 L376 662 Q364 680 365 699.5 Q366 719 377.5 731.5 Q389 744 409 747 Q429 750 455 737 Q466 735 470 741 Q474 747 483 749 Q529 729 565 700 Q601 671 630 634 Q628 631 625.5 629.5 Q623 628 621 626.5 Q619 625 618.5 623 Q618 621 622 618 Q656 575 683 526.5 Q710 478 733 424 Q738 383 736 342.5 Q734 302 725 257 Q717 240 706.5 225.5 Q696 211 684 197.5 Q672 184 660 170.5 Q648 157 638 142 L655 102 Q654 94 658 84.5 Q662 75 666 65.5 Q670 56 672.5 47 Q675 38 672 32 Q675 26 685 28 Q681 26 679.5 20 Q678 14 689 16 Q687 5 680 -9 Q673 -23 662 -35.5 Q651 -48 635.5 -56.5 Q620 -65 601 -65 Q581 -55 569.5 -45 Q558 -35 542 -21 L505 66 Q432 33 349 12.5 Q266 -8 173 -13 Q123 1 82 25 Q41 49 15 87 Z M272 351 Q228 315 192.5 267 Q157 219 135 162 Q144 157 157 156 Q170 155 181 152 Q238 168 298.5 182.5 Q359 197 415 219 Q392 247 371.5 273 Q351 299 339 325 Q342 331 344.5 339 Q347 347 351 355 Q355 363 362 369 Q369 375 381 375 Q399 368 423.5 367 Q448 366 468 362 Q488 348 503 327.5 Q518 307 533 287 Q555 307 571 331.5 Q587 356 595 387 Q589 403 580 423 Q571 443 559.5 462 Q548 481 533.5 496 Q519 511 502 516 Q494 518 491.5 513.5 Q489 509 479 512 Q425 473 371 435.5 Q317 398 272 351 Z " />
<glyph glyph-name="R" unicode="R" horiz-adv-x="662" d="M28 86 Q23 85 19 93.5 Q15 102 10 110 L21 110 Q14 132 17.5 150.5 Q21 169 26 186.5 Q31 204 34.5 220.5 Q38 237 31 255 Q36 252 38.5 257.5 Q41 263 42.5 271.5 Q44 280 43.5 289.5 Q43 299 42 305 Q55 336 62.5 369 Q70 402 76 434.5 Q82 467 89.5 497.5 Q97 528 109 555 Q123 557 138.5 551.5 Q154 546 159 538 Q190 562 214 596 Q238 630 262.5 662.5 Q287 695 318 720 Q349 745 395 750 Q419 733 449 713.5 Q479 694 498 665 Q506 660 513.5 654.5 Q521 649 529 644 L529 629 Q543 616 552.5 598.5 Q562 581 569.5 561.5 Q577 542 584 522 Q591 502 600 485 Q598 479 598.5 474.5 Q599 470 600.5 465.5 Q602 461 603 455.5 Q604 450 604 442 Q600 389 569.5 356.5 Q539 324 495.5 303.5 Q452 283 403 268.5 Q354 254 314 237 Q314 233 318.5 233 Q323 233 321 227 Q351 209 367.5 198 Q384 187 398.5 179.5 Q413 172 430.5 167 Q448 162 479 155 Q510 148 527.5 143.5 Q545 139 559 136.5 Q573 134 589 132 Q605 130 632 127 Q643 116 650 101 Q657 86 660 71 Q663 56 661.5 42.5 Q660 29 653 21 Q654 17 658.5 17.5 Q663 18 668 17 Q661 12 656 5 Q651 -2 646 -9 Q641 -16 634.5 -22 Q628 -28 618 -29 Q582 -43 526 -30 Q470 -17 383 16 Q340 32 313 45 Q286 58 266 70.5 Q246 83 229 97.5 Q212 112 190 132 Q187 131 186.5 128 Q186 125 183 124 Q178 84 167.5 59 Q157 34 137 8 Q121 11 115.5 5 Q110 -1 102 -6 Q92 -8 87 -5.5 Q82 -3 78 0 Q74 3 69 6 Q64 9 53 8 Q50 17 47 25.5 Q44 34 31 33 Q34 42 33 48.5 Q32 55 30 60.5 Q28 66 26.5 72 Q25 78 28 86 Z M362 543 Q349 524 333 508.5 Q317 493 301.5 476.5 Q286 460 274 440.5 Q262 421 257 394 Q299 399 345 417.5 Q391 436 432 453 Q427 490 406 512.5 Q385 535 362 543 Z " />
<glyph glyph-name="S" unicode="S" horiz-adv-x="590" d="M13 451 Q16 466 17 475.5 Q18 485 10 496 Q14 512 16.5 521 Q19 530 17 546 Q26 572 44.5 590 Q63 608 85 620.5 Q107 633 131 641.5 Q155 650 176 656 Q176 660 172 660 Q168 660 170 665 Q224 675 278.5 694 Q333 713 390 728 Q447 743 507 746.5 Q567 750 633 731 Q637 719 644 708 Q651 697 658.5 686.5 Q666 676 672 666 Q678 656 679 645 Q691 634 698.5 621.5 Q706 609 701 588 Q690 580 678 572 Q666 564 653 557 Q608 568 563 565 Q518 562 482 558 Q471 570 456 569.5 Q441 569 424.5 564.5 Q408 560 392 555.5 Q376 551 362 553 Q351 543 333 539.5 Q315 536 295 534 Q294 529 297 527 Q300 525 298 519 Q305 510 317 506.5 Q329 503 341.5 500 Q354 497 364 491.5 Q374 486 377 474 Q395 473 408 464.5 Q421 456 430 444 Q439 432 443 418.5 Q447 405 446 394 Q450 384 454.5 386 Q459 388 465 381 Q469 366 483.5 349.5 Q498 333 506 314 Q508 284 509.5 260 Q511 236 501 213 Q484 169 452 134 Q420 99 379.5 72.5 Q339 46 294 26.5 Q249 7 205 -6 Q201 -5 195.5 -6 Q190 -7 193 0 Q184 -8 172.5 -10 Q161 -12 147.5 -11.5 Q134 -11 120.5 -10 Q107 -9 94 -11 Q86 -3 79.5 5 Q73 13 69 24 Q64 25 64.5 30.5 Q65 36 60 36 Q60 40 61 42 Q62 44 63 46 Q67 49 66.5 50.5 Q66 52 63.5 53.5 Q61 55 58.5 57 Q56 59 57 62 Q62 71 60.5 83.5 Q59 96 58 109 Q57 122 60 133.5 Q63 145 77 153 Q118 149 154.5 157 Q191 165 223.5 179 Q256 193 285.5 209.5 Q315 226 343 240 Q346 250 352.5 257 Q359 264 366 270.5 Q373 277 379 284.5 Q385 292 388 303 Q389 307 388 309 Q387 311 385 312.5 Q383 314 381 316 Q379 318 379 322 Q376 323 373.5 324 Q371 325 369 325 Q343 338 314 347 Q285 356 265 367 Q253 359 241 363 Q229 367 212 371 Q170 373 132.5 379 Q95 385 60 400 Q58 406 55 410.5 Q52 415 41 413 Q34 423 26.5 431.5 Q19 440 13 451 Z " />
<glyph glyph-name="T" unicode="T" horiz-adv-x="622" d="M22 564 Q21 572 18.5 578.5 Q16 585 13 593 Q8 605 4 619 Q0 633 0 652 Q2 662 5 666.5 Q8 671 11 674 L15 692 L30 692 Q38 691 46.5 691 Q55 691 63 691 Q101 691 141 694 Q181 697 223 701 Q269 707 322 710 Q327 721 328.5 724 Q330 727 332 731 L343 737 Q366 738 375 731.5 Q384 725 389 719 Q415 721 442 724.5 Q469 728 498 732 Q538 737 579 742 Q620 747 659 747 Q676 747 691 746 Q706 745 720 743 L732 734 Q736 727 742 721 Q748 715 756 709 Q771 697 785.5 679 Q800 661 796 626 L791 616 Q787 612 781 608 L771 595 L760 595 Q750 595 745 593.5 Q740 592 733 589 Q729 587 724 585.5 Q719 584 713 582 Q702 583 696 583 Q690 583 682 583 Q652 583 617 579 Q582 575 549 570 Q525 567 503 564.5 Q481 562 463 560 Q453 534 445 514 Q437 494 428 474 Q419 454 411 433.5 Q403 413 396 388 Q384 370 376 353.5 Q368 337 363 316 Q348 299 341.5 279 Q335 259 330 245 L326 230 Q319 223 317.5 219 Q316 215 312 210 Q309 197 304 185 Q302 180 300 174.5 Q298 169 299 166 Q297 155 293 149 Q293 143 292 137 Q291 131 290 125 Q288 118 287 112.5 Q286 107 288 102 Q291 98 294 94 Q297 90 299 84 Q301 82 304 81 Q307 80 309 78 Q317 71 324 70 L334 58 Q340 22 323 2 Q305 -21 263 -21 L249 -20 Q242 -13 241 -11 Q232 -7 226 -4.5 Q220 -2 215 5 Q213 7 210 7.5 Q207 8 205 10 Q195 13 189 17 L178 23 Q179 33 179 37 Q171 48 166.5 61 Q162 74 159 88 Q156 99 153.5 108 Q151 117 146 124 Q144 194 159 241.5 Q174 289 192 334 Q202 358 211 383 Q220 408 227 434 L238 445 Q245 451 247 452 Q247 465 252 477.5 Q257 490 263 503 Q267 511 270.5 519 Q274 527 275 533 Q268 533 262.5 532.5 Q257 532 251 531 Q238 528 226 528 Q217 528 213 529 Q205 525 198 524.5 Q191 524 184 524 L172 524 L160 524 Q148 524 141 521 Q127 521 123 521 Q119 521 114 521 L102 521 L90 521 Q82 521 72 522.5 Q62 524 51 530 L44 538 Q38 549 33 550 L22 553 L22 564 Z " />
<glyph glyph-name="U" unicode="U" horiz-adv-x="712" d="M72 495 Q70 508 67 511 Q74 529 77.5 546.5 Q81 564 83 580 Q85 594 87.5 606 Q90 618 94 629 Q111 633 119.5 643.5 Q128 654 133 662 Q151 663 156.5 657 Q162 651 169 637 Q174 626 183 613.5 Q192 601 210 594 Q213 583 217 573 Q221 563 226 552 Q235 531 243 508.5 Q251 486 252 466 Q240 443 233.5 413 Q227 383 225.5 352.5 Q224 322 227 294 Q230 266 237 247 L243 231 L265 233 Q301 242 330 253.5 Q359 265 384 281 Q409 297 432 317.5 Q455 338 480 366 Q504 394 523 429.5 Q542 465 554.5 503 Q567 541 574 579 Q581 617 583 650 Q602 659 604 679 L601 692 Q598 697 598.5 701.5 Q599 706 601 710 Q609 733 635 744 Q653 732 668.5 718 Q684 704 697 690 Q699 663 705 643.5 Q711 624 718 606 Q725 589 730.5 573 Q736 557 738 534 Q728 504 723.5 477.5 Q719 451 715 422 L713 411 Q695 380 677.5 347.5 Q660 315 649 291 Q643 285 638.5 277 Q634 269 630 261 Q628 258 624.5 251 Q621 244 618 241 L594 250 L588 219 L572 215 L560 201 Q537 161 511.5 134 Q486 107 454.5 86 Q423 65 383.5 46.5 Q344 28 293 7 Q273 10 258.5 10.5 Q244 11 230 12 Q216 12 203 13 Q190 14 173 16 Q169 25 162 29 Q155 33 149 33 Q129 43 119 61 Q109 79 98 101 Q93 113 87.5 125 Q82 137 74 148 L94 154 L68 184 Q65 187 61.5 190 Q58 193 55 197 L55 216 Q51 298 51.5 367.5 Q52 437 70 490 L72 495 Z " />
<glyph glyph-name="V" unicode="V" horiz-adv-x="598" d="M79 376 Q74 404 76 434 Q78 464 78 492 Q78 519 74.5 549.5 Q71 580 68.5 608 Q66 636 66.5 659.5 Q67 683 73 696 Q81 711 93 719.5 Q105 728 116 739 Q129 737 139.5 731.5 Q150 726 157.5 717.5 Q165 709 168.5 700 Q172 691 170 682 Q195 667 210.5 641.5 Q226 616 234.5 585.5 Q243 555 246.5 521 Q250 487 252.5 454 Q255 421 257.5 391.5 Q260 362 267 340 Q311 404 341.5 453.5 Q372 503 403 548.5 Q434 594 472.5 641 Q511 688 571 747 Q584 745 591 742 Q598 739 605 736 Q612 733 620 731.5 Q628 730 642 732 Q647 720 649.5 714.5 Q652 709 654 704 Q656 699 659 691 Q662 683 668 667 Q671 663 670.5 656.5 Q670 650 669 645 Q668 640 668.5 637 Q669 634 675 637 Q671 620 662 606.5 Q653 593 654 574 Q627 538 594 500 Q561 462 528 420.5 Q495 379 464.5 334.5 Q434 290 413 240 Q407 240 404 237 Q401 234 398.5 230 Q396 226 393.5 222 Q391 218 385 218 Q383 186 361.5 157.5 Q340 129 318 109 Q320 101 320 96 Q320 91 319 86 Q318 81 317.5 75.5 Q317 70 318 62 Q309 38 294.5 22 Q280 6 263 -2 Q246 -10 228 -8.5 Q210 -7 194 4 Q187 8 182 15 Q177 22 171.5 28.5 Q166 35 160.5 40.5 Q155 46 147 48 Q149 58 147.5 69 Q146 80 143 89 Q140 98 136 104 Q132 110 128 110 Q124 135 117.5 164.5 Q111 194 104.5 223 Q98 252 94 280 Q90 308 91 332 Q92 344 86.5 353.5 Q81 363 79 376 Z " />
<glyph glyph-name="W" unicode="W" horiz-adv-x="1018" d="M78 71 Q73 82 68 92 Q63 102 58 110 Q46 134 37 153 Q28 172 20 197 Q23 214 30.5 254 Q38 294 48 341.5 Q58 389 69.5 438 Q81 487 93 522 Q104 553 117.5 588 Q131 623 147.5 652.5 Q164 682 183 703 Q202 724 224 728 Q230 720 237 715.5 Q244 711 250 709 Q267 685 283 668.5 Q299 652 321 636 Q315 606 303.5 569.5 Q292 533 279.5 496 Q267 459 255 424.5 Q243 390 236 365 Q230 345 224 319 Q219 297 213.5 266 Q208 235 203 198 Q217 202 234.5 214 Q252 226 267 239 Q285 254 302 271 Q325 294 341 313 Q357 332 370.5 352.5 Q384 373 398.5 397.5 Q413 422 433 456 Q451 485 470.5 518 Q490 551 510 581 Q530 611 549 636.5 Q568 662 584 676 Q595 665 609.5 653 Q624 641 641 636 Q648 625 654.5 616.5 Q661 608 667 600 Q675 589 681.5 580 Q688 571 693 560 Q692 552 689.5 539 Q687 526 684 510.5 Q681 495 677.5 479 Q674 463 671 448 Q661 403 656 380 Q651 357 649 344 Q647 331 646.5 322 Q646 313 646 297 Q646 285 648 273 Q650 262 652.5 250.5 Q655 239 662 229 L710 266 Q730 281 748.5 308.5 Q767 336 784.5 371.5 Q802 407 819 448.5 Q836 490 853 534 Q865 566 877.5 597.5 Q890 629 903 657.5 Q916 686 928.5 709.5 Q941 733 953 749 Q980 732 999.5 715 Q1019 698 1033.5 677.5 Q1048 657 1056.5 630.5 Q1065 604 1069 568 Q1047 526 1028 482 Q1009 438 990 393 Q966 335 940.5 277.5 Q915 220 884 168 Q853 116 814.5 72.5 Q776 29 726 -1 Q712 2 702 2 Q691 2 683.5 -1 Q676 -4 670 -9 Q629 10 604 47.5 Q579 85 555 131 Q552 138 548.5 144.5 Q545 151 541 158 L524 189 L514 208 L500 195 L479 176 L467 164 Q436 135 404 107.5 Q372 80 337 57.5 Q302 35 262.5 21 Q223 7 178 6 Q170 10 163.5 13 Q157 16 151 19 Q128 30 113 40 Q98 50 78 71 Z " />
<glyph glyph-name="X" unicode="X" horiz-adv-x="638" d="M52 -34 Q13 -5 -5.5 37.5 Q-24 80 -10 122 Q-8 153 5.5 181.5 Q19 210 38.5 236 Q58 262 81 285 Q104 308 124 328 Q128 340 138 349 Q148 358 159.5 366.5 Q171 375 182.5 385 Q194 395 201 408 Q197 422 188 436 Q179 450 168 464 Q157 478 145 492 Q133 506 123 521 Q122 526 115.5 524 Q109 522 106 525 Q108 541 99.5 559.5 Q91 578 77 591 Q82 603 86.5 622 Q91 641 84 663 Q83 673 86.5 682 Q90 691 94 699 Q98 707 100 714.5 Q102 722 99 730 Q114 732 126.5 728.5 Q139 725 149.5 720.5 Q160 716 169.5 713 Q179 710 188 714 Q186 708 187.5 705.5 Q189 703 191.5 701.5 Q194 700 196.5 699 Q199 698 199 694 Q218 688 240.5 668 Q263 648 284 624 Q305 600 322 576.5 Q339 553 347 540 Q376 558 409.5 583 Q443 608 478.5 634 Q514 660 550.5 683.5 Q587 707 622 721 Q642 712 653.5 698 Q665 684 672.5 668.5 Q680 653 686.5 637.5 Q693 622 704 610 Q694 590 683 576.5 Q672 563 667 544 Q642 534 607 512 Q577 493 531 460 Q485 427 422 373 Q437 356 446.5 341 Q456 326 462 315 Q469 302 473 291 Q484 283 491 272 Q498 261 504.5 249.5 Q511 238 519 228 Q527 218 540 212 Q544 194 550 178.5 Q556 163 561.5 148 Q567 133 570.5 118.5 Q574 104 573 89 Q565 62 549 44 Q533 26 526 7 Q515 4 504.5 0.5 Q494 -3 487 -10 L419 38 Q401 98 367 153 Q333 208 301 248 Q253 211 209 166 Q165 121 129 70 Q127 45 123 28.5 Q119 12 110 1 Q101 -10 87 -18 Q73 -26 52 -34 Z " />
<glyph glyph-name="Y" unicode="Y" horiz-adv-x="505" d="M149 -33 Q61 -21 42 60 L43 71 Q47 83 52 98 Q57 115 63 131.5 Q69 148 83 161 Q86 170 94.5 188.5 Q103 207 123 244 Q139 273 148.5 290 Q158 307 164 316 Q154 334 136 351 Q120 381 108.5 408.5 Q97 436 91 458 Q90 482 83 507 Q80 520 77 533 Q74 546 74 560 Q70 567 67 578 L69 590 Q74 598 71.5 611.5 Q69 625 65 639 Q62 652 59.5 666.5 Q57 681 58 695 Q59 709 65.5 722 Q72 735 88 744 L98 751 L108 745 Q119 738 129 733 Q139 728 149 723 Q161 717 173 710.5 Q185 704 199 696 L209 689 L208 678 Q208 676 209 673 Q210 670 212 668 L223 665 L224 651 L224 639 Q224 630 225 626.5 Q226 623 229 619 L234 606 Q234 588 237 574 Q240 560 244 546 Q249 532 252 517.5 Q255 503 253 486 Q259 489 265 495 Q267 497 269.5 499 Q272 501 275 503 L345 598 L343 610 L368 634 Q378 642 387 650.5 Q396 659 402 670 L408 679 Q453 739 524 753 L541 757 L546 741 Q551 727 565.5 716.5 Q580 706 597 696 L608 689 Q614 677 614 671 Q614 665 613 661 L618 648 Q607 619 594 606.5 Q581 594 567 583 Q556 574 547 565 Q538 556 533 545 L525 535 Q500 522 493 497 L489 483 L474 483 Q473 483 469 478.5 Q465 474 457 457 Q448 445 444.5 441.5 Q441 438 439 436 Q437 431 435.5 427 Q434 423 432 417 L426 409 Q417 401 413 393.5 Q409 386 404 376 Q400 367 395 357.5 Q390 348 381 339 L383 328 L375 321 Q367 314 361 303.5 Q355 293 349 282 Q343 270 336 258 Q329 246 318 236 Q311 218 305.5 208 Q300 198 287 184 Q275 136 230 81 Q229 70 223.5 59.5 Q218 49 212 40 Q210 36 207.5 31.5 Q205 27 204 25 L201 14 Q195 3 188.5 -4 Q182 -11 176 -17 Q173 -19 170.5 -22 Q168 -25 166 -27 L149 -33 Z " />
<glyph glyph-name="Z" unicode="Z" horiz-adv-x="680" d="M-8 88 Q-11 118 -9.5 142 Q-8 166 -2.5 188 Q3 210 12.5 230 Q22 250 34 273 Q48 278 59 286.5 Q70 295 80 303 Q90 312 99.5 318.5 Q109 325 118 326 L128 332 Q148 355 177 374.5 Q206 394 237 412 Q263 427 288 442.5 Q313 458 334 478 Q344 477 351 482 Q356 489 355 497 Q358 499 360.5 501.5 Q363 504 366 506 Q374 513 388.5 520.5 Q403 528 408 541 L434 566 L398 565 Q371 565 340.5 562 Q310 559 288 557 Q270 555 251.5 554 Q233 553 210 552 Q191 564 177.5 583 Q164 602 156.5 624 Q149 646 148 670 Q147 694 154 716 Q162 718 168.5 720.5 Q175 723 181 726 Q192 727 195.5 726 Q199 725 204 725 Q264 735 302 735 Q344 735 378 725 Q420 725 463.5 728 Q507 731 552 723 Q584 733 616 728.5 Q648 724 671 700 Q673 680 682 669.5 Q691 659 706 654 Q715 619 707.5 593 Q700 567 682 546.5 Q664 526 639 510 Q614 494 590 479 Q583 468 573 461 Q563 454 554 446 Q515 394 463.5 357.5 Q412 321 359 286 Q321 260 283.5 234 Q246 208 211 178 L198 167 L209 155 Q223 141 243 141 Q254 141 264.5 144 Q275 147 284 151 Q293 154 300.5 156.5 Q308 159 313 159 L324 157 Q339 165 348.5 168.5 Q358 172 368 175 Q376 177 385.5 180 Q395 183 404 188 Q430 188 454 195.5 Q478 203 501 212 Q515 217 528.5 222 Q542 227 556 231 Q561 224 567.5 219.5 Q574 215 580 212 Q589 207 593 203.5 Q597 200 598 194 L602 161 L623 184 Q638 170 639 155.5 Q640 141 636 118 Q597 79 539.5 57 Q482 35 418 16 Q404 12 391 8.5 Q378 5 364 0 L365 21 L339 4 Q334 0 331 -3.5 Q328 -7 325 -11 Q294 -18 273.5 -22 Q253 -26 235 -30 Q215 -35 197.5 -38 Q180 -41 159 -41 Q152 -41 145.5 -40.5 Q139 -40 132 -39 Q126 -37 118 -35 L104 -9 L85 -23 Q74 -14 60 -4 Q48 6 38 16 Q28 26 27 36 L26 48 L14 51 Q12 53 10 61 Q8 67 4 75 Q0 83 -8 88 Z " />
<glyph glyph-name="bracketleft" unicode="&#x5b;" horiz-adv-x="397" d="M417 -32 Q435 -37 440 -46 Q445 -55 443 -66 Q441 -77 433.5 -88.5 Q426 -100 420 -109 Q410 -107 402.5 -113 Q395 -119 389 -127 Q361 -123 334 -126 Q307 -129 284 -132 Q280 -132 280.5 -136.5 Q281 -141 278 -142 Q248 -132 217 -134.5 Q186 -137 154 -144 Q122 -151 88 -159.5 Q54 -168 20 -169 Q7 -160 -1 -146.5 Q-9 -133 -14.5 -117.5 Q-20 -102 -23.5 -85.5 Q-27 -69 -31 -54 Q-31 -43 -26.5 -36.5 Q-22 -30 -17 -25 Q-3 33 17.5 91.5 Q38 150 52 206 Q65 255 77.5 297.5 Q90 340 101 379.5 Q112 419 123 458 Q134 497 144 539 Q153 573 161.5 604 Q170 635 177.5 666 Q185 697 192.5 730.5 Q200 764 207 805 Q205 818 205.5 824.5 Q206 831 205 838 Q202 855 194 863 Q202 865 205.5 876 Q209 887 206 892 Q222 897 240.5 898.5 Q259 900 277 901.5 Q295 903 311 905.5 Q327 908 339 915 Q389 917 443 919.5 Q497 922 543 924 Q560 919 583 918.5 Q606 918 628 915 Q650 912 668 902.5 Q686 893 693 869 Q708 867 714.5 861.5 Q721 856 723.5 847.5 Q726 839 725 829.5 Q724 820 724 810 Q707 797 681.5 790 Q656 783 626 779 Q596 775 563 773 Q530 771 499.5 770.5 Q469 770 442.5 769 Q416 768 398 766 Q384 764 371.5 762.5 Q359 761 348 759 Q338 714 326 663.5 Q314 613 301.5 562.5 Q289 512 277 464 Q265 416 255 376.5 Q245 337 239 308.5 Q233 280 232 269 Q217 222 206.5 188.5 Q196 155 187.5 125.5 Q179 96 170.5 67 Q162 38 149 -1 Q166 2 197 5 Q223 7 265.5 9 Q308 11 374 11 Q376 1 383 -3.5 Q390 -8 397.5 -11 Q405 -14 411 -18 Q417 -22 417 -32 Z " />
<glyph glyph-name="backslash" unicode="&#x5c;" horiz-adv-x="361" d="M286 134 Q281 121 282 109.5 Q283 98 287 87 Q291 76 295 66 Q299 56 299 46 Q294 38 291 30 Q288 22 285 13.5 Q282 5 277.5 -3.5 Q273 -12 264 -19 Q244 -22 230.5 -21 Q217 -20 199 -21 Q180 -11 170 7.5 Q160 26 155.5 47.5 Q151 69 151 90.5 Q151 112 153 129 Q162 137 152 139 Q152 146 150.5 164 Q149 182 146 203.5 Q143 225 140 248 Q137 271 134 289 Q126 304 121.5 337 Q117 370 112.5 405.5 Q108 441 102.5 471.5 Q97 502 87 513 Q89 535 81 570 Q73 605 67 642 Q61 679 61.5 711.5 Q62 744 81 761 Q118 749 145 726 Q172 703 199 667 Q201 653 204 627.5 Q207 602 211 571.5 Q215 541 219 507.5 Q223 474 227.5 444.5 Q232 415 236.5 391.5 Q241 368 246 357 Q247 336 253.5 309.5 Q260 283 266 254.5 Q272 226 275 198 Q278 170 272 147 Q274 142 278.5 140 Q283 138 286 134 Z " />
<glyph glyph-name="bracketright" unicode="&#x5d;" horiz-adv-x="413" d="M395 876 Q408 874 414 868.5 Q420 863 422 854.5 Q424 846 423 836.5 Q422 827 422 817 Q412 776 400 722.5 Q388 669 373.5 609.5 Q359 550 343 489.5 Q327 429 313.5 377 Q300 325 291 287 Q282 249 281 235 Q264 184 253.5 149 Q243 114 233.5 82.5 Q224 51 214 17.5 Q204 -16 188 -62 Q186 -74 178.5 -86.5 Q171 -99 164 -109 Q154 -107 146.5 -113 Q139 -119 133 -127 Q105 -123 78 -126 Q51 -129 28 -132 Q24 -132 24.5 -136.5 Q25 -141 22 -142 Q-8 -132 -39 -134.5 Q-70 -137 -102 -144 Q-134 -151 -168 -159.5 Q-202 -168 -236 -169 Q-249 -160 -257 -146.5 Q-265 -133 -270.5 -117.5 Q-276 -102 -279.5 -85.5 Q-283 -69 -287 -54 Q-287 -40 -281 -34 Q-275 -28 -269 -21 Q-246 -20 -227.5 -17.5 Q-209 -15 -192 -12.5 Q-175 -10 -157.5 -7.5 Q-140 -5 -119 -5 Q-113 -1 -94.5 1.5 Q-76 4 -52 6 Q-28 8 -1 9 Q26 10 50 10 Q62 52 76 92.5 Q90 133 101 173 Q113 222 126.5 263.5 Q140 305 152.5 344.5 Q165 384 175.5 423 Q186 462 192 505 Q202 541 211 570.5 Q220 600 228 629.5 Q236 659 243.5 693 Q251 727 259 772 Q221 776 187 775.5 Q153 775 133 772 Q85 764 59 757.5 Q33 751 23 746 Q6 747 -3.5 753.5 Q-13 760 -19 770 Q-25 780 -29.5 792 Q-34 804 -40 817 Q-37 826 -38.5 842.5 Q-40 859 -48 867 Q-42 869 -38.5 880.5 Q-35 892 -38 897 Q-23 902 -7 903.5 Q9 905 25 906.5 Q41 908 55.5 910.5 Q70 913 81 920 Q125 922 172.5 925 Q220 928 262 930 Q277 925 297 924.5 Q317 924 337 921 Q357 918 373 909 Q389 900 395 876 Z " />
<glyph glyph-name="asciicircum" unicode="&#x5e;" horiz-adv-x="531" d="M460 464 Q463 443 461.5 419.5 Q460 396 460 375 Q460 354 462.5 330.5 Q465 307 467 285 Q469 263 469 245 Q469 227 464 217 Q458 206 448.5 199 Q439 192 431 184 Q411 186 399 200.5 Q387 215 389 228 Q360 246 347.5 279.5 Q335 313 330.5 352 Q326 391 324 428.5 Q322 466 314 492 Q280 442 257 404 Q234 366 210 331 Q186 296 156.5 259.5 Q127 223 80 178 Q70 179 64.5 181.5 Q59 184 54 186.5 Q49 189 43 190 Q37 191 26 190 Q22 199 20 203 Q18 207 16.5 211 Q15 215 12.5 221.5 Q10 228 5 240 Q3 243 3.5 247.5 Q4 252 4.5 256 Q5 260 4.5 262 Q4 264 0 262 Q3 275 10 286 Q17 297 16 311 Q37 339 62.5 368.5 Q88 398 113.5 429.5 Q139 461 162 495.5 Q185 530 202 569 Q206 569 208.5 571.5 Q211 574 213 577 Q215 580 217 583 Q219 586 223 586 Q225 611 241.5 633 Q258 655 275 670 Q272 682 274.5 688 Q277 694 276 706 Q290 743 317.5 755.5 Q345 768 371 751 Q382 743 388.5 731.5 Q395 720 407 717 Q405 701 410 685.5 Q415 670 422 669 Q425 649 430 627 Q435 605 440 582.5 Q445 560 448 538 Q451 516 450 498 Q450 489 454 481.5 Q458 474 460 464 Z " />
<glyph glyph-name="underscore" unicode="&#x5f;" horiz-adv-x="726" d="M670 70 Q693 68 703.5 63 Q714 58 718 50.5 Q722 43 721 34 Q720 25 720 16 Q694 5 654.5 -1 Q615 -7 568 -10 Q521 -13 470 -13.5 Q419 -14 371 -14 Q323 -14 282 -14 Q241 -14 214 -15 Q131 -20 85 -25 Q39 -30 22 -35 Q-8 -34 -25.5 -28 Q-43 -22 -54 -13 Q-65 -4 -73 7.5 Q-81 19 -92 31 Q-86 39 -89.5 54 Q-93 69 -108 76 Q-96 78 -90 88 Q-84 98 -89 103 Q-64 107 -35.5 108 Q-7 109 21 109.5 Q49 110 74 112.5 Q99 115 118 121 Q195 121 279 121.5 Q363 122 436 124 Q462 119 497.5 118 Q533 117 567.5 113.5 Q602 110 630.5 101 Q659 92 670 70 Z " />
<glyph glyph-name="grave" unicode="&#x60;" horiz-adv-x="773" d="M306 624 Q298 636 297.5 647 Q297 658 300 669 Q303 680 309 691.5 Q315 703 321 717 Q329 721 339 731.5 Q349 742 350 753 Q355 750 364.5 755.5 Q374 761 376 767 Q387 761 396.5 751.5 Q406 742 415 733 Q424 724 433 716.5 Q442 709 453 707 Q477 680 504.5 653.5 Q532 627 555 602 Q559 588 569.5 581 Q580 574 588.5 566 Q597 558 599 547 Q601 536 588 515 Q594 505 593 497 Q592 489 587.5 482 Q583 475 576 468 Q569 461 562 454 Q538 455 512 469 Q486 483 461.5 501.5 Q437 520 416 539.5 Q395 559 380 572 Q351 598 332.5 610 Q314 622 306 624 Z " />
<glyph glyph-name="a" unicode="a" horiz-adv-x="595" d="M529 84 Q523 67 511.5 49.5 Q500 32 484.5 18.5 Q469 5 450 -4 Q431 -13 410 -14 Q397 -11 392.5 -7.5 Q388 -4 383 -1 Q380 1 377.5 2.5 Q375 4 373 5 L361 10 L365 23 Q367 31 364 35.5 Q361 40 352 48 Q349 51 346 54 Q343 57 341 60 L324 79 L351 86 Q376 93 384.5 104 Q393 115 391 141 Q371 145 357.5 142 Q344 139 330 135 Q312 130 293.5 126.5 Q275 123 253 123 Q245 123 238 123.5 Q231 124 223 125 L213 127 Q211 138 209 139.5 Q207 141 205 143 Q200 148 194.5 156.5 Q189 165 192 178 Q187 187 186 196 Q180 184 177 171 L173 161 L163 159 Q161 158 160 154.5 Q159 151 159 149 L154 132 Q152 130 150 128.5 Q148 127 146 125 Q144 116 141 107 Q138 98 135 90 Q130 77 126.5 64.5 Q123 52 124 40 L120 29 Q115 23 109 19.5 Q103 16 97 13 Q95 11 91.5 9.5 Q88 8 86 7 L83 -4 L71 -6 Q60 -8 55.5 -9 Q51 -10 45 -10 L35 -9 Q24 0 18 5.5 Q12 11 4 16 Q-5 28 -6 34 Q-7 40 -8 45 Q-10 51 -10.5 55 Q-11 59 -13 61 L-26 73 L-15 82 L-14 99 Q6 150 28.5 197 Q51 244 75 293 Q83 309 90.5 325 Q98 341 106 357 Q105 360 105 364 Q105 368 107 373 Q118 390 125 403.5 Q132 417 139 431 Q147 448 155.5 464 Q164 480 177 497 L193 504 Q196 505 200 506.5 Q204 508 209 508 L224 506 Q252 519 273 542.5 Q294 566 316 599 L326 613 L339 605 Q344 602 353 599.5 Q362 597 372 594 Q390 590 406 585 Q422 580 432 570 Q438 554 439 546 Q440 538 442 530 Q445 513 447.5 496 Q450 479 451 458 Q456 441 459.5 424.5 Q463 408 466 391 Q471 367 476 344.5 Q481 322 489 302 Q497 302 499 301 Q504 303 509.5 304 Q515 305 522 306 L533 307 L537 297 Q538 292 547 287 Q560 286 566 281.5 Q572 277 577 272 Q581 268 585 266 L600 260 L592 245 Q582 227 563.5 210.5 Q545 194 522 183 Q523 177 523.5 171.5 Q524 166 526 160 Q529 143 531 125 Q533 107 531 88 L529 84 Z M240 257 Q270 259 294.5 261.5 Q319 264 349 270 Q342 300 334 332.5 Q326 365 317 397 L311 387 Q291 366 272.5 340 Q254 314 241 291 Q235 282 229 273 Q223 264 218 255 Q224 256 229.5 256 Q235 256 240 257 Z " />
<glyph glyph-name="b" unicode="b" horiz-adv-x="587" d="M549 163 Q555 160 556 153 Q557 146 556 142 Q538 119 531 110 Q524 101 521 96.5 Q518 92 514.5 89 Q511 86 499 76 Q454 49 406.5 28 Q359 7 307 -1 Q299 -12 276.5 -16.5 Q254 -21 235 -25 Q231 -23 230.5 -19.5 Q230 -16 226 -14 Q225 -24 217 -24.5 Q209 -25 197.5 -20.5 Q186 -16 173.5 -8.5 Q161 -1 152 5 Q147 -3 141.5 -11 Q136 -19 128 -22 Q117 -20 111.5 -19 Q106 -18 101 -23 Q95 -20 91.5 -16 Q88 -12 84.5 -8.5 Q81 -5 76.5 -2 Q72 1 64 3 Q66 7 62 15.5 Q58 24 50 26 Q54 33 46.5 43.5 Q39 54 35 67 Q37 78 38 91 Q39 104 50 106 Q49 113 47 118 Q45 123 43 128 Q50 134 53 142.5 Q56 151 58 160 Q60 169 63 178 Q66 187 74 193 Q83 223 88 237.5 Q93 252 95.5 266 Q98 280 101.5 296 Q105 312 114 336 Q113 351 117 362.5 Q121 374 125.5 385.5 Q130 397 133 409.5 Q136 422 132 439 Q118 438 112 429.5 Q106 421 104 407 Q96 399 84.5 399.5 Q73 400 64 397 Q29 411 6 437 Q-17 463 -31 498 Q-22 521 -4 536.5 Q14 552 37 562.5 Q60 573 86 579.5 Q112 586 136 592 Q175 599 214 608 Q253 617 298 614 Q304 617 312.5 617.5 Q321 618 330 618 Q339 618 347.5 618.5 Q356 619 362 622 Q367 616 376.5 614.5 Q386 613 397 605 Q409 614 417.5 609 Q426 604 433 598 Q440 592 446.5 587 Q453 582 460 582 Q467 573 477.5 565 Q488 557 497.5 548.5 Q507 540 513.5 530 Q520 520 520 507 Q519 502 523 501 Q527 500 529 497 Q530 466 519.5 443.5 Q509 421 493.5 402 Q478 383 459.5 366 Q441 349 426 330 Q436 317 449 307 Q462 297 475.5 287 Q489 277 501 266 Q513 255 521 240 Q523 238 526 236.5 Q529 235 532 233 Q535 223 540 212.5 Q545 202 548.5 192.5 Q552 183 553 175.5 Q554 168 549 163 Z M373 497 Q322 499 271.5 488 Q221 477 187 457 Q204 443 221.5 432 Q239 421 249 402 Q288 418 318 442.5 Q348 467 373 497 Z M386 178 Q389 188 397 194 Q405 200 413 205.5 Q421 211 427 217.5 Q433 224 432 236 Q400 253 373.5 256.5 Q347 260 323.5 256.5 Q300 253 278.5 246 Q257 239 235 236 Q224 207 212 173 Q200 139 189 107 Q219 111 244 119.5 Q269 128 292.5 138 Q316 148 338.5 158.5 Q361 169 386 178 Z " />
<glyph glyph-name="c" unicode="c" horiz-adv-x="526" d="M416 -2 Q400 -3 376.5 -1 Q353 1 333 -8 Q280 -6 225 5 Q170 16 124 32 Q114 43 104 52.5 Q94 62 77 66 Q53 85 38 112.5 Q23 140 14 171 Q5 202 2 234.5 Q-1 267 0 297 Q15 342 42.5 374.5 Q70 407 99 439 Q112 445 118.5 451.5 Q125 458 132.5 463.5 Q140 469 147.5 474.5 Q155 480 161 488 Q182 493 197.5 502.5 Q213 512 228 522.5 Q243 533 259 542 Q275 551 296 556 Q304 565 315 570.5 Q326 576 337.5 581.5 Q349 587 359.5 593 Q370 599 376 609 Q381 601 390 603.5 Q399 606 407 609 Q412 610 415.5 607 Q419 604 422 601 Q425 598 427.5 597.5 Q430 597 432 602 Q437 602 435 597 Q433 592 432 590 Q440 591 445.5 586.5 Q451 582 463 581 Q467 576 465 573.5 Q463 571 463 565 Q493 556 501 536.5 Q509 517 502 496 Q495 475 477 457 Q459 439 438 433 Q390 420 347.5 404.5 Q305 389 278 359 Q254 352 235.5 340.5 Q217 329 200.5 314.5 Q184 300 169.5 284.5 Q155 269 139 254 Q140 240 134.5 232.5 Q129 225 124 217 Q126 202 131 190.5 Q136 179 142 168 Q208 148 282.5 143 Q357 138 432 137 Q439 127 448.5 118.5 Q458 110 466 100.5 Q474 91 479 79.5 Q484 68 481 51 Q467 36 450 23.5 Q433 11 416 -2 Z " />
<glyph glyph-name="d" unicode="d" horiz-adv-x="509" d="M493 270 Q492 265 491 261.5 Q490 258 489 255 Q488 252 488 247.5 Q488 243 488 236 Q458 183 412.5 147 Q367 111 312.5 83.5 Q258 56 199 33.5 Q140 11 84 -15 Q60 -9 47.5 5 Q35 19 28.5 37.5 Q22 56 19.5 78.5 Q17 101 15 125 Q18 136 23.5 143.5 Q29 151 29 165 Q37 191 45 216 Q53 241 55 267 Q58 275 66 278 Q71 326 66.5 375.5 Q62 425 50 468 Q51 478 52.5 482.5 Q54 487 52 489 Q51 497 57.5 497 Q64 497 71 497 Q71 512 65.5 527 Q60 542 55 561 Q62 576 64 590.5 Q66 605 73 616 Q127 599 176.5 575 Q226 551 274 540 Q310 514 348 488.5 Q386 463 417 432.5 Q448 402 469 363 Q490 324 493 270 Z M256 215 Q277 223 297.5 232 Q318 241 335.5 252.5 Q353 264 367 279 Q381 294 390 315 Q384 327 374 336.5 Q364 346 354 354.5 Q344 363 334.5 372 Q325 381 319 394 Q306 396 296 401.5 Q286 407 276.5 412.5 Q267 418 256.5 423 Q246 428 232 429 Q210 440 192.5 445 Q175 450 166 458 Q159 458 155 455 Q165 417 170 383.5 Q175 350 175.5 316.5 Q176 283 172 248 Q168 213 161 172 Q171 173 179.5 176.5 Q188 180 196.5 184 Q205 188 214.5 191.5 Q224 195 237 196 Q240 202 245.5 206 Q251 210 256 215 Z " />
<glyph glyph-name="e" unicode="e" horiz-adv-x="534" d="M558 563 Q559 556 558.5 552.5 Q558 549 557.5 546 Q557 543 557 539.5 Q557 536 559 529 Q538 495 510.5 482.5 Q483 470 451 464.5 Q419 459 385.5 453 Q352 447 319 427 Q306 432 295.5 427 Q285 422 265 424 Q259 418 250 415.5 Q241 413 232 410 Q236 401 235.5 391.5 Q235 382 238 376 Q273 373 315.5 377 Q358 381 399 382 Q400 377 398 375.5 Q396 374 397 370 Q404 365 411 357.5 Q418 350 425 343 Q432 336 439.5 331.5 Q447 327 457 328 Q461 320 462.5 310.5 Q464 301 460 291 Q444 280 428 268.5 Q412 257 394.5 248 Q377 239 357.5 233.5 Q338 228 314 229 Q309 229 306.5 229 Q304 229 300 232 Q292 227 277.5 229 Q263 231 255 226 Q244 231 228.5 230.5 Q213 230 201 234 Q185 213 172 189 Q159 165 149 138 Q183 133 205.5 134 Q228 135 248 137.5 Q268 140 289 142.5 Q310 145 342 144 Q362 155 389.5 158.5 Q417 162 440 170 Q448 167 454 159.5 Q460 152 465.5 145.5 Q471 139 477 134 Q483 129 492 130 Q496 126 497.5 120.5 Q499 115 500 110 Q501 105 503.5 101.5 Q506 98 512 99 Q497 66 477.5 48.5 Q458 31 433 22 Q408 13 377.5 8 Q347 3 310 -4 Q301 -6 295 -3.5 Q289 -1 281 -1 Q258 -6 226 -10 Q194 -14 161 -13 Q128 -12 98 -4.5 Q68 3 49 22 Q41 29 38.5 38.5 Q36 48 25 53 Q24 66 21 82 Q18 98 15 115.5 Q12 133 10.5 150 Q9 167 12 181 Q15 196 24.5 208 Q34 220 31 234 Q36 235 37 239.5 Q38 244 45 243 Q51 261 58 277 Q65 293 72.5 308 Q80 323 87.5 338.5 Q95 354 102 373 Q88 386 81.5 401.5 Q75 417 72 432.5 Q69 448 67 464.5 Q65 481 60 498 Q70 513 84.5 522.5 Q99 532 116 538 Q133 544 153 548 Q173 552 195 557 Q235 570 266.5 577 Q298 584 328.5 588.5 Q359 593 392 597 Q425 601 467 609 Q476 600 484 600 Q488 609 493.5 605.5 Q499 602 498 611 Q508 594 523.5 582.5 Q539 571 558 563 Z " />
<glyph glyph-name="f" unicode="f" horiz-adv-x="466" d="M140 34 Q134 0 106 -13 Q93 -14 86.5 -12 Q80 -10 73 -7 Q64 -3 57 -2 L46 6 Q44 11 41 16 Q38 21 34 26 Q26 36 18 51 Q12 80 16 99.5 Q20 119 26 138 Q28 144 30 150.5 Q32 157 34 163 Q8 177 -5 203 Q-18 229 -20 253 Q-17 272 -9 283.5 Q-1 295 9.5 302 Q20 309 31.5 313 Q43 317 54 320 L67 315 Q76 306 85 301 Q92 304 94.5 310.5 Q97 317 99 325 Q102 334 105.5 343 Q109 352 114 361 Q113 374 118 385 Q111 390 103 391 Q101 391 93 393 Q81 402 76.5 408.5 Q72 415 68 421 Q62 434 53 442 L43 449 L48 459 Q50 461 50 464 Q50 467 46 473 Q44 484 46 488 L48 498 Q56 509 56 510 L65 519 Q85 524 104.5 530.5 Q124 537 144 544 Q163 550 182.5 556.5 Q202 563 222 568 Q229 573 237 574.5 Q245 576 252 577 Q258 578 263 578.5 Q268 579 270 582 Q282 586 298 591 Q323 598 364 606.5 Q405 615 456 620 L473 621 Q478 620 483 620.5 Q488 621 493 621 Q538 621 550 594 Q559 589 566 583 Q573 577 579 571 Q582 567 585.5 564 Q589 561 591 560 Q608 534 602 514 Q593 501 579 499 L568 493 Q557 494 551.5 494 Q546 494 540 494 Q515 494 482 491 Q449 488 414.5 482.5 Q380 477 348 469 Q316 461 292 452 L274 443 Q267 432 266 425.5 Q265 419 264 413 Q263 409 262.5 405 Q262 401 261 396 Q244 375 244 346 Q237 334 235 328.5 Q233 323 235 315 Q254 307 271 309 Q288 311 305 314 Q328 318 352.5 321 Q377 324 403 324 L435 324 L427 316 L432 302 Q438 299 440.5 298 Q443 297 446 295 L451 286 Q455 284 458.5 279 Q462 274 463 264 L422 206 L408 202 Q391 203 378 198 Q371 196 364 194.5 Q357 193 349 193 Q329 189 315.5 187 Q302 185 288 183 Q270 181 253 177.5 Q236 174 221 168 Q211 168 207 168 Q199 168 190.5 165.5 Q182 163 175 161 Q170 157 168 152.5 Q166 148 164 143 Q160 129 153 120 L153 105 Q145 95 143.5 89.5 Q142 84 140 79 Q138 76 137 73.5 Q136 71 136 68 Q144 53 140 34 Z " />
<glyph glyph-name="g" unicode="g" horiz-adv-x="668" d="M709 180 Q685 137 646 113.5 Q607 90 560 74.5 Q513 59 461.5 47 Q410 35 362 16 Q348 16 337.5 15 Q327 14 317.5 12.5 Q308 11 299 9.5 Q290 8 279 7 Q275 8 274 5.5 Q273 3 271 1 Q254 -2 240.5 -2 Q227 -2 218 -2 Q206 -2 193.5 -5.5 Q181 -9 171 -8 Q96 -4 53.5 45.5 Q11 95 6 183 Q7 188 4.5 189 Q2 190 0 192 Q0 202 2.5 209 Q5 216 3 227 Q29 282 62 329.5 Q95 377 141 413 Q148 419 153 425 Q158 431 162.5 437 Q167 443 173 447.5 Q179 452 188 454 Q209 478 238 498 Q267 518 299 536.5 Q331 555 362.5 573.5 Q394 592 420 615 Q431 610 436 612 Q441 614 447 612 Q454 597 466.5 591 Q479 585 491.5 578.5 Q504 572 515 563 Q526 554 532 539 Q526 539 526.5 534.5 Q527 530 529 525.5 Q531 521 530.5 516.5 Q530 512 523 512 Q524 507 529.5 506.5 Q535 506 535 501 Q535 496 532.5 493 Q530 490 532 483 Q512 470 487.5 458 Q463 446 436.5 432.5 Q410 419 381.5 403.5 Q353 388 326 368 Q299 348 271 323.5 Q243 299 217 272 Q191 245 168 216.5 Q145 188 129 160 Q131 155 133.5 152.5 Q136 150 138 145 Q170 143 197.5 145.5 Q225 148 253 142 Q256 144 257 148 Q258 152 262 154 Q319 160 368 172.5 Q417 185 468 199 Q460 202 453.5 204.5 Q447 207 441 209 Q436 214 441.5 217.5 Q447 221 451 225 Q437 233 428.5 245 Q420 257 418 277 Q424 282 424 289 Q424 296 418 300 Q414 301 413 300 Q412 299 411.5 297 Q411 295 410 293.5 Q409 292 405 294 Q406 303 409.5 309 Q413 315 415 323 L484 369 Q495 361 511 351.5 Q527 342 544.5 332.5 Q562 323 580.5 313.5 Q599 304 615 295 Q629 289 640 279 Q651 269 661 258.5 Q671 248 681.5 238 Q692 228 706 221 Q704 208 707 200 Q710 192 709 180 Z " />
<glyph glyph-name="h" unicode="h" horiz-adv-x="596" d="M512 97 Q514 71 506 54 Q498 37 484 25 Q470 13 452 6 Q434 -1 417 -7 Q409 -2 401.5 3.5 Q394 9 384 12 Q371 36 359 54.5 Q347 73 348 97 Q348 98 349.5 108 Q351 118 353.5 130 Q356 142 357.5 152.5 Q359 163 359 164 Q336 162 311 154 Q286 146 262.5 135 Q239 124 218.5 113 Q198 102 185 94 Q185 91 181 79.5 Q177 68 171 55.5 Q165 43 158 33 Q151 23 144 23 Q145 20 147 17 Q149 14 147 9 Q133 5 122 -1.5 Q111 -8 99 -12.5 Q87 -17 73 -17 Q59 -17 40 -7 Q40 -1 35 3.5 Q30 8 24.5 11.5 Q19 15 15 17.5 Q11 20 11 22 Q6 21 7 29 Q8 37 15 33 Q4 47 1.5 57.5 Q-1 68 -10 84 Q-8 86 -6.5 91 Q-5 96 -4 100 Q-3 104 -1 106 Q1 108 4 105 Q2 114 4 120 Q6 126 8 131 Q10 136 11 141 Q12 146 8 152 Q24 174 29 199.5 Q34 225 35 246 Q42 253 47.5 266 Q53 279 56 292.5 Q59 306 58.5 318.5 Q58 331 55 339 Q56 344 66 342 Q72 375 74.5 416.5 Q77 458 83 495.5 Q89 533 103 561.5 Q117 590 148 599 Q154 578 163.5 562 Q173 546 184.5 531.5 Q196 517 207.5 502 Q219 487 229 468 Q228 449 225 424 Q222 399 217.5 373 Q213 347 208.5 323 Q204 299 200 282 Q201 277 205.5 276 Q210 275 207 267 Q231 273 257 278 Q283 283 309 289 Q335 295 359.5 302.5 Q384 310 405 321 Q410 360 418 399 Q426 438 420 479 Q425 483 428 489 Q431 495 438 497 Q433 516 434 537 Q435 558 441.5 577 Q448 596 460.5 609.5 Q473 623 491 627 Q502 611 510 592.5 Q518 574 526.5 555.5 Q535 537 544.5 520.5 Q554 504 569 492 Q572 463 573.5 432 Q575 401 576 369 Q568 331 558.5 295.5 Q549 260 545 220 Q538 212 534 202 Q530 192 526 181.5 Q522 171 517 161.5 Q512 152 505 145 Q509 133 506.5 122.5 Q504 112 512 97 Z " />
<glyph glyph-name="i" unicode="i" horiz-adv-x="328" d="M212 70 Q217 40 208.5 23 Q200 6 184.5 -2.5 Q169 -11 149 -12 Q129 -13 111 -10 Q101 4 93 25 Q85 46 78 68.5 Q71 91 65.5 113 Q60 135 56 152 Q61 164 62.5 179.5 Q64 195 64.5 211 Q65 227 65.5 243.5 Q66 260 68 275 Q75 317 88.5 355 Q102 393 110 434 Q112 443 108.5 451 Q105 459 107 466 Q108 470 113 471.5 Q118 473 119 478 Q122 489 120.5 496 Q119 503 124 513 Q129 521 136.5 536.5 Q144 552 142 569 Q151 575 159 583 Q167 591 175.5 597.5 Q184 604 194.5 609 Q205 614 220 614 Q228 604 230.5 592 Q233 580 235.5 568 Q238 556 243 545.5 Q248 535 260 529 Q260 521 260 509 Q260 497 261 485.5 Q262 474 265.5 464.5 Q269 455 277 452 Q259 404 243.5 357 Q228 310 218 262.5 Q208 215 205.5 167 Q203 119 212 70 Z " />
<glyph glyph-name="j" unicode="j" horiz-adv-x="547" d="M484 464 Q482 438 478 418 Q474 398 467 376 Q450 295 427.5 222 Q405 149 376 91 Q350 62 325.5 40 Q301 18 271 9 Q256 7 244.5 4.5 Q233 2 222 -1 Q217 -2 211.5 -3 Q206 -4 201 -6 Q186 -3 172.5 -1.5 Q159 0 148 0 L135 4 Q125 7 119.5 9 Q114 11 109.5 12.5 Q105 14 99.5 15 Q94 16 82 17 Q67 11 54 11 Q36 11 15 26 Q-6 41 -20 90 Q-18 109 -14.5 123.5 Q-11 138 -7 146 Q17 160 33 160 Q52 160 69.5 154 Q87 148 104 141 Q112 138 115 136 Q118 134 120 133 Q122 132 124.5 132 Q127 132 135 132 Q140 132 143.5 132.5 Q147 133 151 134 L161 133 Q167 130 175 130 Q185 130 200 135 Q207 138 211.5 139 Q216 140 221 141 L229 149 Q238 152 242.5 156 Q247 160 250.5 165 Q254 170 257 176 Q260 182 265 189 Q269 194 272.5 199 Q276 204 280 209 L280 219 Q293 248 303 279.5 Q313 311 321 343 Q329 375 334.5 405 Q340 435 344 459 L334 459 Q309 459 293 458.5 Q277 458 264 456.5 Q251 455 236.5 452 Q222 449 200 445 L185 442 Q170 434 155 428 Q140 422 125 422 Q99 422 81 442 Q62 455 59 476 Q54 482 56 490 Q52 502 52 511.5 Q52 521 52 529 L52 543 L65 543 Q70 548 72 550.5 Q74 553 75 557 L86 566 Q103 568 121.5 571.5 Q140 575 160 579 Q179 583 192.5 585 Q206 587 218.5 588 Q231 589 244.5 589.5 Q258 590 276 590 L299 590 Q302 594 305.5 594.5 Q309 595 311 595 Q316 595 319 594 Q322 593 324 592 Q352 597 376 598.5 Q400 600 419 600 Q429 600 437.5 600 Q446 600 454 599 L487 599 L509 599 Q514 600 525 600 Q541 600 545.5 599.5 Q550 599 562 597 Q576 595 587.5 593.5 Q599 592 611 592 L626 592 L629 582 L637 572 Q639 567 643.5 563 Q648 559 653 554 Q663 544 672.5 531 Q682 518 679 492 L672 481 Q667 479 660 472 L651 464 Q640 463 632 462.5 Q624 462 616 462 Q601 462 585.5 463 Q570 464 553 465 Q544 465 539 465 Q534 465 529.5 465 Q525 465 520 465 Q515 465 507 465 Q499 465 495 465 Q491 465 484 464 Z " />
<glyph glyph-name="k" unicode="k" horiz-adv-x="661" d="M603 36 Q555 34 518.5 38 Q482 42 447 57 Q445 58 443 62 Q441 66 439 68 Q433 71 424.5 70.5 Q416 70 410 72 Q402 76 385 87.5 Q368 99 354 109 Q336 123 320 137 Q304 151 292 167 Q289 171 284 171.5 Q279 172 275 174 Q246 156 226 129 Q206 102 188 74 Q170 46 150 21 Q130 -4 99 -17 Q90 -17 83 -14 Q76 -11 70 -6.5 Q64 -2 58 2 Q52 6 45 8 Q45 20 40.5 30 Q36 40 31.5 49 Q27 58 25 66.5 Q23 75 29 83 Q23 89 11 96 Q17 102 16.5 107 Q16 112 14 117 Q12 122 10.5 128 Q9 134 13 140 Q18 140 25 142 Q19 150 19.5 151.5 Q20 153 17 156 Q15 162 19 163.5 Q23 165 27 167 Q31 216 44 258 Q57 300 73 339 Q89 378 104.5 418 Q120 458 130 504 Q141 515 147.5 530 Q154 545 161.5 560 Q169 575 178.5 589.5 Q188 604 205 613 Q219 612 230 605.5 Q241 599 257 600 Q260 595 262.5 590 Q265 585 269 580 L284 583 Q295 574 303.5 560.5 Q312 547 315 532 Q318 517 314 503.5 Q310 490 295 482 Q296 477 295.5 474.5 Q295 472 294 470 Q293 468 293 466 Q293 464 296 460 Q276 445 266 418 Q256 391 255 370 Q267 382 281.5 393.5 Q296 405 311.5 416 Q327 427 341.5 437 Q356 447 368 457 Q401 487 431.5 505.5 Q462 524 496 547 Q504 549 508.5 547.5 Q513 546 518 544 Q518 550 514.5 551 Q511 552 512 559 Q527 563 538 568.5 Q549 574 562 579 Q571 570 579 560.5 Q587 551 601 549 Q606 538 613 532.5 Q620 527 627 522 Q634 517 639.5 510 Q645 503 646 488 Q642 481 637.5 473 Q633 465 629 454 Q609 436 588.5 422 Q568 408 547 395 Q526 382 504 369 Q482 356 459 338 Q454 331 446.5 325.5 Q439 320 431 314.5 Q423 309 416 303 Q409 297 405 289 Q402 288 399 288 Q396 288 393 287 Q390 280 383.5 276 Q377 272 375 265 Q390 233 414 216 Q438 199 468 191.5 Q498 184 533 183.5 Q568 183 606 183 Q610 184 609.5 187.5 Q609 191 614 190 Q638 182 651 167.5 Q664 153 682 139 Q680 101 659 76 Q638 51 603 36 Z " />
<glyph glyph-name="l" unicode="l" horiz-adv-x="546" d="M264 11 Q236 2 203 -7 Q170 -16 137 -16 Q87 -16 58 9 Q53 20 49 24 Q46 28 43.5 32.5 Q41 37 40 45 Q28 59 21 77.5 Q14 96 11.5 115.5 Q9 135 10.5 155 Q12 175 17 193 Q19 197 19.5 201 Q20 205 21 210 Q25 226 29.5 241 Q34 256 42 267 Q38 276 42 287 Q46 298 51 307 Q65 345 74.5 371.5 Q84 398 94 424 Q111 469 126 513 Q141 557 153 608 Q161 613 165 615 Q171 617 175 618 Q193 609 217 600.5 Q241 592 257 592 Q265 587 267 584.5 Q269 582 271 580 Q282 567 290 553.5 Q298 540 295 518 Q289 509 286 509 Q281 489 275.5 475 Q270 461 264 447 Q257 432 251 417 Q245 402 241 380 Q237 375 235.5 371 Q234 367 232 362 Q230 357 227.5 351.5 Q225 346 220 342 Q217 316 210.5 300 Q204 284 197 268 Q185 239 175.5 210 Q166 181 164 144 Q169 146 173.5 146 Q178 146 182 146 Q191 146 203 143 Q233 159 268.5 162 Q304 165 339 166 Q353 166 367 166 Q381 166 393 168 Q402 163 404.5 162.5 Q407 162 412 162 Q419 162 424 161 Q436 150 447 145 Q458 140 470 136 Q481 132 491.5 127.5 Q502 123 512 115 L519 72 Q526 63 525 60 Q525 52 521 48 L523 37 Q508 34 502.5 30 Q497 26 492 21 Q484 20 480.5 20 Q477 20 474 20 Q460 20 440 15 Q413 24 384 24 Q373 24 361 23 Q349 22 337 21 Q325 19 312.5 18 Q300 17 287 17 L264 11 Z " />
<glyph glyph-name="m" unicode="m" horiz-adv-x="834" d="M692 18 Q682 13 673.5 9 Q665 5 654 5 Q615 34 613.5 106 Q612 178 644 289 Q649 292 649 301 L640 311 Q636 311 632.5 310 Q629 309 627 303 Q601 284 570 263.5 Q539 243 505.5 225.5 Q472 208 437.5 197 Q403 186 370 186 Q286 186 244 271 L236 286 L228 273 Q225 269 219 256.5 Q213 244 207 228 Q201 212 196.5 195.5 Q192 179 193 167 Q184 158 174 146 Q164 134 159 119 Q157 111 161 104 Q159 95 152 90 Q148 85 143.5 80.5 Q139 76 136 71 Q134 66 133.5 61 Q133 56 132 51 Q132 44 130 38 Q113 3 103 -7.5 Q93 -18 76 -18 Q68 -18 50 -15 Q37 -1 26.5 23.5 Q16 48 10.5 76 Q5 104 5.5 132.5 Q6 161 15 182 Q15 183 23 202 Q31 221 43.5 251 Q56 281 72 317.5 Q88 354 104 388.5 Q120 423 134.5 452 Q149 481 159 496 Q167 508 173.5 518.5 Q180 529 186 539 Q204 570 220.5 590.5 Q237 611 269 623 Q291 614 301 602 L303 591 Q307 581 315 581 Q326 578 333.5 575.5 Q341 573 350 571 Q357 563 363 552 Q371 540 378.5 528.5 Q386 517 390.5 505.5 Q395 494 395.5 482 Q396 470 391 457 L392 447 Q397 438 394 422 Q393 415 393 407.5 Q393 400 395 391 Q413 377 427 377 Q443 377 456.5 384.5 Q470 392 482 400 Q490 406 498 410.5 Q506 415 514 416 Q532 433 546.5 446 Q561 459 577 472 Q607 496 635 524 Q663 552 680 594 Q690 600 701 600 Q712 600 724 595 Q736 590 747 585 Q750 583 752.5 582 Q755 581 757 580 Q757 570 765 563 Q769 560 770 559 Q771 558 773 557 Q788 549 792 541 Q799 518 817 506 Q815 496 817.5 487.5 Q820 479 824 470 Q825 467 826 464 Q827 461 829 457 L810 459 L813 440 Q815 426 810.5 409 Q806 392 800 382 Q801 356 801.5 341.5 Q802 327 800 314.5 Q798 302 794.5 291 Q791 280 785 267 Q789 203 770.5 150.5 Q752 98 732 52 Q730 47 727.5 42 Q725 37 723 32 Q714 29 707 25.5 Q700 22 692 18 Z " />
<glyph glyph-name="n" unicode="n" horiz-adv-x="578" d="M205 182 Q196 180 192 171.5 Q188 163 184.5 154 Q181 145 177.5 137.5 Q174 130 167 130 Q166 122 161.5 116 Q157 110 153 103.5 Q149 97 147 89.5 Q145 82 149 72 Q141 66 139 55 Q137 44 134.5 34 Q132 24 126 17 Q120 10 104 11 Q101 7 103 6 Q105 5 106 -1 Q95 1 89.5 -2.5 Q84 -6 76 -7 Q57 -1 44.5 14 Q32 29 22.5 47.5 Q13 66 5.5 85 Q-2 104 -9 118 Q-6 129 -8 139.5 Q-10 150 -15 157 Q34 261 92 379 Q150 497 202 612 Q225 603 247.5 591.5 Q270 580 288.5 565 Q307 550 320 530.5 Q333 511 337 487 Q335 481 332.5 482.5 Q330 484 328 481 Q332 476 332.5 474 Q333 472 332.5 470 Q332 468 332 464.5 Q332 461 335 455 Q331 456 329.5 454 Q328 452 323 454 Q327 443 325.5 436 Q324 429 321 423.5 Q318 418 316 411.5 Q314 405 317 395 Q314 395 312.5 393.5 Q311 392 310 390.5 Q309 389 307.5 387.5 Q306 386 303 387 Q306 365 305 343 Q304 321 303.5 298.5 Q303 276 304 251.5 Q305 227 311 201 Q347 222 368.5 255 Q390 288 403.5 329 Q417 370 424 417 Q431 464 439 513 Q448 522 453 535 Q458 548 462 562.5 Q466 577 470 591.5 Q474 606 480 618 Q495 616 505.5 608.5 Q516 601 525 592.5 Q534 584 544 576.5 Q554 569 569 567 Q581 550 591 534 Q601 518 604 500 Q599 492 596.5 482 Q594 472 591 462 Q588 452 583 443.5 Q578 435 569 429 Q566 403 561.5 381.5 Q557 360 552.5 339 Q548 318 545 295.5 Q542 273 543 246 Q535 223 526 197 Q517 171 512 150 Q496 137 487 119 Q478 101 468 83 Q464 79 463 81 Q462 83 456 84 Q457 80 456 78 Q455 76 453.5 74.5 Q452 73 451.5 70 Q451 67 453 62 Q439 56 428 45 Q417 34 404.5 25 Q392 16 374.5 13 Q357 10 329 20 Q288 50 256.5 89 Q225 128 205 182 Z " />
<glyph glyph-name="o" unicode="o" horiz-adv-x="644" d="M583 300 Q582 288 585 277 Q588 266 592.5 255.5 Q597 245 601 234 Q605 223 607 212 Q609 198 607 181.5 Q605 165 600 149.5 Q595 134 587 121.5 Q579 109 568 103 Q554 85 534 75 Q514 65 497 51 Q486 44 472.5 41 Q459 38 445 35 Q434 29 419 22.5 Q404 16 388 10.5 Q372 5 356 2.5 Q340 0 328 1 Q298 -10 269.5 -13.5 Q241 -17 203 -9 Q167 -14 136.5 -6 Q106 2 82.5 19.5 Q59 37 41.5 61.5 Q24 86 13 113 Q5 170 17 216.5 Q29 263 51.5 302.5 Q74 342 103 375.5 Q132 409 159 441 Q165 439 168.5 441.5 Q172 444 175 448.5 Q178 453 181.5 457 Q185 461 190 462 Q197 477 210.5 484.5 Q224 492 232 506 Q241 508 247 512 Q253 516 258.5 521 Q264 526 270 530.5 Q276 535 284 537 L284 548 Q302 556 310.5 566.5 Q319 577 331 592 Q340 593 345.5 593 Q351 593 362 595 Q370 609 376.5 616 Q383 623 396 631 Q408 625 422.5 623 Q437 621 448 610 Q449 600 454 594.5 Q459 589 465 584.5 Q471 580 476.5 575 Q482 570 484 561 Q488 560 489.5 562 Q491 564 495 563 Q498 549 502 544.5 Q506 540 510 527 Q505 517 502.5 506.5 Q500 496 490 491 Q489 484 494 483.5 Q499 483 500 478 Q501 469 497 465 Q521 426 540 382.5 Q559 339 583 300 Z M458 205 Q462 216 468.5 223 Q475 230 476 244 Q471 252 470 256.5 Q469 261 469 271 Q447 302 431 337.5 Q415 373 395 404 Q393 400 388 396 Q383 392 377 398 Q375 390 370 386.5 Q365 383 359 383.5 Q353 384 346.5 386.5 Q340 389 335 393 Q306 370 277 348 Q248 326 225 297 Q221 295 220 295.5 Q219 296 214 294 Q206 275 194.5 259.5 Q183 244 172 228 Q161 212 153 194 Q145 176 144 152 Q161 138 184 135 Q207 132 231.5 134 Q256 136 279.5 140.5 Q303 145 323 145 Q365 155 395 171.5 Q425 188 458 205 Z " />
<glyph glyph-name="p" unicode="p" horiz-adv-x="537" d="M377 620 Q419 615 452 603 Q485 591 508 571 Q524 546 538.5 517 Q553 488 560.5 456.5 Q568 425 567.5 392 Q567 359 553 325 Q524 289 482.5 266.5 Q441 244 393 230 Q345 216 293.5 206 Q242 196 193 186 Q194 163 193.5 137.5 Q193 112 188.5 86.5 Q184 61 175 37 Q166 13 151 -7 Q134 -7 116 -11.5 Q98 -16 84 -19 Q77 -15 71.5 -11.5 Q66 -8 56 -7 Q58 3 51 13.5 Q44 24 37 35 Q30 46 27.5 56 Q25 66 37 75 Q30 82 30 93 Q37 105 42.5 126 Q48 147 51.5 167.5 Q55 188 53 205 Q51 222 33 230 Q34 232 37 232 Q40 232 43 233 Q35 239 33.5 250 Q32 261 26 269 Q28 274 29 278 Q30 282 36 281 Q33 299 36.5 315 Q40 331 47 345.5 Q54 360 64 374 Q74 388 83 402 Q90 403 91.5 400 Q93 397 98 401 Q111 411 116 422 Q121 433 121 447 Q128 468 138 489.5 Q148 511 160 529 Q172 547 186.5 561 Q201 575 217 582 Q229 592 247 600.5 Q265 609 286 613.5 Q307 618 328.5 618.5 Q350 619 368 614 Q373 612 373.5 616 Q374 620 377 620 Z M336 381 Q361 392 389.5 398.5 Q418 405 437 423 Q425 434 402 442.5 Q379 451 352 453 Q325 455 297.5 448.5 Q270 442 250 424 Q244 406 240 395.5 Q236 385 229 370 Q231 365 235.5 362.5 Q240 360 242 355 Q265 367 288.5 368.5 Q312 370 336 381 Z " />
<glyph glyph-name="q" unicode="q" horiz-adv-x="640" d="M421 49 Q360 22 291 5 Q222 -12 144 -17 Q102 -5 68 14.5 Q34 34 11 66 Q12 80 10 90.5 Q8 101 5.5 110 Q3 119 2.5 129 Q2 139 5 152 Q3 160 0 167 Q-3 174 -5 182 Q-3 220 10 250.5 Q23 281 42 306 Q61 331 83.5 352.5 Q106 374 127 394 Q132 389 134 392.5 Q136 396 144 394 Q144 399 148.5 406.5 Q153 414 159 420.5 Q165 427 172.5 431 Q180 435 187 434 Q196 450 213 461.5 Q230 473 247.5 485 Q265 497 279 511 Q293 525 296 546 L313 546 Q302 562 303 578 Q304 594 313.5 604.5 Q323 615 340 617.5 Q357 620 379 609 Q389 607 392 612.5 Q395 618 402 619 Q440 602 470.5 578 Q501 554 525 523 Q523 518 517.5 517 Q512 516 518 510 Q547 474 569.5 433.5 Q592 393 611 348 Q616 314 614 280.5 Q612 247 604 209 Q590 180 569 158.5 Q548 137 531 112 L546 79 Q545 73 548.5 65 Q552 57 555.5 48.5 Q559 40 561 32.5 Q563 25 560 20 Q563 15 571 17 Q568 16 566 10.5 Q564 5 574 7 Q572 -2 566.5 -13.5 Q561 -25 551.5 -35.5 Q542 -46 529 -53.5 Q516 -61 501 -61 Q484 -52 474.5 -44 Q465 -36 452 -23 L421 49 Z M226 287 Q190 257 160 217 Q130 177 112 129 Q120 125 130.5 124 Q141 123 150 121 Q198 135 248.5 147 Q299 159 346 176 Q327 199 310 221.5 Q293 244 282 265 Q285 270 287 277 Q289 284 292 290.5 Q295 297 301 302 Q307 307 317 307 Q332 301 352.5 300 Q373 299 390 296 Q407 284 419 267.5 Q431 251 444 234 Q462 251 475 271 Q488 291 496 317 Q491 330 483.5 347 Q476 364 466 379.5 Q456 395 444 407.5 Q432 420 418 425 Q411 426 409 422.5 Q407 419 399 421 Q354 389 309 357.5 Q264 326 226 287 Z " />
<glyph glyph-name="r" unicode="r" horiz-adv-x="554" d="M161 104 Q150 64 141.5 43.5 Q133 23 116 1 Q103 3 98 -2 Q93 -7 87 -11 Q78 -13 74 -11 Q70 -9 67 -6.5 Q64 -4 59.5 -1.5 Q55 1 46 1 Q44 9 41.5 16 Q39 23 28 21 Q30 29 29 34.5 Q28 40 26.5 44.5 Q25 49 24 53.5 Q23 58 25 65 Q20 65 17 72 Q14 79 10 86 Q13 104 16 120 Q19 136 23.5 150 Q28 164 31 178 Q34 192 28 207 Q32 204 34 208.5 Q36 213 37 220.5 Q38 228 38 235.5 Q38 243 37 248 Q47 274 53.5 301.5 Q60 329 65.5 356 Q71 383 77 409 Q83 435 93 457 Q104 459 117.5 454.5 Q131 450 134 443 Q160 463 180 491.5 Q200 520 221 547 Q242 574 267.5 595 Q293 616 332 620 Q352 605 376.5 589.5 Q401 574 417 549 Q425 545 430.5 540.5 Q436 536 444 531 L444 519 Q456 508 463.5 493.5 Q471 479 477 462.5 Q483 446 489 429.5 Q495 413 503 398 Q501 393 501 389.5 Q501 386 502.5 382 Q504 378 505 374 Q506 370 505 363 Q502 319 476.5 292 Q451 265 415 247.5 Q379 230 338 218 Q297 206 264 192 Q264 188 267.5 188 Q271 188 270 183 Q294 168 308 159 Q322 150 334.5 144 Q347 138 361.5 133.5 Q376 129 402 123 Q428 117 442.5 113.5 Q457 110 469 107.5 Q481 105 493.5 103.5 Q506 102 529 100 Q538 91 544.5 78.5 Q551 66 553 53.5 Q555 41 554 29.5 Q553 18 547 11 Q548 8 551.5 8.5 Q555 9 559 8 Q553 4 549 -2 Q545 -8 541 -14 Q537 -20 532 -24.5 Q527 -29 518 -30 Q487 -42 440 -31.5 Q393 -21 321 7 Q285 21 262.5 31.5 Q240 42 223.5 52.5 Q207 63 193.5 75 Q180 87 161 104 Z M304 447 Q293 431 279.5 418 Q266 405 253.5 391.5 Q241 378 231 361.5 Q221 345 217 323 Q252 327 290 342.5 Q328 358 362 372 Q358 403 340.5 422 Q323 441 304 447 Z " />
<glyph glyph-name="s" unicode="s" horiz-adv-x="475" d="M16 450 Q23 471 38.5 486 Q54 501 72.5 511.5 Q91 522 111 529 Q131 536 149 541 Q189 558 234.5 573.5 Q280 589 327.5 601 Q375 613 425 616.5 Q475 620 530 604 Q533 594 539 585 Q545 576 551.5 567 Q558 558 563 549.5 Q568 541 569 532 Q579 523 585 512.5 Q591 502 587 485 Q577 477 567.5 470.5 Q558 464 547 459 Q510 468 472 465 Q434 462 404 460 Q395 469 382.5 469 Q370 469 356.5 465 Q343 461 329.5 457 Q316 453 304 455 Q294 447 279.5 444.5 Q265 442 248 440 Q247 435 250 433.5 Q253 432 251 427 Q257 420 266.5 417 Q276 414 286.5 411 Q297 408 305 403.5 Q313 399 316 389 Q331 389 342 382 Q353 375 360 365 Q367 355 370.5 343.5 Q374 332 374 323 Q377 315 381 316 Q385 317 390 312 Q393 299 405 285.5 Q417 272 424 256 Q426 231 427 211.5 Q428 192 420 172 Q405 135 378.5 106 Q352 77 318.5 54.5 Q285 32 247 16 Q209 0 173 -11 Q169 -10 165 -11 Q161 -12 163 -6 Q155 -13 145.5 -15 Q136 -17 125 -16.5 Q114 -16 102.5 -15 Q91 -14 81 -16 Q74 -9 68.5 -2.5 Q63 4 60 14 Q55 14 55.5 19 Q56 24 52 24 Q58 34 57.5 35.5 Q57 37 54.5 38 Q52 39 50 40.5 Q48 42 49 45 Q53 53 52 63.5 Q51 74 50 85 Q49 96 51.5 106 Q54 116 66 122 Q100 118 130.5 124.5 Q161 131 188 143 Q215 155 239.5 169 Q264 183 288 194 Q291 203 296.5 209 Q302 215 308 220 Q314 225 319 231 Q324 237 326 246 Q327 253 322.5 254.5 Q318 256 318 262 L307 265 Q288 276 264 283.5 Q240 291 223 300 Q212 294 202.5 297 Q193 300 178 303 Q144 305 112.5 310 Q81 315 52 328 Q50 333 47 337 Q44 341 36 339 Q30 347 24 354.5 Q18 362 13 371 Q15 383 16 391.5 Q17 400 10 408 Q14 421 16 429 Q18 437 16 450 Z " />
<glyph glyph-name="t" unicode="t" horiz-adv-x="491" d="M569 481 Q544 481 515 477.5 Q486 474 458 470 Q438 467 419.5 465 Q401 463 386 462 Q379 440 372 423 Q365 406 357 390 Q349 373 342.5 355.5 Q336 338 330 318 Q320 302 313.5 288.5 Q307 275 303 258 Q291 243 285 226.5 Q279 210 276 198 L272 186 Q266 180 265 176.5 Q264 173 260 170 Q259 159 253 148 Q251 143 250 138.5 Q249 134 249 132 Q249 122 244 119 Q245 114 244 108.5 Q243 103 242 98 Q239 86 240 79 Q243 75 245.5 72 Q248 69 249 64 Q255 60 258 59 Q262 56 270 52 L279 42 Q284 13 270 -4 Q255 -23 219 -23 L207 -23 Q202 -18 201 -15 Q193 -12 188 -10 Q183 -8 179 -2 Q166 4 158 8 L149 13 Q149 24 149 25 Q142 34 138.5 45 Q135 56 133 67 Q131 76 128.5 84 Q126 92 122 98 Q120 156 133 196 Q146 236 160 273 Q168 293 176 313.5 Q184 334 190 356 L199 366 Q206 382 210.5 392.5 Q215 403 220 414 Q223 421 225.5 427.5 Q228 434 230 439 Q224 439 219 438.5 Q214 438 209 437 Q203 436 198 435.5 Q193 435 188 435 Q181 435 178 436 Q167 431 154 431 L144 431 Q141 431 138.5 431.5 Q136 432 134 432 Q124 432 118 429 Q106 429 95 429 L85 429 Q83 429 80 428.5 Q77 428 75 428 Q68 428 60 429.5 Q52 431 43 436 Q31 452 27 453 L18 465 Q17 471 15 476.5 Q13 482 11 489 Q7 499 3.5 510.5 Q0 522 0 538 Q1 546 4 550 Q7 554 9 557 L12 572 L25 571 L53 571 Q85 571 118 573.5 Q151 576 186 579 Q206 581 226.5 583 Q247 585 269 587 Q273 596 277 604 L287 609 Q305 610 312.5 604.5 Q320 599 325 594 Q347 596 369.5 598.5 Q392 601 415 605 Q449 610 483.5 614 Q518 618 550 618 Q564 618 577 617 Q590 616 601 614 L611 607 Q614 601 619.5 596 Q625 591 631 586 Q643 575 655 560 Q667 545 664 516 Q656 504 652 502 L643 490 L633 491 Q627 491 622 489.5 Q617 488 612 486 Q608 484 604 482.5 Q600 481 595 480 Q586 480 580.5 480.5 Q575 481 569 481 Z " />
<glyph glyph-name="u" unicode="u" horiz-adv-x="599" d="M590 569 Q592 547 597 531 Q602 515 608 500 Q613 486 617.5 472.5 Q622 459 624 440 Q616 414 612.5 392 Q609 370 605 346 Q589 311 574 284 Q559 257 550 237 Q545 232 541.5 225.5 Q538 219 534 212 Q532 209 529 203 Q526 197 524 195 L504 202 L500 177 L486 173 L476 161 Q457 128 436 105.5 Q415 83 388.5 65.5 Q362 48 328.5 33 Q295 18 253 0 Q236 2 223.5 2.5 Q211 3 200 4 Q181 4 153 7 Q150 15 144 18 Q138 21 133 21 Q116 29 107.5 44.5 Q99 60 91 78 Q86 89 81 98.5 Q76 108 70 118 L87 123 L65 147 Q63 150 60 152.5 Q57 155 55 158 L54 174 Q51 243 51.5 300.5 Q52 358 67 403 L67 414 Q70 436 73 450.5 Q76 465 78 478 Q81 500 87 519 Q101 522 108 530.5 Q115 539 120 546 Q134 547 139 542 Q144 537 149 526 Q154 517 161.5 506 Q169 495 184 489 Q186 481 189.5 472.5 Q193 464 197 454 Q205 437 211.5 418.5 Q218 400 219 383 Q209 364 203.5 339 Q198 314 196.5 288.5 Q195 263 197.5 239.5 Q200 216 206 200 L212 187 L229 189 Q259 197 283.5 206.5 Q308 216 329 229 Q350 242 369 259.5 Q388 277 409 300 Q430 323 445.5 352.5 Q461 382 471.5 414 Q482 446 487.5 477.5 Q493 509 495 537 Q512 543 512 561 L510 572 Q506 578 510 586 Q516 605 538 615 Q554 605 566.5 593 Q579 581 590 569 Z " />
<glyph glyph-name="v" unicode="v" horiz-adv-x="497" d="M333 176 Q332 162 326.5 149.5 Q321 137 313 125.5 Q305 114 295.5 103.5 Q286 93 277 85 Q280 72 277.5 65.5 Q275 59 276 46 Q261 6 230.5 -7.5 Q200 -21 173 -2 Q162 6 154.5 18.5 Q147 31 134 34 Q137 51 131 68 Q125 85 118 86 Q115 107 109 131 Q103 155 98 179.5 Q93 204 89.5 227.5 Q86 251 87 271 Q88 281 83.5 289 Q79 297 77 308 Q73 331 74.5 356.5 Q76 382 76 405 Q76 427 73.5 452.5 Q71 478 69 501.5 Q67 525 67 544.5 Q67 564 72 575 Q78 587 88.5 594.5 Q99 602 108 611 Q130 609 143 593 Q156 577 153 563 Q174 550 186.5 529.5 Q199 509 206.5 483.5 Q214 458 217 429.5 Q220 401 222 373.5 Q224 346 226 321 Q228 296 234 278 Q271 331 296 372.5 Q321 414 347 452 Q373 490 405 529 Q437 568 488 617 Q498 616 504.5 613 Q511 610 516 608 Q521 606 528 604.5 Q535 603 547 605 Q551 595 553 590.5 Q555 586 556.5 581.5 Q558 577 560.5 570 Q563 563 569 550 Q572 547 571 542 Q570 537 569.5 532.5 Q569 528 569 526 Q569 524 574 526 Q571 512 563.5 500.5 Q556 489 557 473 Q534 443 506.5 411 Q479 379 451.5 345 Q424 311 399 273.5 Q374 236 356 195 Q351 195 348.5 192 Q346 189 344 185.5 Q342 182 339.5 179 Q337 176 333 176 Z " />
<glyph glyph-name="w" unicode="w" horiz-adv-x="845" d="M563 -13 Q528 3 507.5 34 Q487 65 467 103 Q464 109 461 115 Q458 121 455 126 L441 152 L433 168 L421 157 L403 141 L393 131 Q367 107 340.5 83.5 Q314 60 284.5 41.5 Q255 23 222.5 11.5 Q190 0 152 -1 L130 10 Q111 20 98 28 Q85 36 68 53 Q63 62 59.5 70 Q56 78 52 86 Q41 106 34 122 Q27 138 20 158 Q23 172 29 205.5 Q35 239 43.5 279 Q52 319 61.5 359.5 Q71 400 81 430 Q90 456 101.5 485 Q113 514 126.5 538.5 Q140 563 156 580.5 Q172 598 190 601 Q195 594 201 591 Q207 588 212 586 Q226 566 239.5 552 Q253 538 271 524 Q266 499 256.5 468.5 Q247 438 236.5 407.5 Q226 377 216 348 Q206 319 200 298 Q194 281 190 260 Q181 223 173 159 Q185 162 199 172 Q213 182 226 193 Q241 205 256 220 Q275 239 288 255 Q301 271 312.5 288 Q324 305 336 325.5 Q348 346 365 374 Q380 398 396.5 425.5 Q413 453 429.5 478.5 Q446 504 462 525 Q478 546 491 558 Q499 548 511.5 539 Q524 530 538 525 Q544 516 549.5 508.5 Q555 501 560 495 Q566 486 571.5 478 Q577 470 582 462 Q581 455 579 444 Q577 433 574.5 420 Q572 407 569 393.5 Q566 380 563 368 Q555 330 551 311 Q547 292 545.5 281 Q544 270 543.5 262.5 Q543 255 543 242 Q542 232 544 222 Q545 213 548 203 Q551 193 556 185 L596 216 Q613 229 628.5 251.5 Q644 274 658.5 303.5 Q673 333 687 368 Q701 403 715 439 Q736 492 757.5 542 Q779 592 799 619 Q821 605 837.5 590.5 Q854 576 866 559 Q878 542 885.5 520 Q893 498 896 468 Q878 433 861.5 396 Q845 359 830 322 Q810 274 788.5 226 Q767 178 741 134.5 Q715 91 683 54.5 Q651 18 609 -7 Q598 -4 590 -4 Q574 -4 563 -13 Z " />
<glyph glyph-name="x" unicode="x" horiz-adv-x="519" d="M347 26 Q332 76 303.5 122 Q275 168 249 201 Q208 170 171.5 132.5 Q135 95 105 52 Q103 31 100 17.5 Q97 4 89.5 -5 Q82 -14 70.5 -20.5 Q59 -27 41 -34 Q8 -10 -7 25.5 Q-22 61 -11 96 Q-10 121 1.5 145 Q13 169 29.5 190.5 Q46 212 65 231.5 Q84 251 101 268 Q104 278 112.5 285.5 Q121 293 130.5 300 Q140 307 149.5 315 Q159 323 165 334 Q158 357 138 380.5 Q118 404 101 429 Q99 434 93.5 432 Q88 430 86 433 Q88 446 80.5 461 Q73 476 62 487 Q65 498 69 513.5 Q73 529 67 548 Q67 556 70 563.5 Q73 571 76 577.5 Q79 584 81 590.5 Q83 597 80 603 Q93 605 103 602 Q113 599 122 595 Q131 591 138.5 589 Q146 587 154 590 Q153 585 154 583 Q155 581 157 580 Q159 579 161 577.5 Q163 576 163 573 Q179 568 198 551.5 Q217 535 234.5 515 Q252 495 266 475 Q280 455 287 445 Q311 460 339 480.5 Q367 501 397 523 Q427 545 457.5 564.5 Q488 584 517 596 Q534 588 543.5 576.5 Q553 565 559.5 552.5 Q566 540 571 526.5 Q576 513 585 503 Q577 486 567.5 474.5 Q558 463 554 448 Q533 439 504 421 Q478 405 440.5 378 Q403 351 350 306 Q362 292 370 279 Q378 266 383 257 Q388 246 392 237 Q401 230 407 221 Q413 212 418.5 202.5 Q424 193 431 184.5 Q438 176 449 171 Q455 141 466 117.5 Q477 94 476 69 Q469 46 455.5 31 Q442 16 436 0 Q427 -3 418 -6 Q409 -9 404 -15 L347 26 Z " />
<glyph glyph-name="y" unicode="y" horiz-adv-x="410" d="M320 262 Q313 256 308 247.5 Q303 239 298 230 Q293 219 287 209 Q281 199 272 191 Q267 176 262 167.5 Q257 159 246 148 Q236 108 199 61 Q198 52 193.5 43.5 Q189 35 184 27 Q182 24 180 20.5 Q178 17 177 15 L175 5 Q170 -3 164 -9 Q158 -15 153 -20 Q151 -23 146 -28 L131 -34 Q58 -24 42 44 L43 54 Q45 59 46.5 64.5 Q48 70 50 76 Q54 90 59.5 104 Q65 118 76 129 Q78 136 85 151.5 Q92 167 109 198 Q123 222 131 236 Q139 250 144 258 Q134 274 120 287 Q107 312 97.5 335 Q88 358 83 376 Q82 389 80 398 Q78 407 76 417 Q73 428 71 439 Q69 450 69 462 Q64 469 63 476 L65 486 Q68 493 66 504.5 Q64 516 61 528 Q59 538 56.5 550 Q54 562 55 574 Q56 586 61.5 596.5 Q67 607 80 615 L97 616 Q106 611 114.5 606.5 Q123 602 131 597 Q142 592 152 587 Q162 582 173 574 L180 560 L193 549 L193 538 Q194 534 194 527 Q194 514 198 511 L202 499 Q202 485 205 472.5 Q208 460 211 449 Q214 438 217 426 Q220 414 218 400 Q224 403 228 407 Q230 409 232 410 Q234 411 236 413 L295 493 L293 503 L314 523 Q322 531 329.5 538 Q337 545 342 553 L353 561 Q385 611 444 623 L458 625 L462 612 Q466 601 478.5 592 Q491 583 505 575 L514 569 Q519 559 519 554 Q519 549 518 545 L522 535 Q514 511 502.5 500 Q491 489 480 480 Q471 472 463.5 465.5 Q456 459 452 449 L445 441 Q424 429 418 409 L415 397 L403 397 Q402 397 398.5 393.5 Q395 390 388 376 Q381 366 378 363 Q375 360 373 358 Q372 354 370.5 350.5 Q369 347 367 342 Q354 329 351 322.5 Q348 316 344 308 Q340 300 336.5 292.5 Q333 285 325 277 L320 262 Z " />
<glyph glyph-name="z" unicode="z" horiz-adv-x="561" d="M108 -39 Q103 -37 97 -35 L85 -13 L69 -25 Q62 -21 58 -17.5 Q54 -14 49 -9 Q38 -1 30 7.5 Q22 16 21 24 L20 34 L10 36 Q5 50 2 56.5 Q-1 63 -8 67 Q-14 117 -4 150.5 Q6 184 26 222 Q38 226 47.5 233 Q57 240 65 247 Q73 254 81 259.5 Q89 265 96 266 L105 271 Q122 291 146 306.5 Q170 322 196 338 Q217 350 238.5 363.5 Q260 377 277 393 Q285 392 291 396 Q295 401 295 409 Q297 411 299.5 412.5 Q302 414 304 416 Q311 421 323 428 Q335 435 339 446 L361 467 L331 466 Q308 465 282.5 463 Q257 461 239 459 Q224 457 208 456.5 Q192 456 173 455 Q142 475 128.5 514.5 Q115 554 127 592 Q134 593 139 595.5 Q144 598 149 600 Q158 601 161 600 Q164 599 169 599 Q197 604 215.5 605.5 Q234 607 250 607 Q267 607 283 605.5 Q299 604 314 599 Q349 599 385 602 Q421 605 459 597 Q486 606 512.5 602 Q539 598 559 578 Q560 561 567.5 552.5 Q575 544 587 540 Q595 511 588.5 489 Q582 467 567 450 Q552 433 531.5 419.5 Q511 406 491 394 Q485 385 476.5 379.5 Q468 374 461 366 Q428 324 385.5 292.5 Q343 261 298 232 Q266 211 234.5 189.5 Q203 168 174 143 L164 134 L173 124 Q185 112 201 112 Q210 112 218.5 114.5 Q227 117 235 120 Q243 122 249 124.5 Q255 127 260 127 L273 127 Q281 132 289 135 Q297 138 305 140 Q313 142 320 144 Q327 146 335 151 Q357 151 376.5 157 Q396 163 416 171 Q428 176 439.5 180 Q451 184 463 186 Q467 181 472.5 177.5 Q478 174 483 171 Q496 163 497 156 L500 128 L519 147 Q531 137 532 124.5 Q533 112 529 92 Q497 60 449 42 Q401 24 347 7 Q336 4 324.5 1 Q313 -2 302 -6 L303 11 L281 -3 Q277 -6 274.5 -9 Q272 -12 270 -15 Q244 -22 227 -25 Q210 -28 195 -31 Q178 -35 163 -37.5 Q148 -40 131 -40 Q126 -40 120 -40 Q114 -40 108 -39 Z " />
<glyph glyph-name="braceleft" unicode="&#x7b;" horiz-adv-x="459" d="M509 -32 Q527 -37 532.5 -46 Q538 -55 535.5 -66 Q533 -77 526 -88.5 Q519 -100 512 -109 Q503 -107 495 -113 Q487 -119 481 -127 Q454 -123 426.5 -126 Q399 -129 376 -132 Q372 -132 372.5 -136.5 Q373 -141 370 -142 Q341 -132 310 -134.5 Q279 -137 246.5 -144 Q214 -151 180.5 -159.5 Q147 -168 113 -169 Q100 -160 91.5 -146.5 Q83 -133 77.5 -117.5 Q72 -102 68.5 -85.5 Q65 -69 62 -54 Q61 -43 65.5 -36.5 Q70 -30 76 -25 Q90 33 109 91.5 Q128 150 145 206 Q150 221 152.5 234.5 Q155 248 159 262 Q138 276 116 293 Q94 310 74 322 Q75 330 64 340 Q53 350 41 351 Q42 365 34.5 375.5 Q27 386 23 400 Q15 432 29 460 Q43 488 72 494 Q81 489 86 490 Q91 491 99 485 Q113 499 132 512 Q151 525 169 520 Q170 524 172.5 526 Q175 528 177.5 529 Q180 530 182.5 532 Q185 534 185 539 Q200 543 214.5 548.5 Q229 554 243 562 Q251 592 258.5 620 Q266 648 273 676.5 Q280 705 286.5 736.5 Q293 768 299 805 Q300 823 297 838 Q295 847 293 853 Q291 859 286 863 Q294 865 298 876 Q302 887 298 892 Q314 897 332.5 898.5 Q351 900 369 901.5 Q387 903 403 905.5 Q419 908 431 915 Q481 917 535 919.5 Q589 922 636 924 Q652 919 675 918.5 Q698 918 720.5 915 Q743 912 761 902.5 Q779 893 786 869 Q801 867 807.5 861.5 Q814 856 816 847.5 Q818 839 817 829.5 Q816 820 816 810 Q791 791 747 783.5 Q703 776 655 773 Q607 770 562 770 Q517 770 491 766 Q477 764 464 762.5 Q451 761 440 759 Q434 730 423.5 684 Q413 638 402.5 593 Q392 548 383.5 514 Q375 480 372 476 Q369 472 355.5 466 Q342 460 322 450.5 Q302 441 276 428 Q250 415 222 399 Q232 390 250.5 379.5 Q269 369 287 358.5 Q305 348 319 339 Q333 330 335 325 Q336 319 335 310.5 Q334 302 331.5 293 Q329 284 327 277 Q325 270 325 269 Q310 222 299.5 188.5 Q289 155 280.5 125.5 Q272 96 263 67 Q254 38 241 -1 Q258 2 289 5 Q315 7 358 9 Q401 11 467 11 Q468 1 475 -3.5 Q482 -8 489.5 -11 Q497 -14 503 -18 Q509 -22 509 -32 Z " />
<glyph glyph-name="bar" unicode="&#x7c;" horiz-adv-x="340" d="M234 321 Q226 302 219 275 Q212 248 204 220.5 Q196 193 185 167 Q174 141 158 124 Q156 119 159.5 114.5 Q163 110 165 105 Q154 96 149 85 Q144 74 142 63 Q140 52 139 41 Q138 30 134 21 Q126 17 119 11 Q112 5 105.5 -1 Q99 -7 91 -12 Q83 -17 72 -19 Q52 -12 40.5 -4.5 Q29 3 13 11 Q1 29 0.5 50 Q0 71 6.5 92 Q13 113 23.5 132 Q34 151 43 165 Q50 181 57 197 Q64 213 72 233.5 Q80 254 88 275.5 Q96 297 102 314 Q102 332 113.5 363 Q125 394 138 427.5 Q151 461 161 490.5 Q171 520 167 534 Q179 552 189 587 Q199 622 211 657.5 Q223 693 239 721.5 Q255 750 279 756 Q306 727 319.5 694 Q333 661 340 616 Q335 602 326 578.5 Q317 555 305.5 526 Q294 497 282 466 Q270 435 259.5 406.5 Q249 378 242 355.5 Q235 333 234 321 Z " />
<glyph glyph-name="braceright" unicode="&#x7d;" horiz-adv-x="493" d="M452 404 Q452 390 459.5 379.5 Q467 369 470 356 Q478 323 464 295.5 Q450 268 421 262 Q412 267 407 266 Q402 265 394 271 Q380 257 361.5 244 Q343 231 324 236 Q322 227 316 227 Q310 227 308 217 Q293 213 282 204.5 Q271 196 257 188 Q246 152 237 123.5 Q228 95 219.5 67 Q211 39 201 8.5 Q191 -22 177 -62 Q176 -74 168.5 -86.5 Q161 -99 153 -109 Q144 -107 136.5 -113 Q129 -119 122 -127 Q95 -123 67.5 -126 Q40 -129 17 -132 Q13 -132 13.5 -136.5 Q14 -141 11 -142 Q-18 -132 -49 -134.5 Q-80 -137 -112.5 -144 Q-145 -151 -178.5 -159.5 Q-212 -168 -246 -169 Q-259 -160 -267 -146.5 Q-275 -133 -280.5 -117.5 Q-286 -102 -290 -85.5 Q-294 -69 -297 -54 Q-297 -40 -291 -34 Q-285 -28 -279 -21 Q-256 -20 -237.5 -17.5 Q-219 -15 -202 -12.5 Q-185 -10 -168 -7.5 Q-151 -5 -130 -5 Q-123 -1 -104.5 1.5 Q-86 4 -62 6 Q-38 8 -11.5 9 Q15 10 39 10 Q51 52 65.5 92.5 Q80 133 91 173 Q98 198 105 224.5 Q112 251 119 273 Q122 277 135.5 284.5 Q149 292 170 302.5 Q191 313 217 326 Q243 339 271 356 Q261 365 242.5 375.5 Q224 386 206 396.5 Q188 407 173.5 416 Q159 425 158 431 Q156 436 159 447 Q162 458 166 469.5 Q170 481 173.5 490 Q177 499 177 501 Q186 535 196 565 Q206 595 215.5 626.5 Q225 658 233.5 693 Q242 728 249 772 Q210 776 176.5 775.5 Q143 775 123 772 Q75 764 49 757.5 Q23 751 13 746 Q-4 747 -14 753.5 Q-24 760 -30 770 Q-36 780 -40.5 792 Q-45 804 -51 817 Q-47 826 -49 842.5 Q-51 859 -59 867 Q-52 869 -48.5 880.5 Q-45 892 -48 897 Q-33 902 -17 903.5 Q-1 905 15 906.5 Q31 908 45.5 910.5 Q60 913 71 920 Q115 922 162.5 925 Q210 928 252 930 Q267 925 287 924.5 Q307 924 326.5 921 Q346 918 362.5 909 Q379 900 385 876 Q398 874 403.5 868.5 Q409 863 411 854.5 Q413 846 412.5 836.5 Q412 827 412 817 Q403 790 397.5 761.5 Q392 733 384.5 700.5 Q377 668 369 633 Q361 598 352 564 Q348 549 343 528 Q338 507 334 493 Q356 479 378 462 Q400 445 420 433 Q419 425 429.5 415.5 Q440 406 452 404 Z " />
<glyph glyph-name="asciitilde" unicode="&#x7e;" horiz-adv-x="595" d="M33 219 Q18 220 9 226.5 Q0 233 0 244 Q0 254 9 262 Q15 277 21.5 286.5 Q28 296 35 306 Q45 320 55 334 Q65 348 77 362 Q83 367 87 369 Q98 377 109 384.5 Q120 392 134 397 Q159 406 183 406.5 Q207 407 224 406 Q238 405 250.5 403.5 Q263 402 272 400 Q287 393 296.5 387 Q306 381 315 373 Q326 367 332.5 360.5 Q339 354 344 347 Q347 343 356 334 Q365 325 378 325 Q390 325 398.5 336 Q407 347 416 355 Q424 376 442 387 Q450 391 455.5 392 Q461 393 466 394 Q469 395 472 395.5 Q475 396 477 397 L488 398 L501 398 Q518 403 531 403 Q546 402 555 395.5 Q564 389 564 378 Q564 367 555 360 Q549 344 542.5 335 Q536 326 529 316 Q519 302 509 288 Q499 274 486 260 Q482 255 476 253 Q466 245 455 237.5 Q444 230 430 225 Q404 216 380.5 215.5 Q357 215 340 216 Q326 217 313.5 218.5 Q301 220 291 222 Q277 229 267 235 Q257 241 248 248 Q237 255 231 261.5 Q225 268 220 275 Q217 279 207 288.5 Q197 298 186 297 Q175 296 165.5 285.5 Q156 275 147 267 Q141 247 122 235 Q114 231 108.5 230 Q103 229 98 228 Q95 227 92 226.5 Q89 226 87 225 L76 224 L63 224 Q46 219 33 219 Z " />
<glyph glyph-name="Adieresis" unicode="&#xc4;" horiz-adv-x="719" d="M-26 95 L-13 105 L-12 126 Q13 187 39.5 243 Q66 299 95 358 Q104 377 113.5 396 Q123 415 132 435 Q131 439 131 443.5 Q131 448 133 454 Q147 474 155.5 490 Q164 506 172 523 Q181 543 191.5 563 Q202 583 218 602 L225 612 L236 611 Q240 613 244.5 614.5 Q249 616 256 616 L274 613 Q307 628 332.5 656.5 Q358 685 384 725 L396 742 L412 732 Q417 729 428 726 Q439 723 451 719 Q472 714 492 707.5 Q512 701 523 690 L528 681 Q530 670 531.5 661 Q533 652 535 643 Q539 622 542 601.5 Q545 581 546 556 Q551 536 555.5 515.5 Q560 495 564 475 Q569 446 575 419.5 Q581 393 591 369 Q601 369 603 368 Q615 373 631 374 L644 375 L648 363 Q650 360 653 357 Q656 354 660 351 Q676 350 683.5 344.5 Q691 339 696 334 Q698 332 701 329.5 Q704 327 706 326 L724 319 L714 300 Q703 279 680.5 259 Q658 239 630 226 Q632 219 632.5 213 Q633 207 635 199 Q639 179 641.5 157.5 Q644 136 641 113 Q631 87 617.5 66.5 Q604 46 585.5 29.5 Q567 13 544 2.5 Q521 -8 496 -9 Q482 -6 475.5 -2 Q469 2 464 6 Q456 12 451 14 L438 20 L442 35 Q445 43 441.5 49 Q438 55 427 65 Q423 68 420 71.5 Q417 75 413 79 L393 102 L426 111 Q456 119 466 131.5 Q476 144 474 176 Q449 181 433 177.5 Q417 174 401 170 Q378 164 356 159.5 Q334 155 308 155 Q291 155 272 158 L261 159 L258 170 Q258 172 255.5 174.5 Q253 177 251 179 Q246 185 239 195 Q232 205 236 220 Q229 231 228 243 Q224 235 221.5 227.5 Q219 220 217 213 L213 200 L200 198 Q198 196 196.5 192 Q195 188 196 186 L200 175 L190 166 Q188 163 185 161 Q182 159 180 157 Q178 146 174.5 136 Q171 126 167 116 Q162 100 157.5 85 Q153 70 153 55 L149 42 Q144 34 136.5 30 Q129 26 122 23 Q112 19 108 15 L105 2 L90 0 Q77 -3 71.5 -4 Q66 -5 59 -5 L46 -4 Q34 8 26.5 14.5 Q19 21 9 26 L3 34 Q-1 42 -2 48.5 Q-3 55 -5 62 Q-7 75 -11 80 L-26 95 Z M293 355 Q279 335 266 313 Q273 314 279.5 314 Q286 314 293 315 Q328 317 358 320 Q388 323 423 330 Q415 367 405.5 405.5 Q396 444 385 483 L380 473 Q355 446 332 415 Q309 384 294 356 L293 355 Z M679 899 L680 888 Q673 876 668.5 868 Q664 860 662 851 Q651 840 645 837.5 Q639 835 634 833 Q623 829 619 825 L609 810 L599 819 L584 805 Q573 814 568 818.5 Q563 823 558.5 826 Q554 829 546.5 832.5 Q539 836 523 843 L509 848 L513 861 Q515 866 514.5 879 Q514 892 515 901 Q516 917 515 931 Q514 945 520 956 Q541 967 553 971 Q563 970 572 969 Q581 968 590 967 Q597 966 599 965.5 Q601 965 601.5 965 Q602 965 604 965.5 Q606 966 612 968 L624 966 Q631 963 635.5 957.5 Q640 952 645 947 Q649 939 653 937 L665 936 L669 924 Q674 914 675.5 909.5 Q677 905 679 899 Z M380 938 Q391 926 402 916 Q413 906 415 894 Q411 878 408.5 872 Q406 866 403 859 Q390 848 373 836 Q367 831 365 830 Q363 829 362.5 828.5 Q362 828 361.5 826.5 Q361 825 358 819 L348 812 Q340 809 333 809.5 Q326 810 319 811 Q316 811 311.5 811.5 Q307 812 305 812 L297 804 L285 809 Q274 814 269.5 815.5 Q265 817 260 821 L251 827 Q247 842 244.5 850.5 Q242 859 238 867 Q238 884 240 890 Q242 896 244 901 Q250 912 249 917 L245 935 L260 936 L260 957 Q274 958 281 958 Q288 958 294 959.5 Q300 961 307.5 964 Q315 967 332 974 L346 980 L352 967 Q354 963 363.5 954 Q373 945 380 938 Z " />
<glyph glyph-name="Aring" unicode="&#xc5;" horiz-adv-x="719" d="M293 355 Q279 335 266 313 L293 315 Q328 317 358 320 Q388 323 423 330 Q415 367 405.5 405.5 Q396 444 385 483 L380 473 Q355 446 332 415 Q309 384 294 356 L293 355 Z M572 701 Q567 695 561 694 Q555 693 547 691 Q543 689 538 686.5 Q533 684 528 682 Q530 670 531.5 661 Q533 652 535 643 Q539 622 542 601.5 Q545 581 546 556 Q551 536 555.5 515.5 Q560 495 564 475 Q569 446 575 419.5 Q581 393 591 369 Q601 369 603 368 Q615 373 631 374 L644 375 L648 363 Q650 360 653 357 Q656 354 660 351 Q676 350 683.5 344.5 Q691 339 696 334 Q698 332 701 329.5 Q704 327 706 326 L724 319 L714 300 Q703 279 680.5 259 Q658 239 630 226 Q632 219 632.5 213 Q633 207 635 199 Q639 179 641.5 157.5 Q644 136 641 113 Q631 87 617.5 66.5 Q604 46 585.5 29.5 Q567 13 544 2.5 Q521 -8 496 -9 Q482 -6 475.5 -2 Q469 2 464 6 Q456 12 451 14 L438 20 L442 35 Q445 43 441.5 49 Q438 55 427 65 Q423 68 420 71.5 Q417 75 413 79 L393 102 L426 111 Q456 119 466 131.5 Q476 144 474 176 Q449 181 433 177.5 Q417 174 401 170 Q378 164 356 159.5 Q334 155 308 155 Q291 155 272 158 L261 159 L258 170 Q258 172 255.5 174.5 Q253 177 251 179 Q246 185 239 195 Q232 205 236 220 Q229 231 228 243 Q224 235 221.5 227.5 Q219 220 217 213 L213 200 L200 198 Q198 196 196.5 192 Q195 188 196 186 L200 175 L190 166 Q188 163 185 161 Q182 159 180 157 Q178 146 174.5 136 Q171 126 167 116 Q162 100 157.5 85 Q153 70 153 55 L149 42 Q144 34 136.5 30 Q129 26 122 23 Q112 19 108 15 L105 2 L90 0 Q77 -3 71.5 -4 Q66 -5 59 -5 L46 -4 Q34 8 26.5 14.5 Q19 21 9 26 L3 34 Q-1 42 -2 48.5 Q-3 55 -5 62 Q-7 75 -11 80 L-26 95 L-13 105 L-12 126 Q13 187 39.5 243 Q66 299 95 358 Q104 377 113.5 396 Q123 415 132 435 Q131 439 131 443.5 Q131 448 133 454 Q147 474 155.5 490 Q164 506 172 523 Q181 543 191.5 563 Q202 583 218 602 L225 612 L236 611 Q240 613 244.5 614.5 Q249 616 256 616 L274 613 Q321 639 358 688 Q339 705 330 730 Q326 758 332 781.5 Q338 805 349 825 Q360 845 374.5 862 Q389 879 403 895 Q409 893 411.5 898.5 Q414 904 419 906 Q422 914 429 917.5 Q436 921 440 928 Q448 930 453 936 Q458 942 466 944 Q475 953 479.5 958 Q484 963 490 971 Q495 972 497.5 971.5 Q500 971 505 973 Q510 980 513 983 Q516 986 522 991 Q529 988 536 987 Q543 986 549 980 Q549 975 551.5 972 Q554 969 557 967 Q560 965 563 962 Q566 959 567 955 Q574 949 576 947 Q578 945 580 938 Q578 933 576.5 927.5 Q575 922 570 920 Q575 908 574 907 Q585 887 595 865.5 Q605 844 617 824 Q615 812 621 801.5 Q627 791 629 780 Q631 762 626.5 751 Q622 740 614 731.5 Q606 723 595 715.5 Q584 708 574 699 L572 701 Z M508 796 Q510 806 510 809 Q506 815 503 822 Q500 829 496 835 Q491 830 488.5 830.5 Q486 831 484 833 Q479 828 473.5 823.5 Q468 819 463 814 Q457 806 452 800.5 Q447 795 447 786 Q454 781 464 782.5 Q474 784 482 784 Q490 787 496 790 Q502 793 508 796 Z " />
<glyph glyph-name="Ccedilla" unicode="&#xc7;" horiz-adv-x="626" d="M402 -149 Q417 -163 425 -181.5 Q433 -200 428 -225 Q419 -245 404.5 -259.5 Q390 -274 369 -290 Q351 -298 334 -302 Q317 -306 304 -314 Q298 -312 292.5 -312.5 Q287 -313 284 -311 Q267 -319 246.5 -322 Q226 -325 203 -319 Q186 -321 169.5 -320.5 Q153 -320 139.5 -316.5 Q126 -313 116 -306.5 Q106 -300 103 -288 Q85 -278 79 -261 Q73 -244 84 -227 Q92 -226 99 -220 Q140 -221 183 -220.5 Q226 -220 275 -209 Q276 -204 280.5 -201.5 Q285 -199 290 -197 Q295 -195 300 -193 Q305 -191 307 -187 Q307 -184 305 -182.5 Q303 -181 300.5 -179.5 Q298 -178 296 -176 Q294 -174 295 -170 Q284 -171 270.5 -166.5 Q257 -162 249 -156 Q232 -155 225 -153.5 Q218 -152 212.5 -150 Q207 -148 200 -145 Q193 -142 177 -137 Q171 -131 165 -127 Q159 -123 154 -119.5 Q149 -116 145.5 -111.5 Q142 -107 141 -98 Q141 -88 141.5 -81 Q142 -74 142.5 -66.5 Q143 -59 144.5 -51 Q146 -43 149 -32 Q157 -24 171.5 -6 Q186 12 206 28 Q191 33 176.5 37 Q162 41 148 46 Q137 59 125 70.5 Q113 82 93 87 Q64 109 45.5 142 Q27 175 16.5 212 Q6 249 2.5 288.5 Q-1 328 0 364 Q9 391 22 413.5 Q35 436 51 456.5 Q67 477 84.5 495.5 Q102 514 119 533 Q125 533 130 530 Q134 541 142 549 Q150 557 159 563.5 Q168 570 177 576.5 Q186 583 192 592 Q217 598 236.5 609 Q256 620 274 633 Q292 646 311 657 Q330 668 355 674 Q364 684 377.5 691 Q391 698 404.5 704 Q418 710 430.5 717 Q443 724 451 736 Q457 728 468 730.5 Q479 733 488 736 Q494 737 498 734 Q502 731 505.5 727.5 Q509 724 511.5 723 Q514 722 517 729 Q525 728 521.5 722 Q518 716 517 714 Q527 716 533.5 710.5 Q540 705 554 703 Q559 698 557 695 Q555 692 554 685 Q590 674 600 650.5 Q610 627 602 601.5 Q594 576 572.5 554.5 Q551 533 525 526 Q494 518 467.5 510 Q441 502 416.5 492 Q392 482 370.5 468.5 Q349 455 333 437 Q305 429 282.5 415 Q260 401 240.5 384 Q221 367 203 348.5 Q185 330 167 312 Q167 295 161 286 Q155 277 148 268 Q150 249 156.5 235.5 Q163 222 170 208 Q250 184 339.5 178.5 Q429 173 517 172 Q526 160 537.5 149.5 Q549 139 558.5 128 Q568 117 573.5 102.5 Q579 88 576 68 Q559 51 539 35.5 Q519 20 499 5 Q490 4 477.5 5 Q465 6 451.5 6 Q438 6 424.5 4.5 Q411 3 399 -2 Q353 -1 305 7 L266 -51 Q269 -57 277.5 -58 Q286 -59 288 -65 Q310 -68 324.5 -76.5 Q339 -85 351 -95.5 Q363 -106 374 -117.5 Q385 -129 400 -138 Q400 -141 402 -142.5 Q404 -144 402 -149 Z " />
<glyph glyph-name="Eacute" unicode="&#xc9;" horiz-adv-x="642" d="M56 34 Q48 42 44.5 53 Q41 64 28 71 Q26 86 22.5 105.5 Q19 125 15.5 145.5 Q12 166 10.5 186.5 Q9 207 12 224 Q14 233 18.5 241 Q23 249 27.5 256.5 Q32 264 34.5 272 Q37 280 35 288 Q41 289 42.5 294.5 Q44 300 52 298 Q59 320 67 339 Q75 358 84 376 Q93 394 102.5 412.5 Q112 431 120 454 Q103 470 95.5 488.5 Q88 507 84 526 Q80 545 78 564.5 Q76 584 70 604 Q82 622 99 633.5 Q116 645 136.5 652.5 Q157 660 181 664.5 Q205 669 232 675 Q280 690 318 698.5 Q356 707 392 712.5 Q428 718 467 722.5 Q506 727 557 736 Q558 733 560.5 733 Q563 733 567 733 Q570 726 578 726 Q578 729 577.5 731.5 Q577 734 577 736 Q579 736 582.5 735 Q586 734 588.5 733 Q591 732 593 733.5 Q595 735 594 740 Q606 719 625 705.5 Q644 692 667 682 Q668 673 667.5 669 Q667 665 666 661.5 Q665 658 665 653.5 Q665 649 667 641 Q651 614 630.5 599 Q610 584 587 576 Q564 568 538.5 564 Q513 560 486.5 555.5 Q460 551 433 543 Q406 535 380 519 Q372 522 365.5 521.5 Q359 521 352 519 Q345 517 336.5 515 Q328 513 316 515 Q308 508 297.5 505 Q287 502 276 499 Q281 488 280.5 477 Q280 466 283 458 Q325 454 376 458.5 Q427 463 476 465 Q477 460 475 458 Q473 456 473 451 Q482 445 490 436 Q498 427 506.5 418.5 Q515 410 524 404.5 Q533 399 545 400 Q550 390 552 379 Q554 368 549 356 Q529 343 510 329.5 Q491 316 470.5 305 Q450 294 426 287 Q402 280 374 281 Q369 281 365.5 281 Q362 281 357 285 Q347 280 330.5 281.5 Q314 283 303 278 Q289 283 270.5 283 Q252 283 238 288 Q220 262 204 233.5 Q188 205 176 173 Q217 167 244 168 Q271 169 295 172 Q319 175 344.5 178 Q370 181 407 180 Q432 192 464.5 196.5 Q497 201 525 210 Q535 207 542 198.5 Q549 190 555.5 181.5 Q562 173 569 167 Q576 161 587 163 Q592 158 593.5 151 Q595 144 596.5 138 Q598 132 601 128.5 Q604 125 612 126 Q593 87 569.5 66 Q546 45 516.5 33.5 Q487 22 450.5 16.5 Q414 11 369 3 Q358 1 350.5 3.5 Q343 6 335 6 Q307 1 268.5 -4 Q230 -9 191 -8 Q152 -7 116 2 Q80 11 56 34 Z M590 952 Q582 950 563.5 938 Q545 926 516 900 Q501 887 480 867.5 Q459 848 434.5 829.5 Q410 811 384 797 Q358 783 334 782 Q327 789 320 796 Q313 803 308.5 810 Q304 817 303 825 Q302 833 308 843 Q295 864 297 875 Q299 886 307.5 894 Q316 902 326.5 909 Q337 916 341 930 Q364 955 391.5 981.5 Q419 1008 443 1035 Q453 1037 462.5 1044.5 Q472 1052 481 1061 Q490 1070 499.5 1079.5 Q509 1089 520 1095 Q522 1089 531.5 1083.5 Q541 1078 546 1081 Q547 1070 557 1059.5 Q567 1049 575 1045 Q581 1031 587 1019.5 Q593 1008 596 997 Q599 986 598.5 975 Q598 964 590 952 Z " />
<glyph glyph-name="Ntilde" unicode="&#xd1;" horiz-adv-x="701" d="M181 94 Q171 86 169 73.5 Q167 61 164 49 Q161 37 153.5 28.5 Q146 20 127 21 Q123 16 125.5 15 Q128 14 130 6 Q116 8 110 4 Q104 0 95 -2 Q72 5 56.5 23.5 Q41 42 29.5 64 Q18 86 9.5 109 Q1 132 -8 149 Q-8 153 -4.5 152.5 Q-1 152 2 152 Q-3 162 -5.5 174.5 Q-8 187 -15 195 Q14 257 47 324.5 Q80 392 113.5 461.5 Q147 531 180.5 601.5 Q214 672 245 740 Q273 730 299.5 716.5 Q326 703 348 685 Q370 667 385.5 643.5 Q401 620 406 590 Q404 584 401 586 Q398 588 396 584 Q401 578 401.5 575.5 Q402 573 401 570.5 Q400 568 400 564 Q400 560 405 553 Q400 554 398 551.5 Q396 549 391 551 Q396 537 394 529 Q392 521 388 514.5 Q384 508 381.5 500.5 Q379 493 383 480 Q379 480 377.5 478.5 Q376 477 375 475 Q374 473 372.5 471.5 Q371 470 367 471 Q370 445 369 418.5 Q368 392 367 364.5 Q366 337 367 308 Q368 279 375 248 Q418 273 444.5 313 Q471 353 486.5 402 Q502 451 510.5 507 Q519 563 528 621 Q539 632 545.5 648 Q552 664 556.5 681 Q561 698 565.5 715.5 Q570 733 578 747 Q596 745 608.5 736.5 Q621 728 632 717.5 Q643 707 655 698 Q667 689 685 686 Q699 666 711 647.5 Q723 629 727 606 Q721 596 718 584 Q715 572 711.5 560 Q708 548 702 538 Q696 528 685 521 Q682 491 676 465 Q670 439 665 414 Q660 389 656 362 Q652 335 653 303 Q644 274 633 243.5 Q622 213 617 187 Q598 172 587 150 Q576 128 564 106 Q559 102 558 104.5 Q557 107 549 108 Q550 99 545.5 96.5 Q541 94 546 82 Q529 74 516 61 Q503 48 487.5 37 Q472 26 451.5 22.5 Q431 19 398 31 Q349 67 310 114 Q271 161 248 225 Q238 222 233 212 Q228 202 224 191 Q220 180 216 171 Q212 162 204 162 Q202 153 196.5 145.5 Q191 138 186 130.5 Q181 123 178.5 114 Q176 105 181 94 Z M732 1009 Q749 1008 758.5 1000 Q768 992 768 978 Q766 966 761 958 Q754 942 748.5 933.5 Q743 925 737 916 Q728 902 719.5 889 Q711 876 700 862 Q693 856 689 854 Q680 846 670 839.5 Q660 833 649 828 Q631 821 615.5 819.5 Q600 818 582 818 L568 818 Q557 819 545.5 820 Q534 821 526 823 Q511 831 502.5 837 Q494 843 486 849 Q477 855 471 862 Q465 869 460 876 Q456 882 450.5 887.5 Q445 893 440 893 Q435 892 430.5 887 Q426 882 421 877 Q419 875 417 872.5 Q415 870 413 868 Q407 849 389 837 Q380 832 375 831 Q370 830 366 828 L356 826 L346 824 L336 825 Q321 820 311 820 Q291 821 281.5 829.5 Q272 838 272 851 Q274 863 279 871 Q287 887 292.5 896 Q298 905 304 914 Q312 927 320.5 940 Q329 953 340 967 Q347 973 351 975 Q360 983 370 989.5 Q380 996 391 1001 Q409 1008 424.5 1009.5 Q440 1011 458 1011 L472 1011 Q495 1009 514 1006 Q529 998 537.5 992 Q546 986 554 980 Q563 974 569 967 Q575 960 580 953 Q592 936 601 937 Q606 937 610 941.5 Q614 946 619 952 Q621 955 627 961 Q633 980 651 992 Q665 999 674 1001 L684 1003 L694 1005 L704 1005 Q716 1009 729 1009 L732 1009 Z " />
<glyph glyph-name="Odieresis" unicode="&#xd6;" horiz-adv-x="762" d="M241 -4 Q197 -10 161 0 Q125 10 96.5 31 Q68 52 47.5 81 Q27 110 14 143 Q5 211 19 266.5 Q33 322 60 369 Q87 416 121.5 457 Q156 498 188 536 Q195 533 199.5 536 Q204 539 207.5 544 Q211 549 215.5 554 Q220 559 226 561 Q230 570 236.5 576 Q243 582 250.5 587.5 Q258 593 264.5 599 Q271 605 276 614 Q286 616 293.5 621 Q301 626 307.5 632 Q314 638 321 643 Q328 648 338 651 L338 664 Q360 674 370 686 Q380 698 394 717 Q405 718 411.5 718 Q418 718 432 720 Q441 737 449 745 Q457 753 472 763 Q487 755 504 753.5 Q521 752 535 738 Q536 726 542 719.5 Q548 713 555 707.5 Q562 702 569 696 Q576 690 578 679 Q583 679 584.5 681 Q586 683 591 682 Q593 674 595 669 Q597 664 599.5 660 Q602 656 604.5 651 Q607 646 609 639 Q604 627 600 613.5 Q596 600 584 595 Q584 587 590 586.5 Q596 586 597 579 Q598 570 594 564 Q622 517 645 465.5 Q668 414 697 367 Q695 353 698.5 339.5 Q702 326 707.5 313 Q713 300 718 287 Q723 274 725 261 Q727 244 725 224.5 Q723 205 717 187 Q711 169 701 153.5 Q691 138 678 130 Q662 110 638 97.5 Q614 85 594 68 Q580 60 564 56.5 Q548 53 531 49 Q518 41 500 33.5 Q482 26 463 20 Q444 14 425 10.5 Q406 7 391 9 Q355 -4 321 -9 Q287 -14 241 -4 Z M254 360 Q244 337 230.5 318.5 Q217 300 204 281 Q191 262 181.5 240.5 Q172 219 171 190 Q191 173 218.5 169.5 Q246 166 275 168.5 Q304 171 333 176 Q362 181 385 181 Q385 190 393 190 Q435 194 471 213.5 Q507 233 546 253 Q551 265 559 274 Q567 283 568 300 Q563 309 561.5 315 Q560 321 560 333 Q534 369 515 411.5 Q496 454 471 492 Q469 487 463 482 Q457 477 450 484 Q447 474 441 470.5 Q435 467 427.5 467 Q420 467 412.5 470 Q405 473 399 478 Q364 450 329.5 424 Q295 398 267 363 Q262 360 261 361 Q260 362 254 360 Z M720 899 L721 888 Q714 876 709.5 868 Q705 860 703 851 Q692 840 686 837.5 Q680 835 675 833 Q664 829 660 825 L650 810 L640 819 L625 805 Q614 814 609 818.5 Q604 823 599.5 826 Q595 829 587.5 832.5 Q580 836 564 843 L550 848 L554 861 Q556 866 555.5 879 Q555 892 556 901 Q557 917 556 931 Q555 945 561 956 Q582 967 594 971 Q604 970 613 969 Q622 968 631 967 Q638 966 640 965.5 Q642 965 642.5 965 Q643 965 645 965.5 Q647 966 653 968 L665 966 Q672 963 676.5 957.5 Q681 952 686 947 Q690 939 694 937 L706 936 L710 924 Q715 914 716.5 909.5 Q718 905 720 899 Z M421 938 Q432 926 443 916 Q454 906 456 894 Q452 878 449.5 872 Q447 866 444 859 Q431 848 414 836 Q408 831 406 830 Q404 829 403.5 828.5 Q403 828 402.5 826.5 Q402 825 399 819 L389 812 Q381 809 374 809.5 Q367 810 360 811 Q357 811 352.5 811.5 Q348 812 346 812 L338 804 L326 809 Q315 814 310.5 815.5 Q306 817 301 821 L292 827 Q288 842 285.5 850.5 Q283 859 279 867 Q279 884 281 890 Q283 896 285 901 Q291 912 290 917 L286 935 L301 936 L301 957 Q315 958 322 958 Q329 958 335 959.5 Q341 961 348.5 964 Q356 967 373 974 L387 980 L393 967 Q395 963 404.5 954 Q414 945 421 938 Z " />
<glyph glyph-name="Udieresis" unicode="&#xdc;" horiz-adv-x="712" d="M72 495 Q70 508 67 511 Q74 529 77.5 546.5 Q81 564 83 580 Q85 594 87.5 606 Q90 618 94 629 Q111 633 119.5 643.5 Q128 654 133 662 Q151 663 156.5 657 Q162 651 169 637 Q174 626 183 613.5 Q192 601 210 594 Q213 583 217 573 Q221 563 226 552 Q235 531 243 508.5 Q251 486 252 466 Q240 443 233.5 413 Q227 383 225.5 352.5 Q224 322 227 294 Q230 266 237 247 L243 231 L265 233 Q301 242 330 253.5 Q359 265 384 281 Q409 297 432 317.5 Q455 338 480 366 Q504 394 523 429.5 Q542 465 554.5 503 Q567 541 574 579 Q581 617 583 650 Q602 659 604 679 L601 692 Q598 697 598.5 701.5 Q599 706 601 710 Q609 733 635 744 Q653 732 668.5 718 Q684 704 697 690 Q699 663 705 643.5 Q711 624 718 606 Q725 589 730.5 573 Q736 557 738 534 Q728 504 723.5 477.5 Q719 451 715 422 L713 411 Q695 380 677.5 347.5 Q660 315 649 291 Q643 285 638.5 277 Q634 269 630 261 Q628 258 624.5 251 Q621 244 618 241 L594 250 L588 219 L572 215 L560 201 Q537 161 511.5 134 Q486 107 454.5 86 Q423 65 383.5 46.5 Q344 28 293 7 Q273 10 258.5 10.5 Q244 11 230 12 Q216 12 203 13 Q190 14 173 16 Q169 25 162 29 Q155 33 149 33 Q129 43 119 61 Q109 79 98 101 Q93 113 87.5 125 Q82 137 74 148 L94 154 L68 184 Q65 187 61.5 190 Q58 193 55 197 L55 216 Q51 298 51.5 367.5 Q52 437 70 490 L72 495 Z M660 899 L661 888 Q654 876 649.5 868 Q645 860 643 851 Q632 840 626 837.5 Q620 835 615 833 Q604 829 600 825 L590 810 L580 819 L565 805 Q554 814 549 818.5 Q544 823 539.5 826 Q535 829 527.5 832.5 Q520 836 504 843 L490 848 L494 861 Q496 866 495.5 879 Q495 892 496 901 Q497 917 496 931 Q495 945 501 956 Q522 967 534 971 Q544 970 553 969 Q562 968 571 967 Q578 966 580 965.5 Q582 965 582.5 965 Q583 965 585 965.5 Q587 966 593 968 L605 966 Q612 963 616.5 957.5 Q621 952 626 947 Q630 939 634 937 L646 936 L650 924 Q655 914 656.5 909.5 Q658 905 660 899 Z M361 938 Q372 926 383 916 Q394 906 396 894 Q392 878 389.5 872 Q387 866 384 859 Q371 848 354 836 Q348 831 346 830 Q344 829 343.5 828.5 Q343 828 342.5 826.5 Q342 825 339 819 L329 812 Q321 809 314 809.5 Q307 810 300 811 Q297 811 292.5 811.5 Q288 812 286 812 L278 804 L266 809 Q255 814 250.5 815.5 Q246 817 241 821 L232 827 Q228 842 225.5 850.5 Q223 859 219 867 Q219 884 221 890 Q223 896 225 901 Q231 912 230 917 L226 935 L241 936 L241 957 Q255 958 262 958 Q269 958 275 959.5 Q281 961 288.5 964 Q296 967 313 974 L327 980 L333 967 Q335 963 344.5 954 Q354 945 361 938 Z " />
<glyph glyph-name="aacute" unicode="&#xe1;" horiz-adv-x="595" d="M529 84 Q523 67 511.5 49.5 Q500 32 484.5 18.5 Q469 5 450 -4 Q431 -13 410 -14 Q397 -11 392.5 -7.5 Q388 -4 383 -1 Q380 1 377.5 2.5 Q375 4 373 5 L361 10 L365 23 Q367 31 364 35.5 Q361 40 352 48 Q349 51 346 54 Q343 57 341 60 L324 79 L351 86 Q376 93 384.5 104 Q393 115 391 141 Q371 145 357.5 142 Q344 139 330 135 Q312 130 293.5 126.5 Q275 123 253 123 Q245 123 238 123.5 Q231 124 223 125 L213 127 Q211 138 209 139.5 Q207 141 205 143 Q200 148 194.5 156.5 Q189 165 192 178 Q187 187 186 196 Q180 184 177 171 L173 161 L163 159 Q161 158 160 154.5 Q159 151 159 149 L154 132 Q152 130 150 128.5 Q148 127 146 125 Q144 116 141 107 Q138 98 135 90 Q130 77 126.5 64.5 Q123 52 124 40 L120 29 Q115 23 109 19.5 Q103 16 97 13 Q95 11 91.5 9.5 Q88 8 86 7 L83 -4 L71 -6 Q60 -8 55.5 -9 Q51 -10 45 -10 L35 -9 Q24 0 18 5.5 Q12 11 4 16 Q-5 28 -6 34 Q-7 40 -8 45 Q-10 51 -10.5 55 Q-11 59 -13 61 L-26 73 L-15 82 L-14 99 Q6 150 28.5 197 Q51 244 75 293 Q83 309 90.5 325 Q98 341 106 357 Q105 360 105 364 Q105 368 107 373 Q118 390 125 403.5 Q132 417 139 431 Q147 448 155.5 464 Q164 480 177 497 L193 504 Q196 505 200 506.5 Q204 508 209 508 L224 506 Q252 519 273 542.5 Q294 566 316 599 L326 613 L339 605 Q344 602 353 599.5 Q362 597 372 594 Q390 590 406 585 Q422 580 432 570 Q438 554 439 546 Q440 538 442 530 Q445 513 447.5 496 Q450 479 451 458 Q456 441 459.5 424.5 Q463 408 466 391 Q471 367 476 344.5 Q481 322 489 302 Q497 302 499 301 Q504 303 509.5 304 Q515 305 522 306 L533 307 L537 297 Q538 292 547 287 Q560 286 566 281.5 Q572 277 577 272 Q581 268 585 266 L600 260 L592 245 Q582 227 563.5 210.5 Q545 194 522 183 Q523 177 523.5 171.5 Q524 166 526 160 Q529 143 531 125 Q533 107 531 88 L529 84 Z M240 257 Q270 259 294.5 261.5 Q319 264 349 270 Q342 300 334 332.5 Q326 365 317 397 L311 387 Q291 366 272.5 340 Q254 314 241 291 Q235 282 229 273 Q223 264 218 255 Q224 256 229.5 256 Q235 256 240 257 Z M519 829 Q511 827 492.5 815 Q474 803 445 777 Q430 764 409 744.5 Q388 725 363.5 706.5 Q339 688 313 674 Q287 660 263 659 Q256 666 249 673 Q242 680 237.5 687 Q233 694 232 702 Q231 710 237 720 Q224 741 226 752 Q228 763 236.5 771 Q245 779 255.5 786 Q266 793 270 807 Q293 832 320.5 858.5 Q348 885 372 912 Q382 914 391.5 921.5 Q401 929 410 938 Q419 947 428.5 956.5 Q438 966 449 972 Q451 966 460.5 960.5 Q470 955 475 958 Q476 947 486 936.5 Q496 926 504 922 Q510 908 516 896.5 Q522 885 525 874 Q528 863 527.5 852 Q527 841 519 829 Z " />
<glyph glyph-name="agrave" unicode="&#xe0;" horiz-adv-x="595" d="M529 84 Q523 67 511.5 49.5 Q500 32 484.5 18.5 Q469 5 450 -4 Q431 -13 410 -14 Q397 -11 392.5 -7.5 Q388 -4 383 -1 Q380 1 377.5 2.5 Q375 4 373 5 L361 10 L365 23 Q367 31 364 35.5 Q361 40 352 48 Q349 51 346 54 Q343 57 341 60 L324 79 L351 86 Q376 93 384.5 104 Q393 115 391 141 Q371 145 357.5 142 Q344 139 330 135 Q312 130 293.5 126.5 Q275 123 253 123 Q245 123 238 123.5 Q231 124 223 125 L213 127 Q211 138 209 139.5 Q207 141 205 143 Q200 148 194.5 156.5 Q189 165 192 178 Q187 187 186 196 Q180 184 177 171 L173 161 L163 159 Q161 158 160 154.5 Q159 151 159 149 L154 132 Q152 130 150 128.5 Q148 127 146 125 Q144 116 141 107 Q138 98 135 90 Q130 77 126.5 64.5 Q123 52 124 40 L120 29 Q115 23 109 19.5 Q103 16 97 13 Q95 11 91.5 9.5 Q88 8 86 7 L83 -4 L71 -6 Q60 -8 55.5 -9 Q51 -10 45 -10 L35 -9 Q24 0 18 5.5 Q12 11 4 16 Q-5 28 -6 34 Q-7 40 -8 45 Q-10 51 -10.5 55 Q-11 59 -13 61 L-26 73 L-15 82 L-14 99 Q6 150 28.5 197 Q51 244 75 293 Q83 309 90.5 325 Q98 341 106 357 Q105 360 105 364 Q105 368 107 373 Q118 390 125 403.5 Q132 417 139 431 Q147 448 155.5 464 Q164 480 177 497 L193 504 Q196 505 200 506.5 Q204 508 209 508 L224 506 Q252 519 273 542.5 Q294 566 316 599 L326 613 L339 605 Q344 602 353 599.5 Q362 597 372 594 Q390 590 406 585 Q422 580 432 570 Q438 554 439 546 Q440 538 442 530 Q445 513 447.5 496 Q450 479 451 458 Q456 441 459.5 424.5 Q463 408 466 391 Q471 367 476 344.5 Q481 322 489 302 Q497 302 499 301 Q504 303 509.5 304 Q515 305 522 306 L533 307 L537 297 Q538 292 547 287 Q560 286 566 281.5 Q572 277 577 272 Q581 268 585 266 L600 260 L592 245 Q582 227 563.5 210.5 Q545 194 522 183 Q523 177 523.5 171.5 Q524 166 526 160 Q529 143 531 125 Q533 107 531 88 L529 84 Z M240 257 Q270 259 294.5 261.5 Q319 264 349 270 Q342 300 334 332.5 Q326 365 317 397 L311 387 Q291 366 272.5 340 Q254 314 241 291 Q235 282 229 273 Q223 264 218 255 Q224 256 229.5 256 Q235 256 240 257 Z M235 819 Q227 831 226.5 842 Q226 853 229 864 Q232 875 238 886.5 Q244 898 250 912 Q258 916 268 926.5 Q278 937 279 948 Q284 945 293.5 950.5 Q303 956 305 962 Q316 956 325.5 946.5 Q335 937 344 928 Q353 919 362 911.5 Q371 904 382 902 Q406 875 433.5 848.5 Q461 822 484 797 Q488 783 498.5 776 Q509 769 517.5 761 Q526 753 528 742 Q530 731 517 710 Q523 700 522 692 Q521 684 516.5 677 Q512 670 505 663 Q498 656 491 649 Q467 650 441 664 Q415 678 390.5 696.5 Q366 715 345 734.5 Q324 754 309 767 Q280 793 261.5 805 Q243 817 235 819 Z " />
<glyph glyph-name="acircumflex" unicode="&#xe2;" horiz-adv-x="595" d="M529 84 Q523 67 511.5 49.5 Q500 32 484.5 18.5 Q469 5 450 -4 Q431 -13 410 -14 Q397 -11 392.5 -7.5 Q388 -4 383 -1 Q380 1 377.5 2.5 Q375 4 373 5 L361 10 L365 23 Q367 31 364 35.5 Q361 40 352 48 Q349 51 346 54 Q343 57 341 60 L324 79 L351 86 Q376 93 384.5 104 Q393 115 391 141 Q371 145 357.5 142 Q344 139 330 135 Q312 130 293.5 126.5 Q275 123 253 123 Q245 123 238 123.5 Q231 124 223 125 L213 127 Q211 138 209 139.5 Q207 141 205 143 Q200 148 194.5 156.5 Q189 165 192 178 Q187 187 186 196 Q180 184 177 171 L173 161 L163 159 Q161 158 160 154.5 Q159 151 159 149 L154 132 Q152 130 150 128.5 Q148 127 146 125 Q144 116 141 107 Q138 98 135 90 Q130 77 126.5 64.5 Q123 52 124 40 L120 29 Q115 23 109 19.5 Q103 16 97 13 Q95 11 91.5 9.5 Q88 8 86 7 L83 -4 L71 -6 Q60 -8 55.5 -9 Q51 -10 45 -10 L35 -9 Q24 0 18 5.5 Q12 11 4 16 Q-5 28 -6 34 Q-7 40 -8 45 Q-10 51 -10.5 55 Q-11 59 -13 61 L-26 73 L-15 82 L-14 99 Q6 150 28.5 197 Q51 244 75 293 Q83 309 90.5 325 Q98 341 106 357 Q105 360 105 364 Q105 368 107 373 Q118 390 125 403.5 Q132 417 139 431 Q147 448 155.5 464 Q164 480 177 497 L193 504 Q196 505 200 506.5 Q204 508 209 508 L224 506 Q252 519 273 542.5 Q294 566 316 599 L326 613 L339 605 Q344 602 353 599.5 Q362 597 372 594 Q390 590 406 585 Q422 580 432 570 Q438 554 439 546 Q440 538 442 530 Q445 513 447.5 496 Q450 479 451 458 Q456 441 459.5 424.5 Q463 408 466 391 Q471 367 476 344.5 Q481 322 489 302 Q497 302 499 301 Q504 303 509.5 304 Q515 305 522 306 L533 307 L537 297 Q538 292 547 287 Q560 286 566 281.5 Q572 277 577 272 Q581 268 585 266 L600 260 L592 245 Q582 227 563.5 210.5 Q545 194 522 183 Q523 177 523.5 171.5 Q524 166 526 160 Q529 143 531 125 Q533 107 531 88 L529 84 Z M240 257 Q270 259 294.5 261.5 Q319 264 349 270 Q342 300 334 332.5 Q326 365 317 397 L311 387 Q291 366 272.5 340 Q254 314 241 291 Q235 282 229 273 Q223 264 218 255 Q224 256 229.5 256 Q235 256 240 257 Z M202 647 Q201 657 193 666 Q185 675 179 679 Q174 691 169 701 Q164 711 161 720.5 Q158 730 159 739 Q160 748 166 759 Q174 761 188.5 772 Q203 783 226 805 Q237 815 252 830.5 Q267 846 285 861 Q303 876 322 888 Q341 900 359 905 Q369 907 373 907 Q393 900 412 888 Q431 876 449 861 Q467 846 482 830.5 Q497 815 508 805 Q531 783 545.5 772 Q560 761 568 759 Q574 748 575 739 Q576 730 573 720.5 Q570 711 565 701 Q560 691 555 679 Q549 675 541 666 Q533 657 532 647 Q528 650 520.5 645 Q513 640 511 635 Q502 640 494.5 648.5 Q487 657 479.5 665 Q472 673 464.5 679 Q457 685 449 687 Q429 710 407.5 733.5 Q386 757 367 778 Q348 757 326.5 733.5 Q305 710 285 687 Q277 685 269.5 679 Q262 673 254.5 665 Q247 657 239.5 648.5 Q232 640 223 635 Q221 640 213.5 645 Q206 650 202 647 Z " />
<glyph glyph-name="adieresis" unicode="&#xe4;" horiz-adv-x="595" d="M529 84 Q523 67 511.5 49.5 Q500 32 484.5 18.5 Q469 5 450 -4 Q431 -13 410 -14 Q397 -11 392.5 -7.5 Q388 -4 383 -1 Q380 1 377.5 2.5 Q375 4 373 5 L361 10 L365 23 Q367 31 364 35.5 Q361 40 352 48 Q349 51 346 54 Q343 57 341 60 L324 79 L351 86 Q376 93 384.5 104 Q393 115 391 141 Q371 145 357.5 142 Q344 139 330 135 Q312 130 293.5 126.5 Q275 123 253 123 Q245 123 238 123.5 Q231 124 223 125 L213 127 Q211 138 209 139.5 Q207 141 205 143 Q200 148 194.5 156.5 Q189 165 192 178 Q187 187 186 196 Q180 184 177 171 L173 161 L163 159 Q161 158 160 154.5 Q159 151 159 149 L154 132 Q152 130 150 128.5 Q148 127 146 125 Q144 116 141 107 Q138 98 135 90 Q130 77 126.5 64.5 Q123 52 124 40 L120 29 Q115 23 109 19.5 Q103 16 97 13 Q95 11 91.5 9.5 Q88 8 86 7 L83 -4 L71 -6 Q60 -8 55.5 -9 Q51 -10 45 -10 L35 -9 Q24 0 18 5.5 Q12 11 4 16 Q-5 28 -6 34 Q-7 40 -8 45 Q-10 51 -10.5 55 Q-11 59 -13 61 L-26 73 L-15 82 L-14 99 Q6 150 28.5 197 Q51 244 75 293 Q83 309 90.5 325 Q98 341 106 357 Q105 360 105 364 Q105 368 107 373 Q118 390 125 403.5 Q132 417 139 431 Q147 448 155.5 464 Q164 480 177 497 L193 504 Q196 505 200 506.5 Q204 508 209 508 L224 506 Q252 519 273 542.5 Q294 566 316 599 L326 613 L339 605 Q344 602 353 599.5 Q362 597 372 594 Q390 590 406 585 Q422 580 432 570 Q438 554 439 546 Q440 538 442 530 Q445 513 447.5 496 Q450 479 451 458 Q456 441 459.5 424.5 Q463 408 466 391 Q471 367 476 344.5 Q481 322 489 302 Q497 302 499 301 Q504 303 509.5 304 Q515 305 522 306 L533 307 L537 297 Q538 292 547 287 Q560 286 566 281.5 Q572 277 577 272 Q581 268 585 266 L600 260 L592 245 Q582 227 563.5 210.5 Q545 194 522 183 Q523 177 523.5 171.5 Q524 166 526 160 Q529 143 531 125 Q533 107 531 88 L529 84 Z M240 257 Q270 259 294.5 261.5 Q319 264 349 270 Q342 300 334 332.5 Q326 365 317 397 L311 387 Q291 366 272.5 340 Q254 314 241 291 Q235 282 229 273 Q223 264 218 255 Q224 256 229.5 256 Q235 256 240 257 Z M619 787 L620 776 Q613 764 608.5 756 Q604 748 602 739 Q591 728 585 725.5 Q579 723 574 721 Q563 717 559 713 L549 698 L539 707 L524 693 Q513 702 508 706.5 Q503 711 498.5 714 Q494 717 486.5 720.5 Q479 724 463 731 L449 736 L453 749 Q455 754 454.5 767 Q454 780 455 789 Q456 805 455 819 Q454 833 460 844 Q481 855 493 859 Q503 858 512 857 Q521 856 530 855 Q537 854 539 853.5 Q541 853 541.5 853 Q542 853 544 853.5 Q546 854 552 856 L564 854 Q571 851 575.5 845.5 Q580 840 585 835 Q589 827 593 825 L605 824 L609 812 Q614 802 615.5 797.5 Q617 793 619 787 Z M320 826 Q331 814 342 804 Q353 794 355 782 Q351 766 348.5 760 Q346 754 343 747 Q330 736 313 724 Q307 719 305 718 Q303 717 302.5 716.5 Q302 716 301.5 714.5 Q301 713 298 707 L288 700 Q280 697 273 697.5 Q266 698 259 699 Q256 699 251.5 699.5 Q247 700 245 700 L237 692 L225 697 Q214 702 209.5 703.5 Q205 705 200 709 L191 715 Q187 730 184.5 738.5 Q182 747 178 755 Q178 772 180 778 Q182 784 184 789 Q190 800 189 805 L185 823 L200 824 L200 845 Q214 846 221 846 Q228 846 234 847.5 Q240 849 247.5 852 Q255 855 272 862 L286 868 L292 855 Q294 851 303.5 842 Q313 833 320 826 Z " />
</font>
</svg>
